<mxfile host="app.diagrams.net" modified="2023-12-09T10:16:20.566Z" agent="Mozilla/5.0 (Windows NT 10.0; Win64; x64) AppleWebKit/537.36 (KHTML, like Gecko) Chrome/119.0.0.0 Safari/537.36 Edg/119.0.0.0" etag="2fbZE7sPiTJfEsNNIIt6" version="22.1.7" type="onedrive">
  <diagram name="第 1 页" id="cGSimJjZCOSRe1N-5d48">
    <mxGraphModel grid="1" page="1" gridSize="10" guides="1" tooltips="1" connect="1" arrows="1" fold="1" pageScale="1" pageWidth="20000" pageHeight="40000" math="0" shadow="0">
      <root>
        <mxCell id="0" />
        <mxCell id="1" parent="0" />
        <mxCell id="w8eq9V9YnCzfdB6YvHJ1-1" value="" style="shape=image;verticalLabelPosition=bottom;labelBackgroundColor=default;verticalAlign=top;aspect=fixed;imageAspect=0;image=data:image/png,iVBORw0KGgoAAAANSUhEUgAAAq4AAAJkCAYAAADQjKPUAAAAAXNSR0IArs4c6QAAAARnQU1BAACxjwv8YQUAAAAJcEhZcwAAEnQAABJ0Ad5mH3gAAP+lSURBVHhe7J0FgBxF1sff2Fo2roSQECAkaHAnuLu7u94dcDgfesBhhx5wcHBwHO4a3N2dGCQkxHV9R7/3q5laOsNakt1kd/N+m8r0dFeXdU/1v1+/qg5lFDGWOBn9C+kfByPEf2n9VyUSLhSp0i+paK2U6JeIhF38RScjKU03on8u07kiFTOrpXS5Yl2bkUQornlTnozmqLlmwhIKUcJQdvf2RkoD9YxovUMJCccLJFQwU1LPnC2ReZ+LrLiOJHuuI9F0kTa8Nn5IA3UNaXu7Xwj1pu19/dn2+2K9uP1yBJehOftAY/Hq2xZYl0mlsucSKzNan7Aeawg3lKji0uU/bTBtKwmnJam7pjIc+bTE5n0n8e+fl3S3VaR4z2s07mranhGXbUudmYZhGIbRECZcGwHRxl+QrHRr5MK/kKQk6dJFJEq1yJOXPS0fvPSR9Fuhn5xw6THSeY3OuZgtA/WKS40UJotVsYq8d/0X8srjr0to4xq58LrzJdo9LLWhGiSzRPUvIrFcrbWMKmJzi+2H3GFU/eUWw/w38W6Z99Y/pGu/5SUxYE+JJbXtQ9wtRFS4602CCjiV6+yVDfP9VBC2SnPaILhbkPr2rS9uY/HqtrEit5Jy6k0G2ypmz5F4Ta306N07t05DOCjA83BJ5NJC4Gr8jDZaSs8AWiOmDZeY+LrEp30jnQZvIYkNbpDqSFSKND29FWBnwzAMw2g1zEhSD1m5mhUm4bw/YJvfvsh4reH+lKRIfFxSvnvqO+lW1V3Kf5wpH77+sYuz0FDUmuwnhkdyC6WwtqpoZZsK18effUgFSpWEPojKhNcmqF4JqRgJS1QLVaB/WGYztTnJ3kJVX5w4wYoO02V3FNNJqf7iaYl2GSSZPiMklNb2D2njZ6K6TQVaOiVhbSNnfXWf2hAIQiyXLpBoE0GjuVDftvzQ3Lj58XLLLCbDKS1moS7ERGp7yIwvu8m1J0yQW88okzHvlYiUDNRttIDW01lV6wnuANNCWOJpi6i2TUSieuLEUhnNQz/7rS2dui0nFb98KrGyH6SLxva3NYZhGIbRmphwrYesTTWs13a9GPtrek4wsI5tLQLpBlE9gbJ87O4npDBZqEIhpiEiM6bO/EPU5oMY0YLHNHEVNjzuzYqdsMTJrEDkt59n6LqMFIZiEq2Oyi8fjJdpL0yTrx76Xt675WN57Y53ZdLLMySSoE1ydW9nOiXbfvp/riEzldMkWT1Tijt1k3Skqx7R3K0DFkkq50RqLrgd+C+3jeCtl8F1+cHHaSg0N25T8XR9Wj8zuYDWTsxJyf23j5Ro7fKSqRggk36pFKlIiHQqVU2KywD76rHMD+7cDoZs+k71s5TSdTGVqp17q/avFZn9i67laUGunQzDMAyjFeHKtJTChTYYAtSzqo7ctuxlfBGpSyTr34pVMzlB5Jv3vnPrPIMGDcotLSRY1/BX1MMdxmQ2NyQ1E2pk7g9V8tUzY+XtJ94VqVTBo7pGYhl579kP5aZTb5cn/+9Fee+fn8kb/3hPbj/zbhn9yvhssdrtWUPhUe16f1A+URLJagnHsBUizLKHgxiNo7FyYrGtBM4ebkRCGQRpRsKRsFRXiNRUlujXiMTjtZJI6MHFclxVLZmUSnQqWm9lg2kHcHUOSyRZoPvqCVDcWZMuUvE/S9djzs/a8g3DMAyjNVlKhau/aueHAOgbhBxWUHBWSg1cn/OiLhJOH/zu2/rJy19IYW2xigPERVpSqZSsMmxYvoxYANgTQROT8lGz5b6z75Jrj71O/nb0jXLHXv+VJ894Uca8MF66h3pqFckvKcXxUulR01e6VPaQWFWBRCsKpTTTWUZ/OzZb94UvzBKjziLoyp6QSM1v+n9cJMrAIif96kK9tOE6Z8ut/2cKdCl7gKoqQhKvLNXzNiQFBQVSUaFK1llUdRVuEZxf/LnzTPdht1wT/QFEa87fVdIqXEMxbbdOkg6XqAgu0wjlGrQt634khmEYhtE6LF3C1V+cG7q2sl6FanJ2Wn7+7Fd597EP5ckbnpe7/3K/PHHx8/LryGkiczSOilfn40r8Rb5WZwWEc0tQofz+Kx9IfB6KWQklpV+/ntJz1e4SJ58GyKaQK4R+/CGqrqj4JSGXHXm5jHvuZ0l8JVIwuZvUFtRIpljlqmYdycQkliyUMP6MyZhE0mFJRGtlbuksSS9bK7NjM2TAqsu4MyabE/8vUsXnA9HsaCjJRc7OtxH5pCSkgsslF2b4VdqFP+CsjHyyrZ7tbQhK6s6hUNbymUkypK6LLnDToqXHRzcnXOtoqj2doM0Lmk46HdXlbpJKdpZwinMV4To394mANQzDMIzWYekRrjn/Uac/vO9qENZrnOqvU3LrMXfLzcfeKSOvfku+uvsnGf/SZPniiW/lX2feK6/e+L5ILTtoGi6tXGgWSKfswC4fWBdCECTT8tilT0vlqAopKCiWuUUhmVmSlm1PPMz5oRZUaFR0gctb5YHuwmLWzpUTWLquvqJkGAneb65kikQKY51Vv4SkNjpPhWpKisJR3Tsj4YICqUrFJdKrUir7T5HKlWZIbLjIsG2HytBdh8mf7/6TrLnLahJXERdXhV0nlBuBajmrNe1epWGifn2nUsY+Pkpqv9CSs07bfJ4uxKkNzpkcJ+o6Q8NkXVXjDNF146EWHk71rER1xy7DbAksasJhLSDuFOGYNlB3zbREElUaP4UFM9e2jkUrQWviziHF/a9FTzK4DFHufFO13k7P6gb9GgrlfFw14LOc9Vv2ATQVlx7tlF3jcG2U0FgklnDTitX6DEXbzrWoT6PlSXN+GIZhGEs1HX86LITQPA1ca0s0oEW4bof1IhjUJLVhmfTBdLnnovslNrdYauI1erFPSSQUzU7/lLuOR3un5fxnzpBU7xqJMOcnaXCtDqbVAFmb3/zNzaAgTJ5lX5fJLUfeJanyjKRiqLQiSUaSMniVQTK3erbECjWuiqzSbsXSa7meMmCl/rL2NuuK9NVEMIA5EawFoVoB7UBuKf1TiSGxmUXy60e/SSgek1AkKrHxBXLvv+6VRC2Da8ISKQnLETfuIwNXGyDSVXckSerlFJ6mo5+pXD2bK1HmfDJLnrz3aZn683SpnFEtMRWDFZVzJVZQKP1XGSgn/v0Eia+UUtmTkMK0ip/qiLx1z7vy8qOvytx4XI654hhZb7sh7vil9biRfTOa+g/QDrR91i1A1fRP92vZbpDuK22sdVWFnolJ9ZzO8uLTP6qW7Sq9+pTI5lsNkFDpbN0TYUsquZwXpgCtSvbkZJ6IdDgpUT1QEz4pkAevHy/pyi6SVLE5ZOMyOfjs9fWgTXY3MsR37gWe+ayxup0oHGHfPXjrs/4WMppHqPZnmfz9+9JllR2kdJ0DdEMfDcUaSKc5Z0bzoYuqrKyU6upq6d69u0SjuRPSMAzDWOpo2StMG6RqYo2ce/jFctoe58isL6qcBsnCBTkQykWuO/sfkpkTknhZQuI1caktrpaabpWSCqdUvKooUOFYWVEm497+USVC7kLOtX2RhIzunAjLF499owI7rIJSBZoKjQIV3J0SUZnx/WSpGjVP5n49S+Z8NVPGvz5O3r/rXXnhiufl6n2vkjnfVjtx7iWxKwoLdWTlmsoZSXcLywpbLCez0xVSU5NVpQzkyWRSKgoqpE+/3jJwqIpWbaPMryJzv5gto577QT5/+BuZ91OtRCpV9+tuWNyaqjJiI5lMypUnXybj3hgt1ePZv5NUz41I/6LlJTq7UOum6b83XkpVkcb0jiKD9VOPw+fPfy3JGRkpqS6SCV+NkzgmV91Eieer2gKSFWq5kDvsdehBnDShQj54Y4Z8+nZcnnnkR/n1F+54Avu0abKiPFtObftErd6VpjUg8kJSq+czotNtR4R6Ieri++Ucvm0QrV641i1z7BHySf1aQ06csLq+9Syucb2B+fvf/y4XXXSRfPLJJ7m17YeqqiqZPZsboI5Je7J9dHQ7jWEsDXR44frKY29LekJUus/pIs/e+WT22bp/UurILmTKM84amIynJBmNy4hdN5Vzb/qrnH/rX6Xfcn2d76cTVpmkTPhxjLacXqR1V6bFxKjbHMipLltPMixjXhslHzz+qdMS5JEJZaSysFwqpULTZm5OBG2RpAuKJVPQWYqLl5FQvKfEpxfIp0+87Z6lp9IIiqzjQDATxBpv22LGAtwNrjnkdnn6/Bfk0XOekvvuuU8FjQpKFa+lnUukW3Gp3HvUQ3LDbrfKdXtdJ3ccfps8+9fH5a0LXpXbDrlGvnvsU1SE5jJVU667A/gDXByYB3bSpEkSDRVKUaSTFGuIJWPSNdpVEuVJ6VzYVaLa3vHyhHMZCDPNktY7WZOS2NQS6RLvJl1qSiU0JykFXGs0pCUrlBbm4uPb/nfxysf86fTp3U1isbjmM09WGrKMlHYp1jga171pKrdPW8VXBXGqZY4n4pJK8cqAqH4NS20tsl/PWeri77Somwu6TJv6sAC4lEijleDmZ/LkyU74sfzBBx/ktrR9GFhZW1sr//73v+Xaa6+V3377rV53B+K1V/gt+tDWoYy+/TmXuCFys20YhtGu6PDCtWpmXEoqukhpeYmM/3ycfP7Gj9qD5Tay4NwAQpIOpSQeq5Gqwgop7zRPqnuVS49NVUCtWqQalWZC7ea8DJhWiEu2/qPbUynFpqbRfJxPYcB2mJkr8uIdr0lIBWxVSaUWJyPRcJFsc+ZOsv/lR8qIo7eX9ffZXFbbZi3ptXJviXWPaSFUGGo6CMFCBosVaZnc25BI8/eLYNYKq+JFV0enJeXava+X5JeV0imekXinmVJVXSkpRn1p3iFV4KO//kkm/zBR4rOwOEelJlIqcwtKpTySVG2ZlDfe/lCkskBKpJ/WoeFTB9EKyy+/vGy499ZSunJP6T6wq6wwuK8UpCq1vHGpiVVLvLBW+qzYWxJaJcQ6DRriJQczI1KcKJVOiSKpma5qm0bWJL2l16e/wLgm5z+tMzch7jgQND3Nv2v/avm/G7eUy29fT046fxXpuaIebapJXAY9UcaFzHpx4GdHcHVESFC13OCsRBzLqC6ocMXHGTE7X2Vc3XL1c4Fl6u0SIUa9tHZzcKy//PJLJzT894VhSQgryspsDt99953MmjXLCaXs7zTL2LFj5b777pPRo0fn1rRtvEDFZePqq6+Wv/zlLzJlypSsL/XC/iYXI5QxEom4OsycOVNeffVVmTBhwhI5NwzDWHgaVh8dhKHDBqpQqpREUa0kK1Ly8t9elNR3ejFOh2VOigFBGikelkgqKkWJkBSXhaUg3U2+eGOU/PLwdPn3sQ/IpF8nSDpaqRd8FU6ZQr1LL9SdtKPW1sOrj9ddNgv6R/SP/jEuKVwRlo/u/1jmjotLBb6U4ULJJAulx/I9ZJNj1pXh+w+QLU5fXXb5vw1ln2u3lpMePkK2OnpzqS0sl5r0LKkoniErHDEs+5TWlUELxKNhRm1pXnTI5MU0m89dPVJqZ8fds35Eeqy6SEqSXaQ4XKLaJCPpVELSERWs2k5VsQqJR6pUTNZKNKTrMjXO8tundx+RUk0bZ1MV4c1hzzN2lDMeOEVOfvB42frY7aVWBVMiFJEqbftQz4wUrazFpzm1vCGtyNyKuTI7Nl1qCiolqQJ99pSy7DHS7BDLrj4tAgeDTElP64OQi6SlpGtGCkqrtVCar5vqyWfeUvm2Atx8uZ8yZQyEwDFKJrWuTB+hZPSTwW7ZeHzQFsBKDVzIXdCvPgTJ/96KYCH79NNPnVUSgbTRRhvltiwY3tL28ssvy0MPPSQ1Ncw92zRerBG/Oda5oAgizwceeMCJ7qKiIikt5cejP0dNCwsyVtj3339f3nvvPbd+QcD9YOTIkU44emgjX96WhjSpD+KP4zFq1CgnYH/88cdWzbc1KC8vl6uuukqeeOIJueeee5p9LhiG0TbgatehWXen4dJ1SCdJqTbpWdxPpFLkvqvuEZmUltJQJ+2RVUnSCt25jIekKFQgsXSRxGcn5fbL75CJX06SiAoDRB0jt/F1TaTCKuR+FwVZ38L5abALZ4Om0UnF0q/fTJMX739JClVEplNFekVT0dQ3IsdfcawKRk0VU2mhlq+TCs7O1ZLqVCHrbLeqdF+zs8hqGTnk6kNluQ2Wd4/7s5IuZyFUIZtUweku1rr76GfHy6hXf5ZQefb1nUSKSoFKFN2uefAipbCKFwaKoc/INx1KqraPSypcIxUl1dJ/+CDZcs/ts+l7jfQH8mrNV+IhrLV6n4z+TGZmZkttOiGFxcWy4eYbSLf+2Yu5s9gQX4sUj+lNRjgp8XRc5s5V8Zgtsn4wA0K9GTcPJ9B80IycNZFaRzWQrq53ltWkruZTg4NtPijBZFqKYJr5oVlo2VzcbDl/1xDZBdwGnJDNVWF+WJ/d748Rct8bKEed5m0FEEQIP6xjWCv79+8vm266aW5r8+F3gKUNy+djjz0mb7zxhnz++eduW1Nii/OSUFZW5h77N4U7j3PgGvDNN984wc1cup076+9WQcQ+88wzTtCWlJTI7rvv7tYvCIjdp59+Wq6//nonYqlH0JrbUnjB6tsQofzII4+4AXII+ZVWWqlV8m0tqA/HhMF+HAfqwbExDKP90H56nIWle0Z2O2k3iXYqklQ6KtUqxsZ+OVbuvehfEmPaJZWgyVjCCatey/VXsZSSSr0jD8dTUhyJSWFhocQiCBvIXtjdBO7uu6exbwHYHRGGZtKb/JH/HSmhWuZNjUhhooeEwmlZZ/fVpGBF1Xp6jeSxucR1hzI9TDNSUlBWLMXxmPz1qjPksmf/T1bddai7+BUWFWrSHEoVYaok4io2mVw/quWWKSJP3fuse4lAuCY7QwKDzWpiVVJdVC7pTkkJF3Nxzqhgj0hBKvuqWcqajialoFdMdjp+Nzn91uOk31o93BlTf/1Ym7dF00hOVT3+U0qqvkjJ9FEzpbRbqYSZ9F8vdjvssJ3EShjQo1B8ds9ZBYE3PpWrYHBtxkYnun/fvvAEy6kiT8WGf8juNuVVw+UZsF46/hBnIfB5tURadWg5tT7JpBfd2cSTCf10ltkAbhP1InBg8wK63m/35cwm5/B7NhfEDwIQayPWOm+py8evI97XX3/thBEiI9/aWt++9cH+/E6wtJInYHUD0mgsHbb9/PPPcsUVVzih2JTVlfjUk/x4FM13ltdee21XB/anXvjqYoFdd911pW9fpgZZMCZOnFgnqGlLL7CDUI5FhTRpP0QrYOXF/YF2HDx4sPTp06fR9suHuPPmzXNtsiQgfyzG3mVglVVW+UO7LSy094K0hWEYC4denTo4RSFZafsVZIVNV5Z5Ie1wVTQVxTrLrMlznTWSabGYlxSr4KrrrOUsgUWxAulWUCw7bL2tHHLIITJgwAAJh7J+XGkVtqNGj2Ye9gDN7PhCeqFmYlLN991/fyXjP/lVIioU3VPqREhi/cOy1QEjRHh0Hhf5buRYefz8p+XWg+6QG/f6l1yx5VVyyV5Xyd+PukkmvzvHpcNFxXeYLuiuYf3zlkkuXVW1VSpcUqr7VEBGK6S6tFxqelbKFgdvKqdcfKL0Wb6XpqNNkIlKQaLYDZqKRmOy0horyv/dcr7sdNymTti7qcSUOsPlfARW5Ba5oN586h1yzb63yM2H3SVzPqiSwopOEgvF9MKVkO+++zEb0aP7cVGsuwjrvzAXTDQGFwTE4x/yXRBoEwKnPWmxHEgymPZ8+eRlylcfFpaG9g2m7UOz8fWLaPsiCt1KJayCKWtdzq7U9vXbXBsgSjS4FwvoD4HHE/wgwnrAQ6zLtVVQB+US56FAc8FX9ZJLLpHzzjvPCcFkTrz4c9fjhcTjjz/uBCbxEH3rrbeefPXVV/Lmm2868bMgguPDDz+UqVOnOgsbomW55ZZzefL7aSqdMWPGOAtdLBZzoTFIizQZUIboJj6W1i233NJtR7jef//9rhzUbeWVV3brFwTKPWfOHGeFJn3KBjNmzHCi7NFHH5Vnn33WlcO3bbB9F5bPPvvMpV+sfSRp77rrrm4Zgvk0lB/rsHZefPHF8tZbbzUYrzWZPn26jBs3zh0nxDcW45aAc9SfS75ei7tuhrG00OGFa7WK0lq99h54+c6y1h5rSyhdKLWxsKy+y4ZSxRsxw6jEEtcSK6w6VOLamRWquI2qMv3y08/c4IkJ4yfohT4ibuB7QVTWX389idR7rcte2emutNtyf0EyqjRTkbj8PKZCRt43UmLlMRXAIakpTkpBSY0cd92JUlZbLR/e9rn8fcQ98viZz7nH/BWjaqTs11qpmVci4XhnqZxRLh+88kpWeOfB6PxoTYHqTCat1e/9RLY7fEvpvHyRxAaEpNfa3WWHk7aRa5+6TLY/fHN54Jn7ZNQvo1SXaIVCEfcGrbCKFnwgv//he/llzKjfzxKqQxWZvCBbyTx0Y0DcpFXV/Db5NykMFTkf4mQmIRXReRIPV0tRSaF0797NpYH/rIcLgO/0i4pVLdP563WZqcgc+rXlLwjIfCqpbUDSdYHvuXXZ/+o+fkePqnOr0Dos9HPz/HwDAfynktY8aIv5oujuHlcEPZZpN4CQZT61jE4k+nwQpixrnevqqMvJtNTMLpPqueVSPXuepMuryVCjanziODSB3GKGuzdXgKZhEMx//vMfN0iJGy0+586d6y70PgRBJH3//ffuWCPyevTo4R6L33HHHU6YYT1t7nmAyEPIeT9V5oJdYYUVclvnx597HsrFDRh4a21TkMfDDz/s9kNcbrDBBs7NARDPCGHcDnhEjcvATz/95LbVB2VBpDNDB4ILn1LEIxZXIK+77rpLTj31VDddGDMYvKJ9A+kSt6XgeNHmiGQE2tZbby3Dhw/PbW0etCV1pu4vvfSS+63nH/fWBhcR8idQj9VXX32Ry8DN1GWXXVY340VzzxPDMBYOL0k6LMUqwgpz16F9z91K/jbyT3LhY3+RHY/ZWiJuwAr+nopem1detY/07NZLLxbVkomnpGZqpcQqM1KbdMpJttp2Wznjur/KiLM3yUotfPqd0YiOL6Fxsi8uRbAiLfKFK3OpxjOd5eun3pPQ7Br3DoR4qEZqi+bKKlutJK/fP1JuPvJmeem2kTJ3znRhmqpQiOmMiiUa6iRFiYjuE5eKeJl0GdBfEvU9baMoOaMQpcF1YLODNpLTHj1azn74TDntP6fKFoePcGX/24E3yPRPZ0lJsrOWNCoJ7ciTUS07Z0Va860pkfTcrtn0CtMSj6liZRvVmr9qrq5uFfnnrgOdoiVy+nEnS1zbrzo0TzJFcdVHCb1gpGTjHdeRwTstQ5MFtW7WCqcJ8cYnLtpIyqryWlePbNp/FDnNZr4yUxECogwLtW6MYcXW0qS0DGE95uFyLZxrDM2XUmq+CDw+0X5a1soKbciCsDNWuruZAtLTdgphxddlrOHusb0r/O+BOiB2o3N1WT+x5BEtrGI+vpLI7GGSnjFUMrNW1HWri9Ryg6VphrUNdf9MqlhC4c4SiundV1S3RXRnPY+4GEsiJLWhApmZ0BulnBBzr3ylsZnblfxT3DTofsw2MC8mE9/rIdf++Ve5+swJcv254+Qf5/0qV/11rFx9+mfyyD9+lpopPbUMFdniOzRdXU5gcq1b1zAIFYQjZRk6dKhceOGF0qtXr9zWP4IIQPgRHwvptGnTnEVxrbXWkuOPP14OO+ywJs8D/6icm0/EX6dOnZwIPvTQQ50Ft7FH6eRLAIQIcRHfCEXwn/WBawG+oJzLHA/vl0t6CHLawZcdQYgFOZhfEPxkL7/8cvnb3/7m5rK95ZZb5F//+pez1hKfcmDd5ZP8EMq0Fy5O3hpKXosqzl588UXXhrQD4hNL8VNPPeUEG8fyiy++qMunofwoLzON4CLBjcjihrLj50zZqAPloI3qK+uCwNzCnJ//+9//nEXZMIzWJXIJz+46MjUZmfXDHLn1zDtl8tipsspOK/Kade3co3oRc5dwJ19qJ4hcd/qtUj2hWpIFVRIqTUmyNC7dh3aTYZsPlZWWGSZj9YL09qfvyMCVB0vnAVgRdU/EI4FrYDjkrLJZuYUND0H0O6wv1E5y9PNjZfpPU7Qj110LE7LGpsNk6IrD5J0n35OCqoLsALBYQmrD1VKh4inaKya9BqugVrWJABy2+cqy+0l7SKo7Wil7savrfPWD6Y7AXQz5i6iE7RqXcImKIxVY1eNr5NZj75L4FJXSSc3PSXf8Y1WAMTBLQ1I7+U7FXWTNYWtptWqlqDcdvFaOqZRInEZjQQMlSOn/NAFzxroFXT/jy2ny+D+elJp5taqtorLXfntK156dpW/XPlJWPk9+mzhdBq4wWApLSSzLtJ+my7ev8IKHqCt/qiAhm+2+icT6056oRU3YFWAhcfuqyJv5ldT89qEU99DzoWiAtrkexLQKs2QX/UQkKgjLtF789RNhH+JNaU64IkgpS4EUxAokEUm66aYKUjHJzOkpn71ZIz98OldKI92ltKu2W0bFbVjju2Pkg7YaYhjrZ1JDbYmkKnrIJ69Olhce+k6efPALef3Fn+SNkV/LV+99Lz27DpBeyyJQazmwmmZSbyx6y/RxEfn1p4SM+65cqmeVSqaym5REu8r40TXy62htMx77qzBOF86UrXddTYs8M1t+SGtalTF587Fx8vT941WXLiuJqm6Squks8cpiqaku1nWFMu23Gvnu2x9lpZV7SKeePJ3QdknOlnnTx0thn5WlcJm1NDEG2blbwPngGCJ4vH8p5+k+++wjw4YNc8v1iQaEnbdYIjQRHMsuu6wTqzvvvLOzXjZnQA1pIxRff/11lwZQHixkjOZHbGGVZBsimrzYDr5cfGdw2LfffuuE7zbbbOPWe5/PIAhHBOQ///lPJ0gRreyPiKS+iE0sosQjfbYRB7E5ZMgQ6dZNO6YApIVYZiAWZSQ+cYNlxFWAciPCevbsKauuuqpzqTj88MNdO9XXvs2FfNgfKyuiDAs5Qo/jSNsxs4D3V6Z98EFmsFljkN52220nm2yiv2ktu8+jtSEfrKz46DKYjfZcccUVZeONN87FWHiw3tMenOcI4w033LCuHRZH3QxjaaPjC9eqjFxz0pUSGa8X4vK0bHzkeu51p07b5foUtN83T30n414YJwWhmET0+nHs5cfIzpfvIuvvv4EM22qYvP/QRzLm27GSLIvLO6+/Kbscu73IHJHHr35Obr/4dsnU6sVnrSGSinFRyUrW3+VYFr6nVR+VpLrKJ59+rKK1RpZfZ4Aced4RkpqTlk/f/1QFRlLKCufK4PUHy04Hby9Hnn+AbHnMxrL+wWvKJptuKGttupZsvP/GEumvMkGvne4ipv+cnPT1yesssVZWq3iJ6V8okZaX7n9OfnnrZwmnC+riukuhLiJa+UQYVFZUyrdffiOfPPuuDOo/ULqvwgAyjauBT58fMMMqaUQ0vayWDsnD5/5Ppv440728IaqF/eaHb2XatMnyy7c/S9WMWpmoNxK1iZQMWWcQGtAVYur30+TH10apkFQRRHm0PRCuBf15V1lOLATyXWBcfVXEzPhaaiYjXAfnhGtE4vNK5a0Xxshvv9TIoIEraQPjE6FiP4TQoMJUXj+qiqR2Rql8/PpPUhgrlaJuYSku7CRJFY7vPTdP3ny6WsZ8javJj7Lyiv2kc09NI6ZiDxOlL7trI610qpN+dJZ5E0vkXzeqmHp/jiRVPNaUq2BOdNPj1VVq50Vk9LdzZL2NlpOCTtrSWIGrQ/LKY7/K/+74Wr5+v1xGf1Upn787Tz56Y5SMHzVDijL95bexlVnLNb7VhbNk611WkUwM4arFCDMyUW+FpnWWR/41TsVqd71ZSUo4WiaFJZUSK6jVi7seSz12ERWlleU1uk+1DF2nj6aX0CaZJWUqXIt6D5XC/g0LV84vRCgCDME2cOBA5zfO+oYu6gg8rHlsRyAOGjRIzj//fFlmmWXc+Y5wIi0vAJ2VuR6wejLtEWl4geQtkuRBwKLJo3ce16+55ppOZAJxyQexg9DhETNWWgQJj/tZj9AM1oE8sEziv4nAIx98thG++Ljis4t1FNHkRRvLCHWsdltttZVb7yHtfv361QXyYzvlBgQredAuCG9+s6TnH4PjxxssX1OwL20KXnSzPwPAEP/kRf60IbCM24Wv6y677OI+G4M8aFdf//xj5/P0ny0FeSLAEa6+jljvcRUI5pXfBk1BXG5oSBsXEPb3NyotWX7DMH6nwwvXT5//WL586hspnq2dfqRYNjpgLQkz0Ii+KWtodGHUs2Nk5kfTpDZcIzWZhGxz3DYifbXDK0hKREXXw5c/Kp1TJVKSYNR9WDbZZl351zl3yYQP9eJdWSijfhwja2y7hhT1UiGiCUdUmOT3WwnNtFrT7zWkm6y+1RoyYv/1ZfMD1xPpk5bO/bvIqhsPlU332kj2PG1XWe/gdaT/Kn0lmUpLxbRqmT62XOYmE9K9XyeJLhORZKRaqkK1EnM+qdlBAV68BjtMt6z/UirWChCukZBU/lYp36s4jDi1mI2rXbf7ZHYBxA5v4qLepF0SV7FQVCNDt8Bip6KPqLk8sv/z6f9IKSTp3xLy1GXPSzRdqKJQ08skXf1TiYSURIsllihWsR+VilSVbLSfCh+OhSb9y8cT5Jf3xmvZoiqQQpIsSMi2+20pkb6aqlPMLrNFA0vnzJxw7bmcpIuWlXCyh7z7bFpGPlIuP49SkRZJyOBhPfXc0ANJiFRpYBBMRCqn9JKbLvtExn1RKJ9+8L2suWEP6dS9n4x/r0Sevf9b9/avcLJEQ0imT5oia2+0pt6t8PrYIHoSpjo7XVw2qVLuvukL+W1MV1fHVLJSorG0ZqshWSDFomKxtkTmlP8kq22yirOSvvHoLHnr2akSiy+nbVzKFLT6GVat3U/KppbIpJ8r9YZBRZ07/mkV57Nlyx2HOgHrVjGthaY965cS+eJN3DfiUtw5KnsetLzsf9iKEiuMa9m1iEk9S8IlkorXysAVSmTldfSuTuOGUrOlfNoEKeqjwnWZ4ZogUz39UbhijXvwwQed2OFc5LH5aqvpedQIiBoEIgIMX0qscwzsQhQioJiLlWU+sfrx2NpbuBASXnDgD+t9agk77bSTSwshjAhFbFA+tiEGWe+tlDzyxZeWfLDOki4iFMsaASso8XB7ANJA4P73v/91cbGWIiipN9+pC9Zf1lM/RCfLgHBCWGH983O9gv8dMzgUIYRl74UXXqgTWuTJJ8KSQUcIZD4RxwhtXBYQZ+SXD2IZazPtSlxcM95++2157bXXnEWaWRAQoaSPIKYOWBQpA1ZnLN977bWX7LbbbjJixAjZYost6lwT6oP9gXoTSNfXL4hfR7sRr6XgnKA93nnnnbo8OBdwXfDtTzvwZAAfYY4vbYRVtr5yenw9qN9HH33k0uK41DdtW2PpGIbRfDq8cP3m1bEy8XO9eNVq55Sokdrp1bLiyiuIqCaZO71cJk+c4qxKs7+dLhM+/1lqY3qBTcZkyOarSM9BpTJ3aq1kZqXl4/99LIV6EWd+Vaypc6fMkWkfzpSQirpoJiqFenEfccRmEu3Go3dkl5LXT7EfVk/8ZTv3KJHiQhUvTFmFgCwNSWnPzlIUL5TRr4+X9+/4Qh68+jF5+YFX5fUn3pS3nvpAPnpklHz48HvysYbCeUUyoOcgCffMilbAssorY/NtvWEVkwWZlIoNzUsFTudOfeXTN36SZIUKFrdvdv9sJ4ztVPfQJBgIFNL0SpatlR2P30ZKh3SVTJR5urL2ZF89Pp2+0yX+sCZi1X7vpR8kVa4XIN2e0nSS4bS2lR6HaFJjMTeuXvhxk9hieV2nIk3b5avXvpFpX05XARdxg5CqpFJ2Pm47ka6BevmMFwa3r15EZ30pNb99oMJ1+axwTRXKZ2/Mk5mTtA0TBTJ56njZYJP+EiuhYhofiysuBJlC+V6P+1fvVevqzhKOzJaNtuovxaECeeC2NyRZ3lWTj2pJE3pepaRydkqWHdhDeqyoQtGZoimAHgT8VWMhqZkekhsueV9qZvfSfLM3CgVFtdJLb4A6F3WS2rJaPZt0bbhCps8aJ1tss7ZkypLyxN1TJFWtNyK6Ndv+egOjN1ZYUhGlYYKWO5SOufNCClW47jzMfVKXdKZYU+0uY7+cI99/Okdi4b4ST1TKdD2vX3nue/nuM72BS2nKEc1bz4lIdK7se/BwKe6r9Ypoe6TnSvn0X6WkzxCJ9WeQDoLrjwIJ6yRiE2HARR2x05hvKyAoEVsIMkQjMwLwCBYLKmKPwVYITsQCj6oRWEExzHoGJ7377rtOTJEvj9CPOeYYZ4VkJDmP0xFbTIdE2qS72WabuemdgP2ZFQBBS9mD8DtBWFGObbfd1q0jz3vvvddZ3RB6iGlEI8IaENBBP1u2+QFWfKcsCKn6QAghfG+//XbXnogw9qGslI2y0F7e1YDvxKH91l9/fTerAeXz9XjyySfdQDnEGZZmBn351+oivskDqyGinLajfWknLMI8BmcaLNwSvHWasjTmuoEAxM8YizMD1fx+9cHbxHgrFz7R5ItwpAwLI/poM4Q5YvyXX35xYfz48a5tYPvtt3fnIml//PHH7vjhq8px4rj/8MMPrt04dxrCl4s2YPozoL6kDeSV7VcXvPyGYdTP/AqnA9J/QB/tVMPSs3MPKUmUyifPfym3/eUuSb0tcteB98m/D/iv/GPvW2T22HKpjNRIkhcS6HV+2vtTZPwDU+T2w2+TO46/3b1eFQEQzySkOp6Qb98bLTUJhj/p+k4x2f2EvaTzcl2djGioURF1TvIRgX6sk0q6Qg0oOzSNXvev+8s/5d/nPyBfPP+xlMwtkpI5naRbdW/pF+0tXQt5m1O1JOaIvHL3+3LdEf+UxGe/d4hYSoPUdZiILjLFtUCTuO3/bpaaaXN0tV4QNO9OWoYSFVnFevHmRQQhrZXKSxm0xnJyzr1nyp8fu0j6bjJUr84qlNKddHs0bzqwHF6XMUips8gJF58o/ZZbRkVPVOJJvbgWxdy0XKFQRIVqSsqLZsrK2/VTncegHRVD+m/eHAZEaVK+LrSVasGGW3VB8QXnU4MTk5phiMfkKiYz1RLBclnbU8omqRBIajm44Kt40ELpclRm/laAntO9a/SzWEoiXWTcZ2GZNaVQ69hFEnoOhfVGhmQjye7yyTvjNQ8VGQlEvy7iIxrW5XBMXnx0usRnq1iqKZFORSo8Y5Wy47495PRLNpZ9DlxDk6hQAZ/CK1fSySJJzyiVh/TY18zTMghTqSWksOdU2WRvkR2OC8uGO9dIp56ztC56A4YfrO4XhJdoUPK07ieRhEyZOU3jxNxFPh0vkWmTUpKo1BuoWE+pqg5LeXWl1BZPkt2PX026r6z7RrEca8X0Zo85gbkpyr6Gi3T/CBdxDwIKiyJioCEQpNddd52bQQALICIWOI8RMIgy0kD8INYQdfhXehAKiBXeioRIpF5YV/GP9SDg2BdRiyhhND4DoPycngQsijvssIPz2zziiCPk9NNPlzPOOMNZ0hApiKquXfVGTstEwEpJvmzr0qWL7Lfffm67B2st2wAfT0Svz4tyIHSx2FFn6gQ+bfJCfHl3C/ZBOGJhpX2Iz3oCgon8WUdAkJMGeVNnRBnWVY4L6dAWPk3/nTbEWgys83jBB4heBK6HvMinPkif19pSXlwiwMdltoSbb77ZiWYsogw+Q+RTLwQ2233alI36kBYD2rA+I7jrg/RuvPFGufPOO1274nqCJZU6kBbBC32EOz68bEOAc9yYW5d2Zx8s7E3BeenbkHPYt6NhGC1Ph/9lDR+xqkR6ZKQsPVeSblBJVKZ8P01uO/9fkhkfkoJpKgYmp2XCuInoMkUvxirw3nnmLfnv1fdJ+teEVP5Slb1Wo2G0xcJ6EUjHw07TJFIZKelXKmvuPsy1JkOUFrRRs7JEUc02e9o86VzSTWJ6MWMuzuJYoRTia6hiORbLSEFxgYpGLUw8LalZcXnx3ldc2bxu0C45u5AH9krMoqO/Gy0Tf/xVdRM7hbQOcc12jvRerbv0XLVUxXlC12otUkk5+qz9JNJLZPSP0+TnjyaI8AZU1VvxpF5INLlsXqSTK4Bbl6uL6o15M6fI1ClTXGd+4EEHyKX/OVdWWXmYhN0Q/IwU9YhK7yFdJVYYkVhEG1//VTNKn4ua/mMO19LOpS7d7H/ZPBYaJ1J90DKHsmWnvtlPhHva3Xyka8JSNiMX1cen3VWszZyeUMHKRUqbo7JQyqaVyguP/qDbekt5fI5suctwvQHCj1qFqMaf+ttcqZwZUgHPCZbLP1MsP30wVT55a5YUhvo6f+J4eqIccsIqstGOy4oUz5BwwVwNzKhACbOPWGurIjJpXJW2IdZWFRpSLRtssYJsf8RqstEevWTHo9eRsy45Vrr10DsHzSPYXMTnj/wz4aSez0lJ4Nca1uPh2kJzwUWhsFL1+W/Src8s2WrnrnLGBTvKWpsMzN6QuNGHHD/swHo7kRMgDYFwJHAOeDGFIGgI4iLqiIfQ8gKHR7pefGE5ZeJ+0mQ7wsiDxQzRirAlDVwIEJ6IXQQMVlsvINkfEIFeqHiwzGKNxP+VqbSIy2N4RAzCBFGC36oXQVg3+URYUTYeqVNW8PmwD4IREUXavm5Y97CmMq0VrgbeDcGDOGMd4ogyUjd8S8kHYc0ydWXwFG8FowzkjQjzdfUg1hDgvK2L/XFBwFrNJz6+m2++uZx00klumy9fPrg88PYsfJf9MQ2WNx+suLQZ6WE99/AdqzguC4hQBrUR1+fLcSUf2o1l9mUGA16Vi9BE2DLbApZc6uxBnLMdazdp0W7cvNBuwTpxTrDNz3hBHrTXvvvu6yzy1Itye8t4cF8P64iH2PbQFk21iWEYC0+HF648wTzp0uOluk+5lJfMdY+fY5ECmTljhhSURCXUJSNVRRWy/KqDhNH42JC4UeatTdw1x7VD7Nuvb1aUqvD5vesKaUdY4C4kO+y8vV4RdLv+eWmwIJCnE1VFesFcc1kpj82T2sJaOeDE/WTnI7aXTfdbX4bvsLp06tvbTT8UjYWlIKwCIBWX7779Lqsbc3rxj11rkIysPGyo9O7VW6LaBjEVLCuvvrJc8q+L5YiHjpV+2wzUZLDUZVR0ibz+zIdy/dU3yY0n3Sh3nHmn3HbmTaqsRQqiOUubyzQr/rLLzMiqgohtes0e9+k3klGBnUmn5KlnntQrisiv4ydKJK3SUAVdcVGxdOE1mLqsPb3uLzJnhoq1XCtGVcxiNcMS65Syy7PxGjaPYBocs+x3cuAwkH9KbxrmqRDwK4klzGeqW2fOwE80Isk4D+p7yavPjJeyWYWSSIZl0NAussXOg6SgU4Gk0rxWNyHz8EGcnJDqKqysmoH+S8wtkucfGi2JiiKpqlSB1VVkvS17yKpbaj5RvYOJR/TmIZYVuyH8fSNSk5gjiXi1xKs1jjYXNwlFpWFZadgyIoXVqiU1fb3Heuv1t/ViO1nP39+FmLvoclCpD9/5T7/TrLxUA9Ee0puW/stHZIsd+8khx64nl/zjcNlj/+F6AzJRnv3fmzJ7vB6rlOaVLNYEEK5UhwR9+CPe8sRFnEA5GrqgIz6wdmGB4yUFXnSx/ymnnOKEB0IUUeYf4eenhWDxU1EhHrBkIkLwWfVTSTUmnIMwZRPpI0pvvfVWty/LlIFH5qTrwXJL2RGBBx54oLOweoKChzJTfs5rX3bq585zhe2Id78/+/LonPpSH9qA/RBlCE0syZdeeqnLm3QRWuwPfCd+PvjMYk0++uij5ayzznIBMXvCCSe49PBvhYaOE9OSIZL5pOyExqDsCETqwqP6oKjDTYNtWJS5YeG4YYH2afK4njZnTl9EPQKR84I0CAhdBlzhBgDkgXgnvq87dcXNgXzy60Q9/Hy35E37IcjxbSYt0mBGC6ivPVhHWbG2s0ygfPk3DIZhtByN9zjtGX+t0Gtsn817yHl3nyV7nLSLFHcplozenIdVCJTXlslcmSXbHLWFrD1iuIRUiDDfJRdQOjksmwUFMdlhxx1dUu764/5TtA9LJJgsPy0P/fsReeDSxyU0l4foWStLA9fxenEjv/nTvm69ndeS6uLZ2gHOko/Hvi5rnLCqbH7lZrL7jbvIabecKn1Xy/pkdYp3lc613bODUpgfPXckEV0NoxeMHiLnnHOuXhw6OcvitOnT5dMvv1ehJDJw+GquPqGUBo397rvvSE1ljfRL95YelV1l1hfT5R+nXCXVY6olhBW43tMn62jApsErDpaYCq+UtlNlZblcf+WdEtV2Z4Q+NwlcWKMxrTSCEAGk2jcWLtA2VFGkcTBwOusymvb3a/8iQK0IlFs/ydN9/x2+ZfSCiLhJMacrFyt3QdJ9KKd+zp0zT9LJtJZRj1uqQEZ9HZfamgJNNi4DVohItO8s6dknokXGrxPhXiSjf5zn6iZp3BFCMneySOWkvlIa66aCtFIGrlYgux++jp5UZZpORKpmJuSpxz7S6L01flYw9+pTqGK4VuK1jJLnnEmqWC6TLt0zki7/1bXfmy/OlndenSqlJb0lEqvSciMUXdWUbF0oN4HzqGePnlomFYDMW6s3EP2WSctW+w2Wrt3nyWuPvCQ3nfupPHDDdPliZKHccP5H8tMniHlV2dpGuJVE3PlO+eZvRw8XddrSB/JsCM4Hv53R/kkVEoDQQrAgIhA3PJbnUbAXxcFH8nxH+PC4HGGH9RAQs1jYEFtYDNkX4YM4IdTHcccd50bzE4+yIC6pAyKI6aaC+2GxxcXhr3/9q1tPXD6pD4H98ElF0CCOgsKW7b1793aCEdGLvysWQuqCpZWy+roimNmfMuEPirUQ4eqFLfHIl/6LNAhBSAPIM19cUUbwx6AhODbsy7FA+IGvZ31gBadMWIB9mwDH1LsbkB7HHwsyApq6UFbqg4sBlm7WEQchiUsEPsHUjzQRtUC9EZGId/pxjtWee+4pa6yxhusrg2X0dfCClsCyd6MgPwaesW9jsA8C3B8nBvjlt61hGC1Hfcqj44Dg0at5PFMlXYaVSv+V+mkHP08iiBC2hJOy0vAVZeeTdpIufUrdo+mwm/QfYaWitTA78veJxx/XizrXaiQZFysS1gsEA2z0s3ReF5n+ZJk8eflLTjxkt7vMm0euLw0Viqy95XCJdi2UTFVXGf3RJLnj1H+JqK5MfS5y22k3yNTvp0o8rJ15aZnM6Faefc+5nxyAojkxNj+sxqaG1TA1M+keS7oOOlkts2fMk/tveVQevPgNGRgaLGEGcOlp4cR0KiOHHnyodO/VScLJGumqwj4xdra8fe9I5zIg6bDWMqrpIj7ZD8kZ0/20EfQauMLuq0pR906uM+dC/uuvv7r2dO3orvm/i6qs+4NI1y5dtZQIq7AkU9wY6EYOF81JnJZG08fKWvdZR+4LBXSF5FMLgnWYZdo5RCPgRlKqgrJGj8McWWejgbpuinTupQI0NlejaUOkusqo76dItKBYhabWQdttyoTZEq7WC2myQsV7mWy2bX+RIr2Il6wgk7/qLTf97VOZNbWzVFViCcXtICKbbrq2XhDJG0uSthK+tFqGiDCDQFReemSmvPb0L9qOnXSb7pPJiRZnMdb6UHTeesGqkLZtiqcJ/SSs5zlOB6HIHPn6o7j849Qf5X83z5Iv3+gkFTM0u7gKiOqIpGvS8tF7P+qxZUYEjqP+BvQccT40DYBfKwKEY451zFvG6oPzBEGKzyEDurzFjH2YfJ9HwMRhZDhiBhEDCFsPwo/H9KzDpcALFcQNZUCUYJFrCn4fCC4EK/sSyBuhhLgib+rlBY/PJx/Wsy9i+swzz3RWWwIzHPj9SOvkk092b7/COsh3hA/iC7cCIA0e5zOwjN8Q++EPi7URAUg5fTy2IUJJgzbke0tB+vyOSZtl8uGzMbCaUgbaD4Huy4PVONsXZPfn2CDaEfheYPOJ76tva+Kfdtpp7jjzSN+nxXnDMaMdcOmgXKTHDAgIZlw/2JfgYV/fXsANEEKVwKC7Cy64wFmg/XlYHxwj5ublhojjQnoMQPP5NNU2hmEsONneoaPi+qOIFISKJT6rWu649k7tSLTz0r4kRWfVPSInX3q8a4WSkiKJpJNSkoxJUQrLkEZSERsJl+i1vjgnArhQIquQgGkZvPxyul+B6q1KKU/MkfEfj88+1l4IvPUSf8+dd9xZ0gV691+TkvFfT5QbT79Vrjz5SimbUCaRBI/JRBKRlCRDKfnug+/ks9e/UIGkIkIFLa981UrmgiaogRI7z82KqDx563MyawzWHq1XrECKVS33TJfI2Jc/k3vOvkPrqkJLhVUkXODmnO3aubvsssf2ejFVkZXuIpmaUnnvrU9k9hgVZvTNueA1JXlhVUXURHuL7H/WvlJVlJLCcDfpnu4l8VhY4swRGq6SVCQhFTkDNX7DiN2CPp1kdoFegMIxiagWTJWpMHTjc7gjIBMqtZDMtysnhw+/w2HHGskrU2tqqnUfXeHbUoV5spqLo5ZE24hBTVl/T76npO/AuPTWGyRmiujWW/fVdIhTkCqUWaOnS1IvchFEHxXVk7BQ043qX0lxRAYuM0Sv3CvKc7ePk7tueUeqy7pKOtFVCgu6aVtVSrf+42X9LZaT2tRsKShOSTpSqW2uIr9meXnnqRp54OrJ8vmz5VKY7JH1RkhzEf39AMWi3N2oyEjp3YHmy4wHKb0Z6dVPy9dDBaFWMCR68ya9pbKsRCorOI86S20N03NhLY1JaZeMrDqcAS167LUKCb2xqGEwYyNwY4Vo46KOqHj00UedL6d/nA1c5Bm0c9NNN7lBUtdcc42z6mFZBIQF+yNEECF8R8ggntiXgUReKGAhRSCee+65dYID8eCX2Q+RgcgB0vLChTSIi8DGkslbobwoJA6fiC9cDni8zDr24TMoUHyaPrDNCzGgDsHvPl8f2MY6Rv57f1+sxfjq8h1hS7o+Xn5ePg1Etrf8sa4loG2wkpKeLzf5NgbCk7iA+PYw2Ix9ObaUk+nIuOngfGG0P2lTV25cGDjHd+Jy7Ph8/vnnXT1Z9hZnAscJ4UqbYdnGR5Xjyf6+vATOQeKQBuuxHlMm6kdZmD2B490Y+FNjDab8pEm5sYr7vAzDaHl+7z07GtqXIub0f73OhuShix+X1HTttLTGiaK4FC1bKCddcqLIchpFL8Lh7tp5qRhkuqpomrlRI9oh6v7hqBR2KZVQUUwFhF4YtHPy3RGdXLV25KloXNKlXIg1vsuSZtVAxPy+q751QL/OdVpF0dbbbCnhriFnES6MFsu8Kdopq9bErzKSUSmU1ItSPCaFCf1eEpICLRu+qW5gFOnUm0dYJn88U7559geJlBdJWaZallmvv5RFePQbl8Ja7fSnVahwzVpb06mMJBOMSk7KCltqB95LpDyWlGptq7LqGnnr5be0IbMnkBvX49F8aSF8YGn/5bfrKyuMWFHmxMsklNC0UwUSVfEdSyLZtJ31wlSHaqsVhq4o8cKM1Kjwqk1XSXVKRVJn3cYoeH88W4TfRatexur+B5ZwF/AXW3CzHCDIkxmJ1+pB0mPMG8fcXtp+nbqkZdud1tBlbc9ooXTWmyLXOnrCRYhbk7XYhWP4h4alS1des5udxSEqneT5h36UWy58V758u1Zq5vbQ/LHiahrRhBR1mymHHL+KSO+k9FqpixR1r9RzI65BhYPeVH3+/iwZ9ZkKusrublqvzl0jUtKFc1WzcpVKS/fu2ohRLtoqZHhdbFrbXxVu974h2Wib/pIurNIzKCU1CT3uKsb5JVTGq/X80t2LKqTrMhWy5S7LygabraTHXeuIr3VUBRSuHpwEDYAI4XG9f0yLWECk4kfoL+58v/vuu93sAIgH2smLCy/OEAaIYCxnBMQLabGeAUeMPveP0P0+QBrkQRzW8x0BjN8ky0HYjlC9+OKLnSgifdJEbCFkqAPrsPbi88r0Sf6xtE87mGbwuxdAvlx8Brd7kcN3lhFcWDZJF3jkzSAyRFpShRn7I8Z5LI3YYyov5lRlX+Kwnx8179NuCTg+5E19EIe+fI1BWxOX/YKP3b2bAeKU48kjfZZ5OuP9Sik7riEIZm5QaB/OHWYL4EUP7MdxwYLNuUA+BKAdGMjFAC58aH2bexggh2UeP2i/HwPhmNKMGyzi+rTy4Zhz/LF6A2kzSA7LOZZbL2QNw2h5mu512il01QmUFVanqSKTX58phfFiScT0gtezUk646hjpu14XkULtdDBG9RSJF6ckqaKJx7uhDFaNqJQly2Sj3deXSP+QJAoTklKhkebiEtFOrVBFF++jLwpJZaRcVt5kxWzGXJv8ZzA0df3IHY2XXhkps2qmq5hIS02yVpJ6keBRelLFW4bJ31ViRPCVDNXKchv3l9XXXU33zfo9Nsbj/3paCspLJBaOyQobD5Lj7zpItjp2K5lbXCbVKr6pG/PAZlQQpTIJqVHhUp2qEhkmsuyIZWVG8UyZV1gh8UhS+vTok60T1lBfL8yVbqWii5G0CtBYtex7xu5S2W2e1MaqVLAWSHG8SKIqsKKhAinRto6rWnfGQS3+qqsOlXBxWsozsyXZXeu3rt5ZFGmqvPufsumFbNEuxLSRZhbhUaf/nvvU73wLc4OSl4e7CKV1vR4k2tlbyN2dSqhGCkpnypBVe0mqcraeSCqoEOTs44PirPgqWvUap9o2JsmI3vCEayRVE5Vv3psn00Z1kcpZBVIQ5g1RWr7oPIl2nSxHnraR9FhbT9Kkpt0jIbscsJaex5WSjJVJWts3WlKgx46XUqQkFZstux+wkXTupUJKb3q0tTTjjPTorSd6SO+MIiqceYKQLtQ6aEE6VcmWu60o2+49RGbFv5Nk0QxNe56mXSHVsbFS3G+aHHPmZvKXK3eSTfbVY95V0ynGeslxIGnaKVu/huB1pscff3zum+6p+zBan0/alflCeUSORRHxxbr89kegIIAQdMyBinAiIOJ49H7FFVc4FxjEShAvHnBZ8PmRlrfm5udDmogSBBTLu+66qxMj55xzjksDgUKeTNfEHLMIKNwa6oO8fF349CKIZdJhfX7+HuKQPyD+d9xxx/ni80l5eJxN2Y466ig3IwB5IGgpIwKQfFoS3DVoGwSrt343xfDhzPMrzgXAv7ABvKAlDd6oho+vbyeEKMfJ15c2po5YSPEnxcpJOQgIen/e8N27U9AOfEf0Ajc+CH0P7gXEY6ozZlGgPghO6oYYbkyU83ILZkQIHj/KQD2CNKd9DMNYMDrsCwjoLlIqXCMqjsp/rpSPHv1U4ir01tltDTnmsiOk22qd9aKtF4BoWvVIUnjlJ/6d3381SnVHRgo7FUuNVEmX5Utk37N2k15DusrHH36s2glvQMaK6wVOxWM6kpHqSKWsvf3qsvcpO0uIuVl5OsfzWkpBQXwIkv+d6FxjtK/snOkiE36ZILXVtbouo9qYgQtR6bVMD1luWH9ZYcNBsv6ea8mOJ24vmx25qebJBTKXDSPHPb7T1I+Epv/l019I9axqCfWIyNFXHikyQGSVjZaXPj0HyC8TxsvcqnnCrFRxvehVh+KS6JaWLQ7YUkqWi8rwjYdrR64XxGhGNt95U9n6gM2zvrUYTPV6jCU7Wyf+y33RlaHCsHTqUyxrbbCWjB41RmpmqhCPzJXOg7rIEWcfKcUrFKrowr6t0bX+Rd3DMnyNtaSgW1TW2GSY7Hr0zhLtrW2uwjWsmXEzkX396iKAgJz7g1RPeE+KeyCMtSHSRfLLV7UycXSZlqNQ9WWtDFipVFZYR1Wz3iww56okwlI1LyHvjZypwrs0d4hVdEeqZfm19BzYZjkV3QjZTjLzl2oZ9WWVivciLW9Gyz9XRuzdS9tXL/Z6sEtifWXc6CqZNVtvqMKI1Zieq7qrnk+1mo9E58jqG4ocetIq0nNIUvOfgmlKM6yR3gN66GJnGTVqln52k5pUhSQis6RLzxI58OQ+ssK6feTt176S6rKekk5USEFRWIasHZEVh/N6WU0iRXra2DR4Bt/cCll+WIFstuVQ6TNIZKXhJbLyumHZ+eBS2WHfAdJtgIo8vWmRglnaBpzcKg5T+r1yhsR6rqQ3dbzyFdMs2/4IF28e4fNmKJYRFAcddFDd42AeafMomDhMf4QlDvGCxZAppxAYiElAhGAp86KCT9JkO0IP/0QvqHwgDmn6qZjIk9H/QRcDIC77YjlDbO+///51A4AozzrrrOMeO/vH9R7iYrVj/yAIR1wKyAPfTQaL+TIhvBhhD6SNLybxPaTPFGBYl5kTFpHKfggrrHy+TAg83wa4QPg3Q5En5eKVpnwH/7koIFyZQ5W8yZdBUsG2qA9mXECwYjWmbQGrNwLUv+wA0e1feAC0BYIdNwNEOMeV8wf/Yo4/x4A4HJNjjz3WDcajPAQs0N63GrHMuYXwP/jgg51wRTAjMGlzhDB1QbiSPm2GhZ12ZVsQykEb8nQAS7tvdz7xheVcbYk2NgyjcULaUWR7ig4IUzOltLOJzI7IbefcIV0i3eXIqw4V6aHbIgxXygoshEQmpd/0Gv6fcx6XyZ9Pl9qaWllu1f5y7N8PcAKvurZGRr34szz/71ckXpG16tBh99G7+BG7biSr7DVYMoUqCpkqSMVwSi/uYacSsjk0C72GJqsSEi3SCwHXadQcRcTw4rVa1jXPWSHZjl+rSz93FJ2FTXEvIwgIPPcSJNUaD936qKyz/voydGstrxa1ulIlh2aXnCZyz013ycyPJkuiTFPpFJPBmw6RQy7aX6IM2iZfAlXvoiHbdFmcgMv71NOKUysU14iUNbd+6rNlMjP9g6y+0boi7h3+SUkgRvVYcRzcKHWvJfzA6y7Z9oy4QUmKz3dB0fxds9C4Y5+Wmo8vlaLltBy9t9B6dZV376+QVx4bIyEVpYWdk7Lj/ivJuvtoYaJ6YvCIPR6Riulpufq0n6SgtpcTrqlIrSRiZXLixYNkwGqaeImWsbqHfP7ib/L8PTMlpukyN2xtdLyc98BQierF1s19mtQazyuQh+/8USZ+npGCeGdJqXido0K4c79JstfBK8sqG/fXeCpYS7BId9WLIo1P48SclbZsZpG8/9YPEq8OS88+JbL5NstKuKSblrVEHv3nR/LFGxnpo8uzq2fJYWctL0NHRCUVr5BIMdZGrU9utgJ3nuiNCoPI0kleLoFQr5QIbzhjG/7d+PLy2lutj0R0e8U3MvfnT6Xb8L1FVjtE0+GxdO74LADB7ufpp592r3FFSCBE/WNg4ngLpcedWyoS+ETEIYh4Vz7+hfnige+4APCiAdLkO/vgU4sYCQovtiGAKQOw7AWKX/aT32O1RWwzqIqpsxqDfEiTevDJtF2kA4hRfHsZuOTrFcQLJgL7M9MAj76x8FFfD6KadIjHPrzo4IADtP/KkZ/uwsBxwX8Y8YfI+/Of/+zasimwbNLO/hjyySA8Hrf7R+wIVb/Ntz/ClWOGmCQN2p92p+0QxDzqR/h6OEbUk3i+zX27Aet9G/vj7PfxZSROQ1AWXo5BuYAyH3LIIfMdB8MwWpcOLVwRca6rZtSzag8nvPQmGl/WjK76XbjSWWpQXRBWsTR3sl7YdUW3fiXurU3pAr1oIqpqtDPV7TVVKEkeaYUlhojjuqfXdXxdIxkVqypUUvqnMXQD6IUvt+Q/6wO/SshaTcmTsmU7UQ5S3b45YedihJm6SrdQofmY/3u2vgrtQJIEDGT+6Cc1aP2rJpZL+dwKiRYXSs8hejHWa0mCfBIhiVIdTSQ7iJyH5vPnMR+0Z0ZLqAItE9MvGjWc1D04BnqdcRcSFUXhiLaVfqo00ShpTZNUAxcO6qpfGTyEf6+jkWwbwrWf/kfZ9dInMulzqXjrRCkdOFySvbfUe43OMv6LefLQTd9JZVWRFPVJyGEnriODVtdGcflp5fWwp+dE5ZLjv5XCRB8qpKJ1tvRfOSTHX7KG3kTojYsbfNVZPnjqe3nlARV/NRqvQC+K3VS43jZICku6aLWZbkcbIl0syVn95LlHvpaJ48qlS7diWXX9HrLGWv2kuDclVqGYqRVOKeJi3aUonBecK2EODq+hZb5W3SYqoLF8puNpqVBR/PKzX+i5PFvWWHs1WX/zPhLpVqk3aLVaRgSwnrRuYJmmSMNQObeOtufYcNQ54Jqbv2FAuKa76e9H1835RGaP/kB6jPizyPK76kashb8LwPqgqyF4YeC7Hi+omL+VtyJ56yrnCKICKygCA2HBgBkssATW4QvJKHM/j2l93Rnpsx7hyohzL0AZfIXVNbiPL0tjUC7KgtsCVjmEE+vyBU9+/Tysx2qHuwT7kQaP/P3rRxcWRukz+wJiCtGGhROrscenvSh5AKKVGRd49M6NBcK7OVBv8ubTB46FfzzPd/DrfJzGhCTU1/b5kE6w3j5t2onzC0iHOE21D1OrMZMAMLsBr6WFRW1XwzCaR4d1FYCsJNXAB9dUghNfbPF/Hu00w9qZFWWksHdUivpqZJ5+ogl8TPpnXRfrFpZoV5WliFau6azXftM98HYJEjsrwHJ71hFcnp9Ax6ofWamMnGPIVfazbm/iUVyXtmbsVvNfMMxPXZ9K/TEVepcCH531WuVYr0IpHdBZSvqqKMrpEFcH3Y5uJGQvEVpe95n9Px8Xl88oIii3jnxVxKY1Aba79TmrsLtg6F/2G+R2yqXjFrL/stQtLAAuLQQyZS+W2T89LtGCiBR0WkYSoSLp2rdQ1l5rmHRfrlBG7LaqLDskLuEo85vqhY1CqMAL6QnwyWszVOgXSoI5VcPTZacDlpe+K6S0XrgxYOFJSKoqKZ+/P0lPjU4yL6kX+TVENt1aRR9WeJcO7aL1LQrJKuutKBtus4astfVAWXalaomVcgelQhRBicVID46bj1X/qMTvVSeOiryICvFw9u1UrOPtZ0V6w7Xi0M6y3ojBWg8VfkV6x8JTBo6zs7TqSUv8uhMj1/Lk6VZpns7Pmy/EV3AfCTH/71ypmfq5iuCUFK56sN7cDNR6UU6fVsP4c9wd78Cyh4njGSGOIELI8ZiXZT8oiEfCPCLmkTX7YXHjkW9DwiWYB+4Bfg5S/C5xA/CCie3BcjQG8UjDi7aG9vff61uPyPST8WOtZfolbx1cWHCjwBKJRZJy8eid9vM0VJ4FBaGOXymfTQnGIMF8/TL755cn+L056TenPvXlwXELps+65qSFGwKuCwTv+gDN2dcwjEWnQ1tcFwSaIdgUjXVCrdNBYVr0IGvyOtpccFBMX9TmFsXHc/vqf74OTewfzAqInt2l4QL4fRDev3/LQmw3wIk5ybQM/GWFnFvS4OPOny6tk92+cGRvAlTU6TJTVGF0rP7kdKn45W3pPWxTSUf1At+Jx/8q8FIFrnyh6GzdMaXfeQyeLafEu8gPrxTIw/e+qBe9mJT2rpXTLllPCnqmJMnNQDilEi4l4apSGf9pF3nh8fekc98COeRP20qo07eabg9NpkDvG1R08qYrlGRhiaQrqiRcUqS6E2uo5kP7uBFr9VPfzzZ4XvIiDV4ZHAlHJFKI8NZ6kB51cPs20ZLuzkMv6szk4Cyzuk+kQlKJbhIJfSuzf3xFr+BDpMeWd0qmuIdr16YkRmO/L//7w/eRgU+IQgQq6xjpzeArrJxY41iHyMPCim8iLwoIpp2Pt6QRh/1ZZn8vWvy+C/u7bmx/tgXXe+sg/qi4ReDCwOtXsST7bQsL7cOMCMx6AFiUEf8+TV+Oha1nS9HYscqnNctaXzmam18yqX2J7h+08i/pdjWMpQUTrjkaagbfGbG99TsmykAgn0byWpgjFkzO779I1WleIlnp5euVJeMeRweosyby6ZdhkQo4H9it0/pHKUKSncYqXPGuzHztHOkVnSHSbzuRgnVEilSoObGmAYtmJqahWMuM+Vn3cgKwk8wZO0aqK6ukd99+EuvWWTKRbpKMMjVahYTCVRLLqBCtxd+UEc2Yq7uq/puXFcFpXvepLaNC0D3iV7GbbSksm+RDfP34vcny0A2N/Wx1m7tpoF0RqkhKfHRdu/s2ZX0jaQCbKSfTciF6I8zdqxfscU/L1NpqWWbLU0V6H6AaN+ubuKhHq7HfIINh8AvFmuhdCWDnnXeWvffeu8F9AUEI/vfLZ/C3vHh+2/PjxXRLlwNXCAY9IYT9PKQ+zfzPJY0/ZkuqPIuavz+GnrbSrobR0THhmqOhZvCdEdtbv2PyZWgin4U5YsEkm5lN4zQvkaxkIO7vhV4ywpWyIOdqVcJWSUIKpZT0x9wjMz/5p3SPhSTSe3uRPnqxj3SWiHuczl74Q2P/1jJjeeQFDwzuCqnArI3rp8bjVa4Fs7ReRRobV4CkREPlzjorfDohjA+oF45YMPUTUUgepOWsmyxnS6qJ6WcjNLbdbdM0EMUuD4QnA6y0bCy7+XDZ3kQeLo7Gdb4dKv0Tk1S7fiLV40dJdM0DJLaOClcm2UXYhqkT+DouOI11RVi4GKHP1FdYZQFrF+/Z9z6GDeGFq4ff8ZIUGfWJ1pYAkYol2ePb03/6/JZk3TsS+eertathLB5MuBpLDdkTHRGDywBWV/0ByEyJj31Y5n7xgHSJ10i067IS7T5IpKSHSFGh6jyNhfjjZ+ISQAQmVCXoF+YOU7Hg1kUqNR6iVQUcrxzDRzWFUOTRP3ki7BAViMGcuENQuYsd6/kkAw0ISvIjHqvTmkf+RZGoDuLpNtwUUpoXy24b//lIrNP8EcikSTyK0Cjso/EIFfNEymdLomKaxCtrpHiZLSS86UnaPoM1XoXGod4RzU33qQt/pP61zcOLPSaH//zzz51oYKonJrRneVEesS9uKG9ripzWEsaGYRhtAROubQbETcMX/SUJJfO0zRI2TfAkZ7lO5qRr9cssSf36usz76TWRWVN0HRbZGieG8HXlj9kImFLM1V8T8G3gPgOJY5DNzrqgyRIvmLHi9wMfrz7DZ/PjsTK7Ie2sq9m6ZeOqeHGj4IChfNmYPj2oJ0lFI+gGN22XW85ILBqV4k7dpWSV/UWG7KHav4cb45WWuart8QFePNBdIcx8t8Ux8gJtUYVac7vCBcmnpdO09OpnSaUHzUmzpdMDOyb109bTg6Wxzi2JE65M6NwcmlsZY2GgbZfMSdAUddonR30CqvXwmS9aptTBlzu4XJyolYJYTGaomisIVUjfxCSJlX0hBalJUlVV7R5Rt82j4qEi2cqEUMp85upGuUPeLcMdxJzMzVXIf/4B7YzCGmKZqMQjJRIv7CFS2kdCpf2kKrmmhEu7y7yqciksCkm8plzVIz6uTVs8mXegOQQfdzdG0MpKB9qQ1ZV+q7l9V3PitfQFqqXTgyV1gWrr6cGSOCZtPT1YUsekracHS+KYtHR6sKTakLfZtSROuPLO/ebQ3MoYRrtAFR6DrQoKYlKbTPN+AUlF9RzXf7G0yiyelOvfgnQgix9+k/53mbW41itcs9/mi92QcM2QgIpg5pqN8sl8vJp2UuMnUqUSSaclqumGGLTG/K2ReZoy8xY30U4M8PKZN0Jj/UxrHgvSbk76lK85fWFbTw+a62KR7yfcEG09vbZ+TFo6PbBjXD9L6pi09fSgpY/JoEGDckstg7kKGEs1/Oz4ifKZ1KBaVaIqwgoFn83sj1K7BffZNvEdBz/j+n7KvgOiDgtSj2BcbRl8XZ0iZtYDQhY8fMmhLbeQYRiG0XFwwtW0q7G0kuFulU/9Cbix9iHeSJV2Q7fc74KfRjPuZpccgd9uYN7XuhLXmVUDdcgtNvard6961YjZO3li+sB33ZbLKuGm8sIqy/pAHvWQ82RoETg2lM33XQ31YUFLRHOsEs21XDSXJZEeNDfNpS09WBLHpKXTg45yTNp6etCcNNt6erCk2rC5FtzmskDCtbmVMQxjCdOcn/Si/pw1D/QqM+Rmk2o8web6uDa3P2ou1m8ZhmF0HFpWBhuG0TZAqzUVFhVNI5tUSyVoGIZhGI1jFlfDMBYJeo9mGXitnzEMwzAWEROuhmEsEh1FuDa3H4TmlrGl+1ZLr37aenpgbVg/HSU9aE6aLZ0etPU2bGmccM0tG4ZhLDAL0oEsmW7OMAzD6CiYcDUMwzAMwzDaBTY4yzAMwzAMw2gXmHA1DMMwDMMw2gUmXA3DMAzDMIx2gQlXwzAMwzAMo11gwtUwDMMwDMNoF5hwNQzDMAzDMNoFJlwNwzAMwzCMdoEJV8MwDMMwDKNdYMLVMAzDMAzDaBeYcDUMwzAMwzDaBSZcDcMwDMMwjHaBCVfDMAzDMAyjXWDC1TAMwzAMw2gXmHA1DMMwDMMw2gUmXA3DMAzDMIx2gQlXwzAMwzAMo11gwtUwDMMwDMNoF5hwNQzDMAzDMNoFJlwNwzAMwzCMdoEJV8MwDMMwDKNdYMLVMAzDMAzDaBeYcDUMwzAMwzDaBSZcDcMwDMMwjHaBCVfDMAzDMAyjXWDC1TAMwzAMw2gXmHA1DMMwDMMw2gUmXA3DMAzDMIx2gQlXwzAMwzAMo11gwtUwDMMwDMNoF5hwNQzDMAzDMNoFJlwNwzAMwzCMdoEJV8MwDMMwDKNdYMLVMAzDMAzDaBeYcDUMwzAMwzDaBSZcDcMwDMMwjHaBCVfDMAzDMAyjXWDC1TAMwzAMw2gXmHA1DMMwDMMw2gUmXA3DMAzDMIx2gQlXwzAMwzAMo10QyiipVCr3tX5CoVC9n4ZhGIZhGIaxuHDCddKkSbmv9aNR/hAMwzAMwzAMozEGDx6cW2oZnHAdM2ZM7mv9YGHND4ZhGIZhGIbRGMsvv3xuqWVwwlXJfa0ftnuxaqLVMAzDMAzDWBI44ZpbNgzDMAzDMIw2i80qYBiGYRiGYbQLTLgahmEYhmEY7QITroZhGIZhGEa7wISrYRiGYRiG0S6wwVnGUo/9BIwFwZ8vNtOKYRjG4seEq7HUMHfuXKmurs59+x37CRgLAucLAcHav39/E66GYRiLEROuRofGCww48cQT5emnn3bLHjv9jQUlHA5LOp2Wvn37ytdff+3Or4bOIxO1hmEYLYsJV6NDw+k9ceJEeeedd+S2226Tjz76KLfFMBYeBGlJSYncfvvtsuqqq8raa6+d2zK/WDXhahiG0bLY4CyjQ4NwGDVqlBx//PF1opV1wWAYCwo3RFVVVXLEEUfIE088IclkMrfFMAzDaE3M4mp0eEaOHCm77LKLe7zbpUsXufHGG6V37951j3ftJ2AsCJxHZ511lowbN859P/fcc+WKK65wLgT52I2RYRhGy2LC1ejweOHKqY5f4hdffCHLLLNMbqsJV2PBSCQSMmLECPnkk0/c9/PPP18uv/xyt5yPCVfDMIyWxVwFjKUGBCpCAuERxLsMtLcAn332mXOB4FF1fXEstHwoKChwVlfOJx8MwzCMxYMJV8Nop/zwww9yyy23yH/+8x+ZN29ebm37pr2IQMoZiUTqlk28GoZhLB5MuBrGYiBf2Cyq0EmlUvLTTz+5dLC2MkdtRxFQLVmH1mwPrK+GYRjG4sWEq9Eh8SKOkP+od0kIDvLEKnrDDTfIpZdeKq+++uoiiSoGAjFbgn9sje9uffDChUUZ8c5UYi+99JKUl5fn1rQutFNLiU3/OL+ysnK+NljU9NmfQPrgP4Pnlw+GYRhGy2LC1TAWE4jA7777TsaPHy9vv/22m05pYUEET5o0SaLRqPTo0UM6d+5cJ6gAsfb444/LqaeeKo888ohbt6D88ssvcu2118pTTz3lxKsXaK0BbfHuu+/K1KlT/zA6v7lCE9/lOXPm1AlV0iFd6nDOOee45eamZRiGYbRNTLgaxmKAR/sVFRXOQgqzZs1yFtOFBQGMMCNdP7UX37HyxeNxN5MCVl38MH/99Ve3D3EWRHy+//77Ultb6/L47bffXPr5wu/HH3+Uhx56yNVnUfj222/l/vvvlwceeGA+f13ybq7YHDt2rLNoE3CdgClTprgbBizG9vIJwzCM9o8JV8NYDCAol1tuObeMAERcvv766+77goKQ++abb9wnFtfg+/L5REwiWr2w3WOPPWTatGluG6EpIch2RPZ7770nsVjMid3BgwfntmYh3RkzZsi9994rb775prPKLgxeSCPEKdvs2bOlU6dObj1WUz8AqjkgULFCY9G+9dZbnfX1559/zm0V+fLLL3NLhmEYRnvFhKthtDKIMERknz59XECgIfxGjx5dZw1dENh3woQJ7tF4TU2NrLbaam4933lM/uyzzzpLKf6tyy67rNxxxx1ugnxEnBevDeEtnM8884wrNwKblzZsttlmuRi/w4scyI9AfgvjS8t+wEAzykV9HnzwQbnpppvc4/2bb77ZbW8Oq6yyiisr7TBmzBi57LLLXFtQH+ri/XQbq79hGIbRtjHhahiLCayXBx98sBQWFjpLKaKQx/FYLBGx3vrYFFgnsSYSv7S0VFZeeWW3Huvkhx9+6CyOLCPYBgwYUCcum/OoHFGHwOMlDb6MgwYNkl69euViZGHyfSyubKc+vKsfcb4gzJw505XpzjvvdJbWoKX3+++/dy4DX3/9tbMeN4RvM0Q5bYlopTwlJSWuzv47aQ8fPtzFNQzDMNovJlwNo5XxrgH4cTIoC0EIiEvcBe655x656qqrmm195bG8F2wbbrhh3cAsrJUMyMLyiQBF0K677rrOr5a8mvtI//PPP3dC0vu3rrXWWm49y6SLIOT9/KRJXvjYks+CCFce61955ZXy8MMP171AAagHAcirqKjIifOGoCxXX321G4BF/eqz+lJuyrrBBhuYtdUwDKOdY8LVMFoRrJcMXrr44oud3yWikNHtXgQiQL0FlhcKNAb7IPgQlZ6NNtrIpUFaiGLEJkKV9LyQxWWAOAhCZgdoDKyczz33nFv2bgKIY/BC9b777nPWVvKi7GussYb79JCPF9b1QRp33XWXE52IXSzRlJdA2bESb7zxxrLvvvvKaaedVpc/eFHrQawyKIuyYV2lHXzwIpiyIO4ZsDV58uTcnoZhGEZ7xISrYbQS06dPd5ZArKo8FkdA+YBYAwQWg5GGDBki2223nVvXEOzHoCwEn4fvrAdEGekiBhG5DMhCYGK1RMCRz5/+9CcnSEkDAVxWVlZXJuLwuB3BC4hRrJSIZazFBB7jkyfbEJnFxcWy5557OjGKgCQuy0HhSAiCyFxvvfXcoDJ8cD2Ua8cdd3Qi/5hjjpEddthBhg0b5tIizfx0YPXVV5cVV1zRfZ5++umy8847u/jUz+fNd9rhuuuuk//7v/9z/r6La15awzAMo2UJacfe+BBjw2iHBE/rV155RXbZZRcnzpZZZhn3aNqP8G9NHnvsMXnttdecEETkUSYsmIhB/FCZJxVBhng777zznAhsDITdBRdc4AQnYgwQqAi2Nddc09WTR+9YLhGHgPD79NNPncURv08e6yPqsMJSHgaLMdcr5eL7+eef70Qe6ZMf+/HJNi9wKTP1IWAVHTp0qLPCMgcreZNGvk+sLy94kUw6X331lXOVoB5w4oknurbxsyYgRLG+suwJpgWUD/C7ff755+v8ZYG4CHnyxEJMG7Ptz3/+sxvMtTCw//rrr+9mKSBdBpHh9rAgrhKGYRjGwmE9rWG0Evh9MhofiyTiEj9W5hjdfffd3SN5RI+3jiKovEAMirQgDMpCVHpRCuz/wQcfuH122mknJ6KOPPJIOe644+Svf/2rE65du3Z12xGsiELSYBCU/+6tjy+++GLdfKykiwglDiB0+e7X84kFl/2xYvKJEMWvlvwA0ehDEPalDqTzxhtvuEf83gLNDAjMQYv1mDlY//Of/zhxWx/s984778jtt9/u6s3UXNSN9qRtCeSNYPXLXnTz0oaFxdeJeoD/9McuGAzDMIyWxYSrYbQCiJYVVlhBDjvsMPfIG99WRBlWWCyjuBF4tthiC/eJoGoMRtojkkjbf/LInhH1iECE3Kqrrup8TnkLFY/GH330UbctXzwCafCqWAY/IVApG2kSF6FHebbaaivZZpttnBj1abAf4hA3A6ycfv1KK60kxx57rNuvvvyCICCx0I4bN66uLvmwDtGJuKU8+SBsmToLQU/5vaD28J39qR9+s7gnIO4vvPBC6dmzZy6WYRiG0Z4w4WoYrYAXbogvJsXHd5RPrJqM7A9aTTfddNPcUuPgE8p+BOZuxUpJ+rgiINzIk8FXZ599tnsrF/EQcog+hCLxEZwIOkTmbrvtJieffLITpby0gPjEJQ4imMB8sVhb2d/vS558Jy5xyIO8qV9TgtVDOuRJWqSDwGSZsiAw+WQ98bBOe8tvENwRcHEgHoFy+LIQWMcj/VNOOUW23HJLWX755d1gNsR6sP0NwzCM9oMJV8NoJRBigFDCBxXrqBdXfhsgZnnEjatAY8IPgXvEEUfIX/7yF2elRewhWgnM6wr+VbCkT3oINMQf6SJc8e285ZZbnBsB1kfKRlzi+TIRn7IiSpmi67PPPnMiEBDPDKAiLf/YnfjAbAn47TYF+RAXF4BgO5AmaePnii8y9SBffFb9gLEguFcwkAsL6t/+9jfXJpTJw/5YqbE844PLDAtMnYU7RHMFtmEYhtG2MOFqGK0MvqBY/fbee2/3PV804dOJ8HrhhRdya+oHMYnPLIOhsDQiNgnMGoCfKiIQ1wQGf/GI/6CDDnLWV6yVWEsBqyMg6tjXl4U08cnFEos47tatm9uO+A2KRgQy026xDZHI4C0/4InvzDzQFOSJ64R/W5Zfh98tj/+Bx/sIZ/DTeUFQ6LIPbTJw4ECX71tvvTVfesSl7HxSX9bRFk8//bSLYxiGYbQ/TLgaRiuBUCJ4iye+qIgov96LMUQgFkgELK9RxfcT/HYP+3gQq/5xPQHrK+lgQT3qqKPkwAMPlK233trNIsB6hBuP31kmBAUgID5xG2B2A94wRXwgrncRYHQ/Lgrkx/5swzLqR/WzrimLK2XGgopLg08X8QlYXLGQ3n333c73lfqSJvkxy0Cw/h7KwFvH8BsOWlvZj3S5aSAO9SEd8qOM+fU3DMMw2gcmXA2jlUEwMf8pARBRCCimosofkMUrTplaiVH6jYFFkjS8PyqizVsV6wPxRjziE8eLwvrw6308Bntdfvnlsv/++7upu6gP6SGE8SH1Vk3iMhsAefDdBw/LlJHpufBbRVj6/diHdJl7Fsspn8H64A8LrPMQn/yuueYaJ4bzQbTTlocccogrL9OBATcJ3pprGIZhtC9MuBpGK4IwwyKIfyVCE4GJSBsxYoTzzzz00EPd1Eys8wFh9Y9//COXQv1gSUT4IewQc7zgwMO6YPDrEGtB4ZcfjwCUIQjuBbgmkCd+pEznxby4l156qUvTC1T2x2UhaPkMwnYEJpZl3AKIRx26d+/uykUaWF2ZY5dZACgH6wArKUI1CPvw6lk+EaZ+OjEPL0M488wz3dy27OvFKq4HBMMwDKP9YcLVMFoJhBeCicfYXijxSB4LJo/yedzP43fmd91kk02cOES4IfD8+/mDQiwI6ZKOtyIi/uoDQUd6xEfgIZ6bgrj+8b+HNAiIVwZ18WIA8mSdh7JSZ9wWGgIBz6tXqSf5HHzwwW4/bz1GsOJrS5zgtFpYdYmfj5/XljRoC2/BZj/W+U/w4pj43BwYhmEY7Q8TrobRSnhLYHCy+0GDBjkfVC+mEGtYAhkQxWtOmfuVOAysYn/Emo8bBOGHtfaAAw6QE044QdZZZ53clvnxQhXrphexTUGeCDviEihHcL/gd9L0UE4vXP2+wf0Qw97qS1zmnGXqK9azHwO9mFLrmWeeqRO/Pg3i5wtXvrO/9/dlei8GlQHfmS6LFzD4V976NPg0i6thGEb7xISr0SEJCqdgyBdhiwOmeGIqq+22207OPfdcZ1kFRBTl8VNKMfCJV7pedNFF7t37wPaGwCrLo3sslAjZ+kCksQ3xhkDMF3/1gXXTuwAQ309NBaxDFPIJXgz7QF751loP9cRPFpGNb+x+++3n4pMX+yJeyS8oNOsjuA2xytRe+LLifsF60iIdyuaFrI/PJ9saswobhmEYbRcTrobRSiCggEfqWFQRakG82GuM5sRpDHxIef0rYg3rY0MCNwiDxphiChiMxRy0CFfSQPix7IVs0OIKxGnMmsmsB0wNRpmwLDOnKkKZOiJceaMVFmnEKGX19feC0wtQ8Nvwie3Xr58TzH47NwIM3OKVsH49gfj56RiGYRjtBxOuhtHKIPLyH30vLsgb4clgL8Qi3xsSbaxH1CFGeckBg8ewEHsLaFDw+U/8SoN1whrbkDWTbYhT9iU+y36OWfbhc5VVVnH+vghn4vu02YfAuvpgGy4ZzHOLWKcO1BUB663Hvu6kh1uCYRiG0f4w4WoYrQxCicfkiCb/3YfFAfkgML1oayhfvw2BhxsClkw/+AtYH4wD3u0BvFhsSFyynX2D7cCjfD7JBzE5ZMgQZyFFcPo8AGHLwDbvsxuE9HzAdeDWW291Qv344493LhdYYxHDzIRA+qeddpqzJBuGYRjtDxOuxlIDFkOCsXB40QqIRAQmj/Y9C9O+CFHmWUVI8ravtddeO7dlfryg9fnXB2XCugrMfrDhhhvKn/70JzcH7dFHHy277rqrnHPOOc6XuLF0mgOimvwMwzCMxUtIO1/rfY0ODdNRYW3DEoiP5UcffeTeuR8UL4sqZJpiSf3MyDe/nk3VtTllJQ0vVN944w159dVX3TKzIuDP6y21pOXTy883/zv7+/Ly+f7777tjh0g8/PDD615XW1/52Zf13uIbtO4SsHgjfImH7yxuCfWl01w233xz+eyzz9wy7hS8sre+9BYlD8MwDOOPmHA1OjxB4Qo8nsbSFxQVrS0wltTPjHzz69lUXZtTVtJABGLhpC2ZPovvCFYCbe2tkj69+vJln/rwMw14QYrfKmLTp5m/n8+D7T6ez49tfrYDlilvQ/k2hk+PtBlURlrU089qgFjOp746G4ZhGAuPCVejw+OFK4IGUbXHHns4IYQA8bS2wFhSPzPyDdaN5cbq2txykgbijxAUk4g3gs+XT59mfr5+O7AvyxwjPv2MAsB3LzS9IM1Py6fDdi9cgfUEb3EFhCtx8tNoLpTlqaeeci9JIO3zzz/fuSPUx8LmYRiGYdSPCVejwxO0uDLVE494GbCzuITrkvyJeWHpqU/0BWluWUmDuD6+t7AiWvkk3/w4+fn69T5ufmgpyKcl0wPmofWuAvjN4ioQbGdPS+drGIaxtPPHntYwOhhePHlLG8uIDC+QWG7t4PNa3CGYd3PK4uM0FYgbbMfgNshf31Da+XEAIctx4pM8PHzPX+dhnV/vj7FPh+DX++X60mguPm3vGhAsu2EYhtG6mHA1OjRBgYLYAC+Wgp+tic9nSYXWrCeWVtqVR/vkQXvni0Kffz6sD5Yt+D24DkgzGCef4HoEJcukwTI3LH69F5v1pdFcKAvpeBEMPv/8YBiGYbQsJlyNDo8XU15wGC0DbekFKwJ2aSFfkJpANQzDWHyYcDU6NIgKLIJY3bwVLBg6Oq1Zz6+//lpuu+02+fjjj933oAUyCOs5Btw45EPZWO/LGSxra5V7UfHlBW/NNQzDMBYPbnDWr7/+mvvaOG31QmIYQbAAejhnX3/9dTcPKPBa0DfffLNu4nxECKGj4usW/O0G2wewmn7//ffywQcfyBZbbCGDBw92+zUkRAHBxoAkpsFisv+TTjpJunbtWrcP69hGXrzW9bfffpM5c+a4WR14hSzz6BKHcpF/QxZbX+7gMVrS/RD577DDDvLtt9+678cee6xccsklS7xchmEYbRH6+5bECddx48blvtYPFw1/4QguG0ZbBAHhLazw7rvvypFHHunOW8QVwpW5XMH7aHYEEIDUMSgCg79Vvz1fuDJn6j333CNTpkxxL2gIvkCgMTE2efJkef75511bMmsDr4n1efPJXKevvfaaTJw40a0jLW99pQxMUUV+G220kQwdOtQdM8rH6119uX3+fCfwvbEyLQ5oR6ZUQ7hSFt7KddFFF813HnkLsw+GYRhLKyuvvHJuqWVwwrWmpib3tXGwlBhGewAx5gUD4mqfffZxy1hcP/zwQ/cWJkQHAsp/tneoM8IQAejrBf6T3znLtItfByxfeumlMm3aNDfXKa9G3XvvvRsV9AhTL27ri0f+jz/+uLz88st1A5nYh2W2sQ/fKTNz6iL8eO0rZWF7sPxtDYT1Zptt5qbDooxnn322XHbZZbmtWXw9/KdhGIbRMrgelQtHc4JhtBewimHRIxQXF9eJCIQTN2CsJ44XUh0B6kPdqNOECROcaPzPf/4jjz32mEydOrXud+zr7wP7IeRpB7bhs4qgDMbJD4hWBHBD4hZROmLECFljjTXc5zrrrCPdu3d3eSFivXjm2PD50EMPufwR3ZSfdW0V6uDLRz0oL+uC7cP3jnRuGYZhtBWcxZXOtzm05YuJYTTEyJEj3aNszvNevXrJ559/Lsstt1xua8eAuvFIHreITz75xPmX+vWEzp07y2mnnSYrrrii++7xv+kXXnhBnn76afed7bvttptro1VXXXW+m1a2EaeiosJZrvnOZPyIUgQpQo03Sk2fPt2VgbhYUnv37u22z5w50/m6Yt3F9xhBjfjF3eDiiy92fq9tXexR5w033FA+/fRT9503Z11xxRXWPxqGYSwGzBxgGB0ARNPtt98ub731lhsM5R/DIxbZNm/ePGfV9HF98OD7ixhFRCIcEbK33nqr3HDDDbkYWbzoffbZZ+XBBx+UZ555Rp577jm3jkfo9913n5x77rlyyy23yN133y133HGHE3YIauDGYciQIW4QGA77XgiTr7fEGoZhGEZDmHA1jA4CPqzeWskjeGZO4LE18ImVE2unB6H51VdfObGJEMVNAOGI6PUuAPkzjvj0x44d69Ksrq521lL2eeSRR5ybAQKU9QTWI0zxM+Y76ZOGT5/vBHxrKY9hGIZhNIa7CgUtMI0FwzDaLqeeeqoTgfxWsWpeffXVstpqq9X9dhGHP/74o5SXl8sbb7zhLKFYVbGGzp49u863lEA6WGFPPPFEt28Qtnk3ABg2bJjb95tvvnHbEM24FyBofVqkjwtD0H816IKA2EXkGoZhGEZjmMXVMDoIZWVlzj0AaybiFMsmvqfgrZkvvviim3/1/vvvd76ojXHOOefI8OHDnaj0IEK9RZW8vDDFkuvzxKcVf9WddtrJbfcBayyf3h0Biy37EryrAMLWMAzDMBrChKthdBAQjghAhCA+rV9++aUTiN4FgG3M1co2vgPbsYwyaMuLUB+YOgxY72E9vrAIVw/bSRcQnz///LMTx8yXS3zyJTCvK/uSJzCDgMfHMQzDMIzGMOFqGB0EXAEQg0zFhIi966675O2333a+r6xDRHqwpDJzAHOQYh3Fuoqg5HG9F64M8soXk8QZM2aM245gJeAawJux2ObzQNgyJRdWVdYTSIvt/jPommAYhmEYzcGEq2F0MLyoDIpILxaBlw2cccYZTrwyPRWvemWwFZbXoJj0g70IQbDk+vTYFpyRANh3++23l/XWW28+NwOPL0d+un69YRiGYTSECVfD6CB4P1Z8TxGFTD2Fm4AfJOXxgvHhhx+We++9133yyldEa9DHtKE36o0fP96JTIQqLyLo0qVLncj16xmIhRiuT7gG8SKZ0FRcwzAMwzDhahgdEEbsn3XWWXLQQQc5URm0ZiJsCbyUwItc4iBCEZ2NCUmstwhk9sEtwfvBsi+uCh4Ga/GddDwse4tufZjF1TAMw2gKE66G0UFAEHprKqIR8fj++++79UGxiB8rPq9MdXXUUUe5t0DttddeTuwGLa71TU+FaGW9zwc3ARg6dKgTwohd0mEO2X79+rk3YSGGCfi7kq+3zObTkKA1DMMwDI8JV8PoIHjRySfC8M4773TztiIag0IR8QjE22yzzeS4445zb7Lie3BwVn3CFfFJPAQqApQZCoC5XE8//XTZdttt5ZRTTnF+tBdccIEccMABbh/cCQ4++OC6vNk3OB0WwZffMAzDMBrChKthdBB42QA+rVgusYwy0t+LQg/LwWmuglZOxGTwO+I0uC/gHoBF1VtOS0tL3XrirbTSSk6orrLKKq4cxMGay9RYCFnKF8SLWI9ZXA3DMIymMOFqGB2EAQMGyAknnOAsrOCtowhM1rHcp08ft96DOOUtWp9++mluze+C1oveoHgljUMPPdT5tOIfu8suu7i0yQPYj+8EL0R5CQJuBD4dL4iD87hSpmC5DMMwDKM+TLgaRgeCR/YXXnih811ljtbjjz/ezbMKWEr3228/t+xh9D+zCtx9990yevToOgEK+aIVEK5YVK+44gq56aab3Ktlg/t4vPgN4l0B/DYvsAHR6stpGIZhGA1hwtUw2jmIS0QglkwYPHiwbL755k5grrvuunLeeefJNtts42YYWHvttV0cj3/Uj/WUAV1BoUp6Xmx6vHUVocnAq6Bo9YI0KFh9enx+9tlnct111znf21dffbXupQXgXQsMwzAMozFMuBpGOwehiAAkBB+/A+v69+8vhx12mGyyySbzCU1YeeWVnZhFuHoB7MWmt4gGhajfPz+ffLyA9fERqXfccYf89NNP8vnnnzsr77vvvjvfADCEK3kHg2EYhmEEMeFqGB2EoMBsLrgPHHvssbL++uvXzenq6d279wKLRy9Y82nIf9WLVabT8hZXE6yGYRhGQ5hwNYylFAQi7gAIxqOPPtoNomIdwnPgwIEyaNCgRRaRfn8GhTFvLO4FuCQgmAlYbpdddlnZe++9nWj2+RuGYRhGfYT0QmHmDaNDM3LkSDf6nVOd16DyqHq55ZbLbV268T9/xGJZWZl89dVX7i1aG220kZsJwLMoYpI8CLge8Oat6dOnu0/SZHaCvn371r21C7yAhbYoYikb03z5mRjOP/98N1jNBLdhGEbrYxZXY6nDiyJjfnhJAIKMgV0se1pCkJEG1lUGYa244oqy+uqru3ldebuWn1rLx2vrUMb8QWuGYRjG4sGEq7HUgGD1PpwsL60hCCIsKBb9I3zI37aw+HSwqObPHOCnwGI9x8bn11J5txbeOoyAJbTlshqGYXQkzFXA6PB4VwHEBULpmGOOcRbFpVVs+Hrn15+ugHXBabD4Xl87Idya23WwP3HZh3RZDroD+JsJ8vX5+W315b2kYSaEe++9VyZNmuS+M90Ybwdri2U1DMPoaJhwNTo8QR9XHlf7x9KGsbBglea1uohV7+NqGIZhtD4mXI0OT9Diysj5t99+W5ZffvncVvN5bW18+/obByyrQZcNb30ltAerJeXcdNNN5euvv3bfzznnHLnyyivr6mQYhmG0HiZcjQ6PF648qu7Zs6d8++23sswyy+S2Gq2NF6XgRWp7fqxO+ddbbz0nXBHhNquAYRjG4sNMBIZhtCoIOgSrt0i2d4FH+RGviFZYEH9fwzAMY9Ew4WoYhrGABMW3iVbDMIzFhwlXwzAMwzAMo11gwtUwDMMwDMNoF5hwNYwlTP6j5gV59Ownwof28MjaHqsbhmEYi4IJV8NoA3hB5wf8NBcGPH333XfyyCOPSEVFxXxCti3i6+nn0l3Q+hqGYRhLNyZcDWMJg9hkMvvx48dLVVXVAo26r6mpkTvuuENef/11+eabb5wQXNxWzQXN77XXXpMzzjhDXnnllXb7zv/gMbL5Ww3DMBYf1uMaHRLElA+IDC80gsttBYTr/fffL9dee6289957ubWN4y2Vn3/+uZSXl7uJ/efOneve+R8Ukl7IBkNLQDqVlZVuubntiTjndanMo8vyM888I/PmzfvDm8xIl3WzZ8+WDz744A91MAzDMJZeTLgaSx1tTbgCj/kRc1hOEWxN4Sfy/+mnn5xoZdm7CbDthx9+kHfffddZNFu6vlOmTJGysjL32lOEaHOhLEzaX1pa6r4jTrG8XnPNNU50ezp16uQE+N///ne57777nHhti7TF88gwDKOjY8LVMJYwCDpvTZw1a5Z7JS00Zl1ENOEm8PPPP9e9RpX4fH711VfOevuvf/3LWTeBbezTkNjKF6AN5T1x4kT3lqgbbrjB5UtoLpQNy/L777/vxDVCm/1xkcB9IAgCd9q0aW4fRK0vT1sRi8FyNNauhmEYRstiwtUwljCIHqyXiDkCYhMh2dRAKx6pE7yo69Wrl9vno48+cmIYy+YXX3wht9xyi0yaNMnFQQgSJyhMWfYCNB6Pu8/6hBguCQjl6upqmT59ustnQdliiy3c63YpB2XEytyjRw+33peLuiPesbzSHmzn0zAMwzDsamAYbYAVVljBiTPE3NSpU2XChAluuTF++eUXN5gLsUfo2bOne/w+duxYJwIJuBIQsL4iOEmTfPIthsDsBFhT862fQJkuvPBC9+gesYlrw0svvZTb2jwQ53vssYecc845TiiTb3FxsQwbNsxZiakzgvbXX3+V0aNH14nyOXPmyOOPP+7yNAzDMJZuTLgaxmLCC0y/7PHCEUGJ2MTqySN1BGhjYPEkHcReQUGBDB06VH777Tcn8BCoiFhcD0gPC+nTTz89X775vPrqq84V4KmnnpJRo0a5uH7gFPvj10pZseSSPsL5xx9/dNubA5ZUBCpuBpSJ77g7MCDt4YcfliuvvNKJ1Ntuu82JbPxcaQ/KjZi+5557cikZhmEYSysmXA1jMYHo8yIVQYZl8bnnnpNzzz3XjbBHxCEWCQjQF154wcWtDwQefqCkA8OHD3efDO7y/qoIYe8awCfi0+dfH7vttpv7ZP8nnnhCnn/+eRk3bpxbN2TIENluu+2caEVUYjElfWYF8GUm1AfrcTH43//+J3fffbcTx349aQDlwjXg+++/d2kC5Q62F0IedwXDMAxj6cWEq2EsJoICb+TIkXL11Vc7ccgsAjx+RxB6cUscHv3zmQ8ilJH2Ph7W1r333tuJ3S+//DIXa37Yx09f1RCdO3eWoqIiJxLxiUW8MuKf71g/Dz74YCduu3bt6tYhYlnv8SIzCOXDz/ayyy5zsxxgwfWC1Jcfunfv7lwIEK711RkQ6zNnzsx9MwzDMJZGTLgaxmIEscZUVU8++aR7XI6IQ6hhbUQ4egYOHCh77bVXvWKQx/Q8cmcblk8GZRHGjBnjBCrpkXbQR5a4CGNvjfUQn4FQCFSEoxeVrO/WrZsrA8vkQ7pYS/28sYhQysmnF6T1iU5cARDXiFz245M8COxDvZkFAaGObyt+r7DSSitJ7969XT3Yjzbiu2EYhrH0YsLVMBYTCDXAuogAQ4ituuqqcsQRR7hBS17METbccEO3HdGYD1ZH3AwQoTxq94OWunTp4kQe4hEhu8kmm8yXJq4IPPpnsBZv2UKA4gPL62J5lI+4BPZHUGJh3Xnnnd1+WISJj08reRKH8v3tb3+To48+Ws466yxn7SWfIHzHGtyvXz83OAsQpqTBNj4ZYEYeiF/qhC8trg8nnniiy4dysZ76lZSUuDQMwzCMpZPIJUpu2TA6JIi1Bx980IkghM/JJ59cNwn+4gZBiADbeOON3RRQW265pbNa8lieR+G+jAcddFCdSEPgsZ5PhOx///tfN8qfdYDoW3bZZWWdddaRFVdcUdZaay2XPi4ICNKgQGRAF24GH3/8sbP8brrppu6zT58+TmB6MQukyaCpN954w/nT8sk2b8nFqougJX0soghO8s0H14J1113X+ahSbuLTDh4ssAhVyoDAxZ921113dQL95ZdfdoIWN4f11ltP1lhjDZfXkoZZGiZPnuyWN9tsM9l6663dcj7U1TAMw2g5zOJqGIsJLz4BIYlP6meffSaffvqpm4Qfgcb6AQMGuMf0xOc7+P2wtPKaV7Z5AckyrgMIU9J866235LrrrpM333zTbfeQhhe7pMsbsBDLZ599tvz1r3+VDTbYoM4qCghV4syYMcOJfz6DQszXByGJeEagNgQDrqgjZQ66K7A/4hd/39NPP925ClDuBx54wIl5D2KfKcOC5WvrBNvKMAzDaBlMuBodEkSVDxB85I5wCm5raYJ5BwMgZhCY119/vQu33367C35gFsJu5ZVXdsIyX/hQ7nfeeafukT74tLFOMl0UFlKmsvKP3kmDECyDB3cCrKpeDPrtPi5WTvKkLPn7BllzzTXdY/0jjzzSfSdfn4b3e8U31g8OC6aF2wCWW+rPdqbkon0Q4tTDwz7M9xrcd0kStBhzbvnjFQyGYRhGy+OEK52wBQsdKSAkfPCWScSE95fMFxcIopYI4NOuLwDl4zEzlkrW+XKyP995xakX2ghQD9vxI/UWS9IB1mMNRbwiQvlOnakrywTS5/tqq63mLKs77bSTE5vE83mRt3/0T0CA4lLB4/9BgwbVtSMgOA899FD3Vq5TTjlF1l9/fbedMgXjAWkhOrGYsj34qB/BykwGlA0hjfjF4hwU3QTyY/AWy0sa2tPfPFDXtlAmwzCMpYWQdsIZ79NmGB0JLyh45L3ffvu5ZcQPVkteOwqIkMWFF2EIRWYAwNcUy6KfUgpRx3ZEZv/+/d2gJwZAebBMMnk/IpXtWCgRtqTHgK9DDjnEzZVKGjy2x+cUEQwIrb59+8qxxx7rhCIClbr7NmI7fq/MJ+sFMeXad999ndglr1tvvbVuIBhx2J9BZPh3Ehdx6felDuDT5ztTYuFDi/DOt/IC++Lbi7/rP/7xDyfE/XY+KQfHkXwWhGAeLQHtjQ8uLhtw6qmnygUXXPAH39uWztcwDKM90tKzwTjhytyJzcFfhAyjrcO56s9X5g894YQTnJDAqsebofghBYVFS4qMxn4niB4CQg5fVOY4ZRkxh/jDgsd3LJGIbEThcsst59JE2E2bNs2JUcr/2GOP1U2phRBEQAF1Yd29997rxCuQ7vLLLy977rlnnS+tjwfffvutfPjhh65srGOQF6IUX1sEGXnef//9Lh/vhoA4xneVdaTNACzEMWX1FklfV9Lkla7kwwAthLCfsssLPup82GGHuX2YLow8ENnkR3qsZwAXMx3g80q6BH+sG2r3ljy2QJ60o39rGFZiXiJRHy2dt2EYRnuDJ24tiROuze1cG7owGEZbhteF7rLLLk48YWl9//33nRhckuAqgI8rQhThhhhCnHmRBgg15jhFvO64447zWfSIj5UP6yu/X36bjHT3kM5FF13kZhYA6s6sA6eddpr7ns+jjz7q2gUhSV5MpeWtvaSPCGYQGWUibSyf+KN6EUv+CG8swVhMcUVAdCLI8y2RHA9Et3d5YD9EOsKbvC6//PI6IU9+LFMuL7KJyxRiTCUGCGDyWFzClXJwTLgholznn3++sybn59PS+RqGYbRHuF61JC41LgwWLHSkgLjwAfHjAyLLg7CoL86ihGC+9QVAtPI+fkQfgotprygzYgzLJcuAKOLR/LPPPuusxPlCCEuntziCz4N4iMYgxGE9ZaQN+CQflgm8EetPf/qTXHrppbL55ps731biE3AlwhpLfMqE6MfqeeGFF7plBCblIE3euMWrahG17ItLQj4jRoyQM88806VHHMqMj6x338Aa60U8ZaMsvu0AK/Idd9zhZh1gPflSv/zQWpC2L0+wPQ3DMIzWx83jysWoOYGLkwUL7SEEYS5T5nFFbCASTzrppLp5XImLEMnff2GDF0xePOUHynDXXXe5aa0QO/yuED7bbrutE4NYRf3UUX4fBB6WVwZJ+XWA6GM6LfLdaqut3Oh+v5002c70UlgkWYc49YOsfFkJfEdA9+jRw4lhhCj47fjhEvw+zD3LXKu+TIhT/9paykqctdde27kb1GcJJR3mhWX+WJYpJ6IdsY2VF6HMtF5833777d2jeNwLWE9cAvlwXHlcj9sEIT8fvrdGoMwIZ6YKAz+PK9uC+LjBfS1YsGBhaQstTcvabw2jDVHfjwbhiFBrrR8U+LTrCwguBiix7GGw0e677+4EJmLt+OOPdyP+EZD4fWJ9XH311XOxfwfLKAO4GN3PW648vo48rmc9k/b/5S9/cY//FwTSobzfffedSw8LKJ+IbMpGHfg88MAD5YorrnADq5jKi7eAIeQQ5gi3+mDAHNu4geAFDPjGehCqpIerwz777OP8bLEGI869EPaCEPHKQC6m0Fqc0DYIaKAcweNpGIZhtB7OxzW3bBgdkldeeaXOx5XBPYwG94+lFyfeWoj1ksf/+LdiJWXkPuVimxedgJsAllmEG76jS4qRI0fK008/7SyqiFIGJnlrMVBmhCTlDwq4/O8e1v/zn/90r51FGFN/RLanvv2Ix3rajlfU0jZYlckXMYtf7OKcLgtLM28hg/POO88J7fryXlzlMQzDWFow4Wp0eLxwRfwwbRSzaCwJ4RrEW+wQNl74+WU++e5Z0j9R8kdkYvnFoopQ9GUHX+bmQlyEpx/chXD17gkNgVBmPwICGiHt3+aF5RnLbD6UC/x+LQmuEIhoMOFqGIax+DDharQrvMjzBAVUQwSFK36cWPv4XNxQTqyUQRHGMnXw9fD1I57/aXoBtiRBWNJ+iEbKh3uDL7evT3Nhf9IC0iXwqN8LYIJvD/DfvWAmeAss7hX4xdJeLIM/P9gOC1K25kD6J598sowdO9blwVRYf/vb3+rNp6XzNgzDWNox4Wq0GzhVCQgHP/jITx3VGEFXAS9+EFuLWxAiYrxwhcZ+etTRb28s3uKAsgTbygvJhSW4P+1B2o2l5+N7EejjLmo5FgUGsSHigemwEK6GYRhG62ODs4x2A0LFW9Ow0iFaES7NFS/EwzrnR/T7fRdXQKAhuPn0Yq2h4IV1U/EWR8hvq0Utk9+fTyynTaUXjO/3yV/v4y6OQHsw+4Ofjsyfk+0d6mYYhtHWMeG6lMJFigt+ewGxwByhvFlp2WWXdW9OYrT8GWecUfda04bwggPh6x95G+0XrLRBvCV2ceGt4ZyTQfx51h5pr+VuCfxxI/ibIMMw2i4mXJdSvPWyvXTSzBPKPKcPPfSQm8CfaaKYpummm26Siy++2MVpSIgHL0w+GEuexSU46zv+ixI4z4IWcb/c3qEe+WJ8aYDz0IeOYj03jI7MUunjSpUbu2g2tb2tsaDl5SJLB80rPseMGePmzWzL8Hh9//33dyPJsZjyuJ/Xko4aNUq+/PJLWW+99dzrSBuC6ZzwcaWdevXq5abDWtKvfDUWHy3dxZHeRhtt5M4jfkv5swq0p77DQ514Y9mECRM6hAhvLtQbv3deH0y92/MxNIylhQ4vXKkenZCvpl/O75iC29sywXJ6Aeo/mwtp8Lic14vy9p9PPvnE+ey1NWuDP04//fSTmzcTlwDmO/3Pf/7jJsHnkfGLL77opmgiNIQJ16Ub/5tpKUivIwrXL774ws2nu6SnilscUF8EKzNR8BILXiOcP82bYRhtkw4vXHn0hSCjM2LZj2JmHd/puBA/Tz75pLz99tty1VVXOT/Ktg7T8SDg3nvvPVlrrbWaLTqpO6Ohn3nmGTn88MOdNRPhyrvig7SFDtyX4bTTTnOv2OT7Sy+9VPcGpebS8YQrP1msYhwfH/Lwv+rFcggXa2YLTEt3caTXEYUr89LusMMOMnHixNzajg1Pb3iVME9seMVyc2YoMQxjybNUWFx5xSavj2SZd5oj3Jg3kvec86gZ/0kskIg/BM0vv/yS23vB4CJGQBxz8fICmXwX9WLmDxPpIDR5Pzplvvbaa93rPJsrXAHrAu+A//jjj116I0aMcI8JuRhfeeWVde/xX9IXYOpMuTgmWFt5NShl7tevX93xIk7+YJ18EK677rqri8vblbAsMcALlnQdFw5Ea0ID9Y7K+DKR2x95WzZcdaDsuEF/KYqFJKzrJa3nRH2nRXN/8X9oGnbUG8C6pWwJfv/WBHVam8FxWrCGytcK+N9PS0BaPAFAuHLzi3ANTofVHs8p6uSF6/Tp03NrWwb6wfzfqe8blzQ8ceJpEy4SJlwNo32w5HuOVoaLyGeffSY333yz3H777W4gDxcZ3m/Om3sQcX5OUOCVlgsLHXHQEthSohVIg8Cbhi688EIn3HgLFGFBLgBcaPENRQByIaF8WJp5M9Ktt94ql156aV1eSxrKwE0H4hV4aUDnzp3dMu3M9ubUPViXtlK3RSOjfyknF+H2R96V6578Vk67/BFJRWKqD+O6DWHbGuj5rP/T6tlWbKZo9bioSN/F60fpj3tLBo9fzl9vZKFN/O+U/gbR2lbaqS2VxTCM5tHhhSsd00orreSsdog94K0/3F0jfhCCdKoHHXSQe+z+97//3cVZFOgIX375Zfnvf//rhKIXxS0Bryv94IMP3DKvzeQRv69Xc+FNP9SfsvEIHeurt4C8+eabrk3aCv7Gwl/4FsRFoKODhKzSz/e++F7CmZjUxJeRb3/6VSVhRpII13BLi0Mu8BlNtlZDlQbOk4bPbbYQKAVSNaWHMKlLejT1U5f1O9ta7tdhLCy+j2pKxC1MX0aahK+//lquueYa14fxvSX7xXxIu7np+7itWR7DMFqODi9cETw8YubxMBbWs88+2/k20UkhiFZYYQV55JFH5MEHH3SPyplUfFEh7QMOOECOOeYYN/eoX7eoHSOPy48//njn5kDHz/RQzGXa1MUmyHPPPSdvvPGGE7urrbaas76+9tprdeXjMSFisTlQDvZBAHtIF/Hft29fd4FaVPxrPBHWi9p+HQUEa0IiEtfw6ndl8s0v0/Q8F0lo6LXs8jJTFxJSohKxJX/etD0yU9MOFUptSNMPF7nvksmTn7lFzkp/ZoZUqoa0xKlUUmL6l4gntfROvmp0pLaxuLjzzjvd06dp06bl1ughy/22mupL+B3Wh1/f0G+UPmeDDTZwN83bbbedG3DpxWv+PjxhGTdunHOJ+uijj9zTIN8P5MP6e+65RwYMGOD6bvz2fb182g2VyTCM9kmHF650bAhUHqnz+e9//9tZFFk+9NBDnY/rnnvumYvdMpAnj7gRcTNnzsytXXQYOIYApyOmPlyAWPbWyKag3rhIcMHA4oqoZlACFx1/4UG0NlcI4yM8evRoF5+6+gsElpUZM2a4G4JFIXiR9GX2ZVuaL0bZh/VRKa9JytX/vF+qpVDPudmy3hbLSbeuuiXWSSUi4vV36lqrvmbT5DIkmft0yy5iMHI2QnnZPDnojKvl0Mv+K9ySJVyUWo2aN/+nOz5ZQcpRTOGLmy6Qm54ZI1sec7NsddQNcs+7E7Sc0VzKGpPILj2jNcGHnwGPa6+9tvORh+b2IbgXcaNK/0nf8fjjj7uBk++8844TnPUJWwZA/elPf6q7wUVYHnzwwe43zO/Z/6a50d16661l8ODBMnz4cNliiy3ctHfrrruunHDCCfX+5m+55RY56aST3NzO9Lv/+9//nCvVgvSLhmG0Lzr8LxuxM2fOHDnrrLNkr732cgOx6OC4+7/kkkukpKSkQRH06KOPuo5xQR+dE58OnHSZKH9RIS0m22cWATpjLh5YXhkhzzYGm40dO1bmzZuX2+OPICz/9a9/uQsM5eI78TfZZBMXSJf1tA0XGtqMtAlBi6oHawiDuhjMQX29zymClVHJpEX7nXjiiXLKKae49r/33nsXqC3Jm/JQNl9vA0JSncrIV9Mj8uOvc/VbVAoLYjJ99kzZ59T7ZJM9/yYb7H2JXHz7c3rs9EZKT28EpjvL/bmeE6iEtK5KZfQ462q8iSs0ZBATSV2TybmhuDRC8s2v8+T9H+bKC+/8LG99XJ1NjkQcubT5ZIOmyRbSHf1rlRz714fkstufla+mJOSzyTVy7j+fkGmaIUPJnMjVyLWUhyQWgfrO15bG/zb805v2BOVlOjlufF9//XU3hykCFvGX33bEDdaPOtOHMLhxyJAhbn5lhCMzfay44opuDAH9h9+H9L799lv54Ycf6tKmn+C1y1hVg/z1r391rkr0IYhg+gr6qKT2VczT7PsORDPlYEDVdddd5/qIIPQzDJwzDKNjslTMKsBdPAOQfFURWXSGp556qlx//fWuI+UCFIRH5sxniGBCMB5yyCG5LU0za9YsN3sB+fGIbMstt8xtyXbaCwouAlxcuCDAmmuu6S4eCFY6bqyodOZYJqgnE/Tnw8UAP1/2oa7EB1wlDjzwQLnhhhvqLgAIRAQ/1l0uRpQ5WG6WmcmAAW9cwHjsx4WG0dX433JByr+YAO1+wQUXuBuG5sDFCesto37Jk2m/3n33XXezEaSpNsXfODgdFvXq37+/29bUvm0RhN2smqTs87eX5KPPR0k4pcdH/5Jal2BtOqXKZeTVR8vqaw6QoqgeVxQq6lD1Px/+h49sZJkz4oLbHpBvR0+Qmy87X1bmNIqqWED5ZkqkrFDb8qtaOeKvN0p1PCRrLlcq7z1wsjAHhbOYevidEcIqelRUs+WqO5+V6x79SspSmnlBWNLcg0RCcv+Z+8phW62kXxA1ESeacUBYWE9mxBEjxV944YVWE7Ccl8y+QT70D4jA3Xbbra5/CZ5Tfl1bgqnw6EuOO+4491vnqdMDDzzg+gW+01fwSdn9zWKwTvSHxx57rGsH6h9sZx7X02+SJq9lZjv9L4IUfDrk9eyzz7obX8+HH37oRDB902+//ebSoh+iHEw3FnxRCuu4eUekkr/v04E8d999dzfFoaeh3zn5BKfDao/9gWEsbXR44YqAYtJ6b42kY6LKiB86TayGCCIeS/lOi46TgVp0uHSCPNZioFVz4YKGMCI95ogNds6NdYyUq77t+N8inP02hCsdP4/WghZdBqExpU19whUrKCKVzp26459K3bj4AMvk708H8mI+2/vuu8/F4bvfzsUMIUjdyBPrNYKViwBt17Vr1/msv1yAEMzARR5f4+bCBYVHh8BLBri44SYRpLE2hY4oXKeVVcvg/a6UZLiLRFUFhlWJMtgpSFGqVi45bFf508GrSySjshS1GlIhyUxZuWpnP7C2hqRWw2p7nSFTE53koN22lRtP2EI6S7XKyVrJJEJyy+tj5MHnJ8onP/8qmVRCupTE5PBtNpDLT91YumgqYecuoOdPKGtBBVwEuIX5cWKl3HLfSPlxaqV8NnqSpCKqgkNpOXDdnvLA5UdrHho/g/+s09WL9CiIpxM8XQDO65YGoYTowmoIPHJneix/LgXPKf97akvgN8rAzm222cZ95+15/CYpN2ITv3d81P3vHoJ14nfObxEL6Oabb+5+7/QFXjjCn//8Z3dDjSvR0KFDc2uz6RC8+Mfn1afN/rQtvve4M5x++uly+eWXu76O48gnsC9WXPptKCoqkrvvvtvl5y2tvFwF31im9guWPR8TrobRDtGOtcPz1FNPZbTj4wqS0Y7JLesdugus4/Phhx/OaMeZUeGVUTGYUbHothFUKOZSah7a8dftq3f9Ge1o6wLwOWnSpIyKsMzIkSMzX375pcvbbw+iAjPz6KOPurQou3aublkvMBm9WGb0ApHZa6+93Pdrr702t9fvkKZeYDI33nhjpmfPnnXlItAOvj1UjLpl1g8YMCCjF4+MXgRcGpRNLygugHb2mQ033LAuDZ+eCtSMCsTMpptuWrdu1qxZmf33398tk/6xxx7r0mgOlF0Fb0YvTG5/yq8CfL52rK/N8qGNqR9l1ZsY1/bN3bctQqmrNKx7xsOZ8PZ/z6x8/OOZyFZXZ8LbXpuJbn99XSjc7urMgX9/NTNZ4yYz1ZlMqozdHaTB0eRTW8Itz9Yw7IjrMrKr7r/zpZmPfp6UmThnXqY2U5OZpttWPPbmTMGWun37GzKy4/UZ2eXmTPEO12cOv+rFzDzdniXu0kq5NNP6LZOp1E/C7GQm8+LYTKZgxyt1/1szst0/Mmvsd3FmjttPN7rDoZ+LwOI4rqTP+e9/L+eff367OpfOPPPMzK677pr56aefMieccIL7TehNakZvUjN6Q5eL9Xtb5tdt3Lhx7rfO74nfNv2D3jBnBg4cWPe7X3fddV3cSy+9tK6fGTRokOu/fJ9BvxWEfPQGuC6Nyy67LLflj5x11ll18TbZZBPXx1EXv65Hjx7ud+77rIYgTr9+/dz+7ekYGsbSTMubI9ogPM7mbhq0zu6Onbt7AmCh5PEZlkTtYF1crIQefKkWBP8YHoKPzEmbbYzsx0qDRZfBByr03MCr+mDqLh5DMnKWR2N6kXQDIrCssg5f01deecVZZc8444zcXr9DnliPeUSPCwPohWM+ayvQLsQFrCfMfbv66qu78rOeQBwsNZSXeWDBp4HVgxkbeIzoB6SRB3HxdQWsOOecc45bbi4cC/zngPLjywuUZekje13m/+radHZgXTwhCT1GkWhUIuECN8A/O8g/LCkplpc+nii7nX6v3PLiaKkKZ+fADZJNMfugP6E/h/69+kgklZBYOiOHXvBv2eW0e+WBl8e4x/en7bylrNg/JoWpqqyVNx2VmkhUvhg3XirqjG0MyEo7eyserqQck6REZa50j1TKwN6aX1J/ExmsxGEp18XZzOmFndWdSiS08MfWn6utCede8PfS3uB3+dZbb7mXmPD7wkJ9//33uyc54OvXEDw9wTLKb9+7FeDK5C2gwFgC4vHyD/LgUT59Hm3mLaj1zTry/vvvu0+2N+azjyuIh0G29NeUwcMgUwafwtLZVxhGx2WpEK50yL5TpnPTO3n3EgIGDAEdpB8o4C9G/pMOlMfqdNTQnE6Q+B4e5QcvcEw9hesBHT7b6ND5ZH5DHtHVlz6i8KijjnKjd3kD2N577+3iUxcuHjym5x3j+RdSX2am+eKxG36p//znP2W//farE5xcRPwyn9QX1wry5IJD8HCB4vEoZWe7z4+y4BNMu3br1q3OF5e6UCdgXx4Bkr8vl8+3IUifm4vgK3i5YLGex5Sknx86HtQpVy9XP5WD8UrpVpiQ7dZbVUoKY3qjMEu2GLGFdOvaT8IqJENhjgufRVKu4uHzn6bJJf/4r9z/1CcumXxI9YXPquTS61+UceNnaKfA27HCMnZWJ/l2YkJefP9r5/966F5ryOV/P12K9JSIpTVWPKwCNiYr9e0iBTmn1LSqZr0l0iXksB5DDTz6j6p81QMuPbvo+RzRtRwv3VqhCVfxn69nrqptnfZ8rvH7Zqo+/OTxU+fFHsBNdXPq5Qdx0VcwiBPwccevFfit487DbxT/dz6J//TTTzsxS2BfbryCfSW/a27I+WQ7vv35UD5cAOhX6Dvpv3jc/9RTTzkDBPsBfQsuW365IciL4JcNw2j7LBXClY4SCwDg18V0KVj+mKLFQ8cLvvOm86UTZBnxhFiD5nRuPi3wFlf2oyNmUIPvrBnNz4Aq8mD6LHy0KGtjUCaELtN6sR+j9pnLlfX5ZfOdOB06/mQMwGLwAwMX2IY1F2ssA7w8fp8gwXWIZfZhFDL5A2+z8gKXiyF18fg4XDwYwUwdiQP15RWEfTkO+MUilMFbWih7xycoInTZ+Y7qhbagk8ytrZGjDthNSgqKpLo2oRfz72TeHDcfgJ4HWWtg1vqqF/9kjUTSSZn6W9Ynk1SDKXOGHv1//5X/PPeZTC/PSCpUIJmwHs9MiXSLVctG664sDIfjCM9LVkkiw9RnIUnXZqSTiuPTDztQKmpEpuj9SGWoOCd7kaUZ18Hw+tmwlEoyXoh8lU4qtrGs8rynlv8Y/BVX8crpm1GZGyyc0eLQ7/E79L6n/MY8/CY5d/KDh98kN6l8EpebVPo1fMjxowdEKj6/PBHywpbfP0LT58X+9I1MqechDiKUdOlzg0+rgL6ZsvB0ik/iEOjbuJlnRgPyANJHGEOwfvn4ugXraBhG26Zx5dBB4LGRF4sMzEFA0ZkFH0X9/PPP7pE8nS+PvJmgO4jvlJtDsMPF2gB0pDxe9wIaCygzDjD4wIM1FgFI3MbAwurdEYjrLZj51NcZE595a3l8TzswMIGBFAhSrBe8y78+gmnxSHDDDTd0FwnWcyPAYCfaj8nFWUf7kldwP8QnA62YqQAaKnc+iFReIgEMJOHCyQWLtIPpdzSy0o/6acikJK43NUn9yb41Zrpc8Pg3cvo1D0oi1lXSKv7mzFOB4AZHJTU6bZPSkG3/bTbfQE48bF855pB9GAHj0g62Gmfb0DVXl0ihCkyOnQreIg3DB/aU1+45S87aY30p1HS5pZo7u0bCMV5uoGVTARuKpOSiq2+XdXe70M3N+sNM0su++oCgR8j9D5FIOLeOHHNWsJCeJ6x1Mx4QEB7B0rVNOLcb+p36bQ1tX9J4cdrUjWN9sB8WV+A3yE0qwpE+CXza3CBzo8wyfRoDVHFNwNpLv+F/+0F3AfpNbyUFbuKDbUn/hLvQ888/77aTDjOlAP2Nf8seEB/hSv6GYXQsFrznaof4OQEB8cgrTpnQ2o8KBjo8OkREHdYI/EaxAPhO0/tLNYegxdFbUEmDDp98GNl+0003Ob+s4HRT+NIisJvqbLFSEIeOm/hcBHw5CfXht2GhxbcWKy1iECHICF0ENDMEUP+gxbghcAngIkSaXEzwfaX9+E67EYALCvlgEXn44YfdfI685YZ41MGXqz58O9BO/gJFXG4yglYU4vnQkaA2tIyTmpm0xAoK5aWPx8jep1widzz0qoyZOE0qyuZpvJAkNWIqUiE77LSFHHzI3qoH46oFa3RLWLZZf1X5yxGbyjJdNEUnFLOQPgFr6vtXbSplr50vL912hpQkVJxKsZSWZrTdi2We3odNmBOS5z4dqzd0/5NUkpsSLU+RnutVM+TrX+bJ3GQ3+XVqtTzx5OsSSjG3Kcc2e7w8IRU1dDh/nBVC/+N8+T2q0YosjGD1cDyxsHpXIfofphTk90i6iEv8ZemT6DOJzwwETE3FlFhMZxf8neIa4KGv9BZa8NZTYB+EMv0Mn4AYxucdAwBPspiXNtgvYGxoqk9guxfbhmG0D5YK4Ypo9RbXfv36uY6Kx1hHHHGE67AITAMDCCs6W1wJ/DaC99VsDlgO2AfojL2wRMyxTHlIH4sAg6s8dPpYZL3oawgsjkA8rAzs1xSUh06feQ8ZeMXjd95OwyM9XBZ4OQOCmM6fQVl+8FVD5F9k8G9lvlWgroRBgwa5eWWZPJxBW7go+Ef+bG8OlJsLGAO7gDojXFnvQ0enTmhqVcdNnSOhLv0kEk5KaapcikO1ul5vFPScLulcrHFTssaaK2n7JlQo6vmmF/k5v40T1aASzbU5H3Vp5j79QkQ3RNIpiWhmVeGEnHHr27LN6TfKzmdcK6ddep/8MrFcquMJFdMJSYVUHEcTkum0jBSEotI7kpIDt9tS04pJSIXrH0Ag6EeGioRVYISwteoxpDB154P/NFqLRfnNsC/T6XlDAND/0K+xbY899nA+/ExnRT9L4OmS34cbdeKzHuhXgzf3vmx88kSMT7+OfTAK+H15YQF9A/Nk4/9PH+ZFLXiXBsMwOhZLhXDFykmnSQe4/vrru3V0cPitepFFZ8h2lpmbkFH4XmQBlkloSlSCF64E8vXWCIQi8wrS+TKgie8HHXRQXVxeWoBlsanO1pebstC5kzbLvi4NwcWEtuAigzUCSylCmXXeUkFalLkxC/NLL70ku+66a93gMgZ9cRHBd5W5Yv2FBcsq6ZMXj/upI3nR9sShHM2B/fy8q+AfVS4tuMu2tkFc22uv7TeQS47bWx6+/BR57Lb/k67Fesz0mIdTaSnXm5i33nxHL+L/VfkXks7M51sTlukqdt0vPaIX9Uicef9dmlk5kIXLPVozhGtrWI+LqskxYyfKQy9/JV9MqJJRkyqlKtFFUmn9TWTVrYrllBR3CstGK/eQU/fbWB686WxZZ7CeR9mntX8kUSl4Jpeo6M7664oUqPBN45sQ4/zDz5Xfl4mNtgq/WZ5Y0TfiAkC/4V2jcBNivmt+275P4pNR/+D94Pkt00+xzT8xAtbRn/j98mcVYB3uMj4//xTGQ/rcLHu88A2K2Xya6jMNw2h7LBXCFYEFdFA8rvIdZXD6FrbhY8p0U0zGzeNp3gDjwcrXXOgovRj1j91Z5hEpnx6speBFJ1NysT34uKs+vJ8sFw98wrwo9zTUGVNvLB/ERVR6vLWZfCkL1k0/OXkQ0sRqi+XUC1veDc6jQuqMoGRwBWmQFlPbYIHBqrvKKqs4yyvrucBQFl/v5oB7BVD2/AtaR4ajmv2RRlTbRWSgKr/TdlhV9lq9lyxTUK4nD4/19aKtbYlbQDIelokTpunBikplBdNWlci08uwbqSpDWOazN17OyhmAXwSX94QmlkCUaoRIhtchF0o0EZK+sSKJ1Wpe4aiEonqTp6GgsER/I8vK+SfvKZectKGsMTh3o+fSDsriHIlqNzhrhf74UWe319bMlbjWq4x30iJaXXCbjDYIv19vCPCWUgQlU1099NBDdeKUx/hYWnG7oi/lt85vl989rgO+j5o2bZoTq6RJOt4a67fl0yf35IX+i2kOfb+HmGU/Xjzg4Ts01Z/6shiG0T5YKoRrUOj4KVaYDubGG290yx7mHL300ktdR0eHyEAlPgk8dqKz9p1hU3jxFvR3xdcTyyQdeRAGLD3yyCNugJQX1Y3hXQO4cPBIP2gZzie/Q6aDZx1T4HCxAS+EgbLRBviw5sN+WIxPO+00Ny0Xb8XBJ5b2oUxPPPGEKxNtRD38RYWLEhZrpuU66qijnMWWQXLk5eM0BeUhXfZBPC8t0DrujAtlH7P71gqHIlKtN0W1SSyfItGCkBTGCrStM5JUoZlhdD7ncXFM3vn+F9nqmJvlqc9/kxnYPOu5RjPrK840M/W/RCbMu7KkPFEuJdrme48YIW8+eoHsu8OaEtUtkbT+JpJhCSeLZewPZbLTX26Roy55RCZMnuvGh6Wj9WYhUtxVuIUcOnxDrYjGCKuQSRfL6F/LpSJaJMmIls0srksU+q2m4IaemUSA+Pymudmnb/DQH9C/8lpt3wfxSWCQFn0Wy9zU0lcQn3X0Eawn3eDNtYd1jE3gpjjYj3rBTJ7ceON/z3SH9D1NQX7N7YcMw1jyLBXC1Vs2ET50UPhb8opArI8e7vrZxieBuP6xPQGx1FzBxL4+r6BopnNG8GF5xLKLRQKxx2sKmVuVzrcp6wAw9QydNuXCHxV8x5vfARPHw/Q3WFfJg9G8O++8c93FxtcT7rrrLmdxZTvTbmGx9o/3AQsrU88MGTKkrrxsx7pCHC46iHBuEv7v//7PXWyoG+t5JzpuBly8mNM1WN5gGfLhWLGNfLz4XnpR4RiOSq+evaSkuFjienEOqbClTWh/1048Uq0qk1hqutTqtp+m1silNz7opr5yujAYlIgkZJIuX3T97fpjKNJjnpAeqQLZfb2+cv15m7oBXL/8XCGFqpILdT2P+3t0rpauJUlJhxLy1KeTZe8LHpJ3J+n5r8IVTwCOLWXxoTYZk7d/rJa3P/tOIhncBSKSifSUUy64UXY//goZXaZpaUl4gUFdwYzFBseL3yhir6HAdp5+MOvKPvvs42YnYZkbYfoCf6yDN66s930ifet5553nXsmLXyr9i5/ajv6RvgVfVfoe/O2DkC4gnLG21gdP0XjyQzjwwANdGSiLD5TfBw/Lvm8zDKPtE9LOoMNfIRCqWAXoQHlcj48o1lMebR199NEuDp0hj7+Z2oUBRUznwghYb5X177jP96uqDx75I0QRWQhLJsxuDsFDERR0+XABweKAjypWYgacsY6LQhDfOVMO3mCDsEQkB10nfPAiw0NatBedPXXhzVw+XhC/D3O7MlsBeQEuBAzSwALLIDQGwjF7AXmzD+nzQgIGp3lR69Our+7kf8ghh7htzAhxyy231Inm+uIHefnll53YJ19/HL3PbFP7tmVm6mHc8bS75cfJlVJUGJOKmqyg51zA6lSQqZHlimbLD2WFMreiVooSc+TZWy6U7VbJuobUmW/dZ7Vs8pd/y6djyiStwjRdk5Q7Tt9DDt5zFems27/6JSNbnHKjhBIqmjNh6bdcWG65/VQ574Lr5bOxep6lSiUSr5WeBdVywmFbyaEbDZIVB/TRtFISi8ac/+y8ZEi2Of56+W4a52VE4qFiKUhpeiqnCyOz5M6/nyh7r95D9MzTO2qObds8NpyrTAfHb4n25ib0iiuuqDuX/G8C2sv5RZ34XfAiE96c1xDE8wKVT/rRoOXTQ7/h+yPi+hsq3zb+k/bxv30C+/nftRfKHp+n34d+gzh8Zz3L5OP393kAcYKfwA0wrlz777+/e9ufiVfDaB8sFcKVu3qmSwGsfbxy9dZbb3UTcfuOEUsk1k8Ejnf+53GTH8GPxe+jjz5y00g1Bp0nwhjrJgMPGAzGfvnQ7ATfWeYfhmAH2xiUnzTo8IMdb3B/Lkg8kqNerPfx2MfDespAPSk3Fx3fNgy6YKqrfGEMvtxMdYVQBcQ9Fl3/OJE4+KvhYkAb+324+PPqSR4RBstfX91J3w9k49W3CFdfnvriB0G4ctzJF/eP9i5cqQfTns6Nh2SrY26U0TOzNy0pPVxpNii77LqLnHPaUJkyVuSYc66TedVJKZGE3H/DRbLZMJFOGoc3xjNQi1uNIqmVEWfeI+9+M0m6FUTkb386Wo7Zdnkp1EOiu8rJlz8k//1ilkTTBVKoAvjw/daRM4/bTr4Y85OcdPnrMnNGQmIqNmPRkFTVzpYhsRny76vOkk3WGKSdTFwS4QKp1J/V4ef/W177coJkCrpITbizhFJJ3a9GuheWy4M3/1W2HtRJMloilSJaqrZ5bPhddDThyu8P15/gC1KCBOvBdl5qwk0q630IQht5AelhnW8bfussI3p9fwusI9CP+n7Bw/qgKHXnfG677wMph0/b50fw5fOfxKH85EMZOJa+/zEMo22zVAhXfCqZR5QOkvlT8btiPlMeV/nq40PJ/IP4bAbx2+nUSAcR1xT+IoClF5HlJ9xvbYIdNGDdpPPHMsuFFqsCwpQOn3gISyyQXISIh9sAy1wcqC/xsdxxYWbGAy4E+RcAoF3Jm8d7CFFep3vuuee6bewD/qLCo0XaHuHIW7CYhYD1xGvswoEPsH/0t6DClTl5G7K4tmdmJ0R2PPlG+e63WsnwClacS5WkisGCwgLZcust5IsvP5fps6a779WVVdK1SyfplKmQAaW18veLTpENVu7vhGvnRKX8FuskL304VdZavqes35cH9gWS1qYdO0vzOfoCmZDsqQe0UDpnJsnIf18saw3AtzotL/8gctJZl0pVpkjFaCdJhAolUjtPztpzuFx5yg4qkKukMlQi2OUmalrnXfcfef3r8TIzXqAqaIastkJvOfu4A2W/LVZwsw6kVExwDjJtVlPHdknAudrRhCtlRsQh5oK/c097qUdTBOvh+xzWYb014WoY7YMOL1ypHo+zsNjRKR933HFuPVM0MX+pHx2PnxUCD5eCxx57zK2DYPPgn+mtig1BfDpEd+EN7LskOn5/AVqYvNmX4MUhdSH4tPLT9PERsVwE2M/v42HZXyiC1pHmgOA94IAD3DKuAljMvfWlqfp1JOHqW7NW269KamSLU26QnybrhTdeJKFkduBVmDdUFUSkrHIeT+R1VUpX0kZuoxSnIpJMlMvagzvJm/eeJSVuyBTHIfvIN5OsFT1CUhsp0cYVmVohst0h58nEeBdJq8rdZ5OV5a5L95HiXGFI+rXvfpGr739J3hg1RzLR3tIrXib3Xnyc7LReVwnrvUulJh+t1aDl4WUJs+YlpaKmSgpiIRnYt7PEE2kpjmokBm3lrMYO5yybW24jcJ53NOHqoW4QrAO0t3o0RLAevj/yyx2ljobR0cn+ajswdMQ8CjryyCPrRCvwOBsXAu+fxch+lrG68spXRBH70qEhxPjEIukfTTUEnZ8XVOzjO0S/vDjxHfHC5EuHHhStvg58+nSDsI56cwPAvr7tgnmz3afjBWxz4aYjCGkF015aCPGaVVWPEf3b94RHZewPetOVLJG0tmWlirzagkL3WZbU9i9U4UmIqqgtKhWJqbBNR6QmoR+hAkm7yakgppKW34GKlozeUET1fFfRWqinemEyJYN00/+u/Its2Dcl267XRS49V0Uru+nhSxH0b8Tqg+Spa06Wsf89U968cmf5/J6zZNd1u7opX0PpuJRqKNTscE0o0rBs96gM7V8qg/sUa02SUhzTc0XzT2dC7mUKKa1DWoN+NRYj/C4J/L78ckcKvv8i8N2zIH2RYRhLlg4vXH1nVR9MpI3P5RlnnOEEK/EQqVhPmN6F6aIQbwwwYmQ8/qpelDYHn297F1i+Hg3VvbH6Bdt+UdoBS64X0l4AB9NeqtBqh/RQzJ49RUpL9EtirkSSc3TlLEmmp6n8m6U/7NnaaNMllpgpnaNVUqrbi2tnu8FTq/RNyJHbDJQbz9k/K0BzJs2k7pXQhFW6atvmVmcQs0kZvmIfee4/F8p/rzpFlinU45iMOx9ZF1R6MhlRZ0nICl3CsuXQvjKQaXe513CzEelx03RCgiWXNy7Vatq6UXsfJ1B1f7Zm3Byu7EQJsPwRFv6cMQzDMDoeS4WrgAehw/eg4MEyiLj1n34735n+Ct9KBhbhX8m7/BeE+pp2cYqt/Lq3FvXVs6G8WV6YcuEawLyMCFimEWO2B59OU2l4VwGs5QzC4yaFmRjqK3dbB5lHbZOREvl2Rkbuf/IFmTJ1hkTDKjaLCqVv7x7ujVk9u3WXHt26SklhoXQpLZVuWu8iXe7epVRimUopUiEbis+Tkk4FTrBGUjFJOitsWP9SElWxGs6EJJpOuHZKRYokES2VdLha0hVzpXMhA2eYRKtYQrourKk4+ZlKSibFPp0lE45qfP09hVO6Pa7l1m2aVoaYui0VVpGsldGSa166L9ZehGqdmRUBzb1148d3SRzHww8/3PmxA9M74dftz8NgeZp7frdVfF3aez0Mw+g4LBWDsxYEmqOlOumludOv77RalHZg3tjrrrvOWb8vvPBCueSSS5rdvkEfV25O/A0KNyftjTBvtNLypyIFEi/MPvrnLVkQSVarKGWgVlYggrdSM/CGgCuHn0bIW9Bpvz8eL9qUwEjusIsfbLcIolK3Ijzz8TeCDpeMxtXksc5mHQKyeUJ+vqx34lVBv6qkdcv5BPf7Y9lbF9qUm1rvNtSRhatncbfxkqajHDfD6IiYcDVahfpOq4W9GCCCmAqLAVrAhOe8+cyLsqbSDVpcmSj9mmuucfP2tkfhiqij3DxQr41kJKbKMaPCNRmKSjSTkkhGBWagOZjUnXoTaCe+J5PZlziw7OF4NdSOCFH2YTvxyJ91DcE2L+rYJ5iuPy98WhDMOxgX8r97gvsuCfCDHzdunGuLjjQ4qyGWVDsvKTrKcTOMjogJV6PNwyThTJvFnLpcUL766itZc801c1ubxgtXxBcuAp999lmDb95pL/CzZaoqLJn6v7NRsg6XAQ/WaT/4cHET7FYaEwHNjdcQS6L7QpRvtdVW7qUbsDQIV8MwjLZChx+cZbRfeDyNCDjnnHPcSx1g2223rXvNbXPxQgIRgYVsSYid1oBH78giZGtYgxet3pK8pETr0gDnpolSwzCMxY8J11bCi4cgCKaOIppaE9qOwKNs5sq87bbbnEhAiF1++eXzPYpuLsF2b//HIOMEq0PrEmLkfzojs6tETrzkFjngz3+TqZWca7W5SB2XJSEeO6pg5YlEQ/i+q6OFIPQp9fXbhmG0LRZIuNb3w68vtCcYGXzppZe6wRYtiRdXwY5waewU6zs/6gse2owLKO2HiwAzCTCIiLZjerLhw4e7+EuvtYu20hCiDbIWV0mnJBQJyz+f+lrufG+qvPBzRt4fN0O3L7nzjePjQ2M0N15jBNNY3AHyz+X87e2F9lbeloDj5aGfod8JrjMMo+2xQD6uzY3anjrAiy66SK688krno8bo4JamrKxMJk+e7AQZA4K6d+/u1rfVNmrOMV6Qsi/sOfPhhx/KX/7yF/n444/dd17+wCtiR4wYUZdmc8vx8ssvOx9XxC+vrsXHlRdQtEd8a7qaZ1K6EJFa1aejy0RGnP2szJ00VTZeLSYPXnuUdNf1XZzA/WM7tfRxXprgPNp8883ducnvOt/Htb0yd+5cefvtt1398uvS3N9xewTBSv/gRauvu53/htE2WWoHZ2HVY1Q6j6FPPfVU2XPPPeWpp56ab6J7Oq7mdl509nR8+fBq0SlTprhlpiJCfHHR81MRLQ78IW7OoW5ufZt72tAuzYE2J2+OC/OsMlcrFlegXe+991457LDDXL71tXNj+MFZQeHKCyXaK7QogTlW0xKV32pCsuuJV8g3E8PSr0uhPHvPmTK0p4pWFzsL7eaPWXOPcXPjLW10VOHKoMctt9yyzrfc4+vVkc4Hjhv1IVDf8vLyuj4Imtu/GYbRNC2td5Za4Uq1q6ur3ePnMWPGyP777y//+9//6rYBnRgiiU8uVsGmCoonv/3kk092b9c6+uij3brZs2fLsGHDZNasWXUCjgnwJ06cKCUlJe57EEQb+/lA5xrEC2rwZeGT0NCJ4dNaULG3uKEOlPOTTz6R7bbbzlmqKTMW6n/+85/uxoL5R/0FB/xnkPrWjRw5UnbddVe3L8IVv1lvcQ0e0/YCryBIaDWLUtWSDhfLdY++LVfe/5ok0qVy8N7bykarLSMbrtZPhnQNuxe5soc7/TKcC9rO7lRYmPPBt5VmzqL70PSyK5Xfl9pjuzYXL1w5Vzmn/DyunvrOwbYOxwvhusMOO7gb7eDxa+z31t6ZOXOm67OZ2izYvxqG0XZxwpUfb1MEO63GOjC2LamODuHXnAumn8vy8ccflxNPPNGtY0J7ltmGQEI0YX3lIkU9GkuXbVhrjzvuOBk0aJC8++67Lp1u3bq5iwAWPuYO/frrr13n+O233zoB6/HtxEWQfAn5QhlYz5RQ7FtUVOT28/HYVh/E8ekTxy83RE1Njas/8SgPjw+xfDK1Eut69uzpHtsTpyVBeJM+IuCWW25x38n/xRdflI033tjFoe0oi2+X+uqS337E4fEnNyZ8p/xvvvmmmxYLyKehtmurpEMRFa4F0ilTLV9PqpJDzr1Zpia7SWEmLNXJOVIUjUm/7oVyy+WnyVbLRjV+UtIp/dT7IAZspbT50unfLbAN4W+kHO7D3yDpsUmmJRqLSjjKG6+03XkH7VIiXDkveV00v2s47bTTnMuRP49os+CyD4sT+q7GoA78hv3vhED/xHzJ+P0Hj58ve7AOfrv/rTVUP9b79PPT8euCeS0oft+G8m8Mzm8srRtssIGrO3026SzpY2cYHY2g3mkJnHD98ccfc1/rh84hP7RFFqSDQZBhGR07dqz7zqPoDTfcsO5ijUgi8L0paI8LLrjAiVcE5ZNPPukELBd5BB/te8IJJ7hHUqeccoocddRRrrP3kB9p+AuJv5jwPdjW//jHP9wk/IgvHqd37drVdbKEpi5UzTlmlMPX//nnn5cHH3zQWYvp3BG0pIGf7p133tlsH9HmHhPqTHt/+umn7gaCtvICgcew1NFfWHya9aXNOsoZ3Ia/7LHHHuuWeQHBE088IX369HHffVu3JzhzeE3rnHihnHXzC/LdpFpVEIWSzsQlo+dBQUknrb/I0L5F8sif9ZyOxCUW7Sopd8rpcZRYs+qcFalZ9FeveWTbK5VgW0zT099GKK6ruSHSuIEk21ubLgicp3vssYd7UgO4sPBCAi94/Kf/LS8JfBny8b8LP52Xj8fvHvGGX/nrr78+3/Hz+/j47EsbsMw6X0c+WefXe/gds42+i6cf22yzzXx9INsX5nwhH/bzeQJpsq656fFkZ+edd5YPPvjAzVpCfw0+nSWNb3NfP99WbaFshtFcGFTdkjjh2pToAX5AvjMKdkpticbKlf9DZ/JwHknTCQ8cOFDuu+8+Z82bMGGC9OrVyz1axieVjqIhfH50+jxu+uGHH9x3fCoHDx7sxDHCb6+99nKzFtDZ//nPf5arr77axQPfrr4z8uXMrwvlYA7Tjz76yJX5l19+ceVurHxBGmubIJwLPAb98ssv68riBYz/jkvFPvvs45aborn5But/7rnn/j97ZwEgxbH08Vo7w0OABIiHuLu9eF7kxd3diCsh9oiHuBF3e8TdvhAlIe7EiGIJweX8VuarX+/WMmz27vbIKcwf+namp6dterr/U11dLTfeeKPz537K/cgjjziizjmOjjxf3Pn8RowY4aZAAZJWdBP9xNvK1VGgVEFqE3EZ+MA38sDjb0usUy9JJT0pidRK185d3PQn9VOSnCVvDztW1lpxUX3Ri3Q01rYartPjiHipxss8b12yVSuDeUjqqpMybcp06dtvcZEY7U8/FNSff4aOVqdNAfWy3nrrOaJHPWP54sorr8wSMau39lgH5ImPUPo2+iPrP/DnveC9/uOPP7J597cBykoZmali1gLbynxE77DDDq4vhfhxH/fg7Jj+auDAga7fID3igeyzA9782Bq2uCkHHw8cr7jiiq6f4lp9fUMuKAvvyjrrrOMEGNzfHm0fUz5rW4WWLUCABRr6Unj6UhTk2jvy5Vk7yszVudAO1+vbty89s6cdgacdgTvWztzTztzr1KmTp2THheX++pwfSoRcHLiysjKvc+fOLm5zdg2Xe68hX/7NKaH01lprLZc/8vvbb785f39cSqC97777ztPO3J3Xl05DqK6u9lZbbbVsntddd13v6KOP9pZeeuls/ocNG5YJPS9y84ybH5CHG264wYvFYu6ZkOZJJ52Uudp0vPrqq9m89+rVyxs/fnzmSkdFul777jfUC+1wvRfa6S4vvONdXslON3mddrjJK9n2Oq94u+u8Tv++3Bv65OdelQudRiLzO39IeLNrPW/Tw672Ft12iPf8t55XWRP3kv/weXc0UE7eC3tHzjnnnMyVjoGzzz7bO+aYY7yqqrktg77jk08+cf1iQxg9erSn5M6Vm/KXlJR4Svg8/Yj29GM6EyoN4gTXXntt9v3DFRUVuT5SP8LddSW22T6Vuq2trXXH9ANKTl0Y/C0MwH+TTTZx6eN23nln10cCC9eYA9OnT3d9guUhQIAA7R9u/kF/G3UWrj0j35coeebL/OGHH5bDDz9cVl11VbfS33Zi0g7RheFewnHOMYuntON1YfKBcFzXzk523XVX+euvv5w/Ugykliz8Il6LXzt5d+2///2vO8bPXKFgqtziw5E+ef3iiy9k7733dguPKN+AAQPc6uDZs2dn7iwcSByIj/LMnDlTrrrqKmd1oU+fPk4NApD/lgTpoFJxzTXXZCVCd9xxh9x7771Nqi8DdWRS43xtpOMhXYbbzj9WepWkJJKsk0iqTnR0p2FKxMk+Q5IIReXt0RMl7kKnkZbbzA8c59C2LTKztlRmJHvIWUNu1HP8M3Wq339IZZuehrZnFz+HTX++rQ3aIO+igTblfy/bO8jjc889JyuvvLKTFiO15P2gf2os/4S16XTAMe+ofgy6mSXrVwH+qAagRgHsHaR/VNLsVHgAElnUE66//nq3ToDZkVVWWcWp87A4c/jw4X/ri1G9YnqfPhvH/Ui9/fkv5F0nvPXHAQIE6BhwDIQXvDHXUZAv72PHjpUzzzzTTVWNGTPGdah0loABqEuXLm4hFeRs0003lWuvvdZZG6AjtzhyYZ0dHSqLNCwM51yDHG+xxRaOUALCMtVNRzw/hJL4IdMMkMRv5BELBSxeQm/T4mWAYFAwM1yFgjySDnWCusS6664rO+64o6y11lpO99RIZL76aE6QD/IAYWYgIz3SZgEdlhrmFy2d75YEwyrOiGG1ulWX6SFdSiIS8eokqo49YEMppa08Rw2VlJh8+uOfeYmkxZcGRxCDuSHZjAtvqGgaWndeVMqKRfr0XFRikZBMnjVHPvxhglTppWQooWFrNXRCnbtxXpcBsdGKMtFn/qZTcSlp3ue5oYmg7eBaEvaOGDj3u/YO1AQ222wzeeutt5xKELaRsWXNwk/6l4ZgH6+AeOjPrMzfffed254Z8L7SD/GhTpyE4cPaD9QN6Id32WUXp25w9tlnu49TFlPST0OKEQBwTlz2bFFpQP+ej2xLm7AsgLX+F2fPoz4HWrqtBAgQoPnhdFwLeXntRe+IQHIIgcTkCcSHTo6vfhYJDBkyxJFW6uCbb75xulLoqwI6QZMS5AP3EAa9WHTDsBZAZ77nnntm9beIH6kloA7pxO+++2456qijnF9TgCF9FmiR1rHHHuv8kHSsscYajtSiZ4ZJG8qx+uqrO/LaqVMnF66pIJ+Y92IhloHBmoEGfeBDDz3UHdsATl00Vxux9kh8SH55JiyiYNCEoEOmm5JWR9uAwN5G/1vpKd3TTxb9DSk9FPnh9ylywwvfyotvfSOJGk/Ja0LiUU+KarpoiCqJR5ISD5dIOFoqPz10jCjHdZ+pfK75WzS1CMll0ZZIkSSSUZmh3z/PPvuWbLLJOrLciqVSFs7o/SnjfPvjmTLwmvtlXF1YEqE6Wb53SLbfZCW5/OjtpFgqNEhnjb9IibRPKk9B0gkJ2vRQZAwPESKa1DPyFYq48wgmD/go+wdNCTKGfWYkcbQT2pO1qeYAcb744otu0SLx8v6tttpqmavztt/2CGZUyDu67PSFkEQkqXzAIwnFqgB2jnlfcvs/Fp6afjsf5y+88II7pw8E6PbT76D7is1qzNhBIlmsyoJSpKn0GzjuZ+Eq/S1pshiVftmA4GCjjTaSm266yemhkh/WIVh4QP4gyVbnSF3RkS8USIh5fggA/GVtr88uQIAA6bHDvaSNuY4KOjSkAkwlPfnkk65jpnOkk0QKCzE644wznEUBVroicb355pvdvXRkDdUFx3Suyy23nCO/gM4VwgphhNRBKMmDOaSYSBf8foWC+xgojLQCFmixUAsCi9Rk4sSJrryUgbTnFww2w4YNc1JqJCKck1d+WSAGoWUqn4GMwc9fL/8U/rhYTMXzARCR559/vlnTao+gdDhezrByyrAy1YhSPob0afrntCtek21PvVmefOVdrfs6JYIhpZ2dJJrqo4ShRLp36SMx6altMSIJbet/TpjiIqSluRfeB/ywUDBDyvQ3KmEduy+//Qk5//GPZL/LH5NJyeK0qoEGrNZr+152v4ytIpaQEuY6+Wl8pTz+2Bj5vzd+V/q7iPpDQOOYjE1Hro7jWnUVWpbJ02pl7O9TZcKfs6VSuXI8HJW6UNQFTRPo3Bw2Hby3Jg3kvcRx3FyO+GiD9u7SB9QXLp9/WzryRN9H38QxZmrorwB9Fx/iXKd8vOsNgYWn/fr1k/322y/7TjLrAymlbpgtAcR76aWXOjUm6/NIY/Lkye453XXXXXLQQQc5Ky9mpg7Q/2Ba0Egr+WEBLESb/FPvpG/PAdDv0U8Av3+AAAEWIOjLvUBDv8YzR56377770pM5t/nmm7tFSNppu4UC5q+DnrfKKqt4+mWfuat+aGfqHNhmm23c/cS18cYbe/rln72mX/OeEmJvxRVX9JRYujwpeXbOH0d9IC8WTgeFjO/cxQ/4TZo0yS3eIv/aobvFYQ8++KC7Tnq4xtIxVFRUZOuNNHSw8JZddllXPh2gsovZdOBz9XfPPfcUHHdTQNrk4913382mvdlmm7lr/npoDK+99pqrF+7v3bt3x1qcxSN261MqvQov5X39p+f12OAUT7Y52wv/e4gX2W6o/t7gybY3elte/JH3ernnXfrqX17RVhd68u8r1N3mjfhgLBG4JV1Ex2+uc6ieoY3F88674QWv2/ZXe7GtL/AGPvqVd/M7073HRk52i7zWPvlxL7TtUC+2/XXqbvAi21zvdd/qfu/0S57zWBqTdClUEU06Yj3geOQEfUdOvd9bdo9LveX3vMzr8+/B3vZnD/fG6bWpGq5SQ6W82rkZnE/Ye9KSoE3yPtMmceedd948aVoeWjof8wsWZ9EX/vDDD26BU7du3dxiyP/7v//z+vTp48LY+5+Lp59+Oltu3FtvveUWa9Ln8I7R77A49P3333fvG34s3Prjjz/colgWQtm9SkRdWEtLCec8i1yJlzqkH7C+bujQoV6XLl1c3CzKevzxx7PhcUqEvbFj0+2deBt7DlOmTPGULLv+xMI2FD5AgABtj38u3mjn0M7LSQCY2kM6CLTTc7+YQNFOyk0fs1ABEN5sl84PbNEBhvSR8DJ1j/F7pi+RbrCQC9ukLD5gMQN5sfzkg3bYToKEXheG+Zkqt7zhT36ZFsVO2rfffpuVMmB+iyk2Q0Np5AJpMWZiMEm19dZbu6k0JLqk5wfmvqhbpvCbEn+hsPSQtFj8SHdBbl4WJPhHYjev7zb0iUqphGTZxUVuuORoufGcI2TzDdeWpPrxGdGlOCLvjXpXbrn1GenVp0hC4UqJhPUOrTekWoAaTMtK/+4kVSGpWCeZVKUp9VpaqpJhiUeict/jr8o5Q++Xoy+6XW5+bbQ8eO2+suOmq4iXxM5uRGKpsNRF6mT5VZdz8YRJIal5Ik6gpw+98Insc+Ll8uZn42Tc7GKZUFEms0J95J1v/pK9j7tXZlRTOnLmSSqbofkD5W2JtugH7xjvZUun01Lg3WFjD9RnUJf68ccfnZk+pve5Rvnqk7Za/2KgD2C6HX8c91M36KVyTv9EH4u6FDMnhCVuHP5IRy1O9FnRy+ca8SBV5Rr1bPkhXlPRQIJM/+TXnSVtJLkBAgRYcJG/d1qAQOcH2UHxn84OUsYv0910iA888IAjlSj2G5juKoS4+gcuOmEAiaOTXXrppd0OU3SsEFk6VNJBv2zkyJGONJO3xkC8TLmhwsDCh/33398tqjDQwaMigB6vDQBYFUDnzhZKkE+cXc8FaXCNgYOFbCyKYqtaNlUgr+Sd6wxC/ELA2W2GMkKOMcbekkC1g3RxpgPnr/sFFTwtWlUqgoZrTKrrapS8iuz375XkmO1WkoN2XE+6h2pkqS4iyy3iSXG0SD76+FepmlMp3aJh6aJ11KuoTpZZsnc6IkW+WnPphDvLZ38kZJ+zh8k1D74gSXQGlPjGa5SHpmJSkSiT938ul97aZGM106RY27jSFL1PIy6plL4D+s61XpCKOjIN9LtGRo4aJTVVldKlU7GURbQkLCTT60klyj/+US7vfTxWapOaN/2OJjqXoQAtBvpANhpAT/SSSy5x0/O844C+oKF3i3fQgIoBxPXxxx/PElR0XNEfx+4y6gAAu7B8dGPZBRDOFnn59ZBRAyAfRmotL+YA9rcN6OjSH/BhbeB+2wmyoXIECBCg42KBJ650fuhEsXiAzpVOGzJJh4eO1GGHHeYWDpx66qmZO9JS10JAJ0nniEFuJKvER0fMYiJ0MU855RS3qMgkB4SHaGKxAL0uJKWNgXB0+MQNAed+9u43UA70d5EYI1njeJQSBRaK7bPPPi4MeaQebNDh1z8AMVBA1JEGQ1iJHyJMWagvTGtRZ+SBsHwEIAFGt9Z2IGtJKQdSXcPCMBhRQhwvJ/Qw7UJSFiuSsKeDvl4sk3LZa8NF5Z3bzpORd54mL91+smy45vLSv9+Ksvk6/eWOK4bIMbuvL3edd4T0QP1a7/GqK/Qgw2B9oLU/8tYY2eGYy+SjcRWSKO0kJdE6KU6VKMns5IhkTEnIuO+nyviZIhP/nCVeQuMJ64dEsUhVfLZcedNdbtGY453aTiSUfoc8PRxy7uky9Pid5K5Lj5OHrhkoF520h0RTcySh71lVslhqalNS6gToyop51AFxbVGcd955cvHFF7u+xMC7TZ9AP9EQrN/gXvojFkOZzimOxVgsgmXRFX2TpcF9pGEwwsoMFeA6+qwAf0ix6draO89GIswkGdiJCx1X+jwD8TTVmkqAAAE6FhZ44kpHRsdKR8lUGNJPdr2xTpPrkDYkjUgB6FwhSqwybQyQNUgb+3vToUJM6bzZVhQpAKSYlboQYdLDsgGSXiSodLaFmMViKo+FCywkY7tVBgKktoCBg84dM1ssyrJOnSk0I9WAMnKMH1JV8zMwWFEX1BNhyDukFzKPugPTikhfiYP0UVegPtmaFXM3qGFQry0B0vQPViapWXiQprDpJ5k+jivBK5eu0i1cLGsuEZXeZSJ9lF/ePHhnOf6QTeWWR9+WCx58Um56/XPZb8h9st4hw+Slr2dKVayzpGorHC/0O6jKyO9/lvLqUulSFpOl+5dJJFScTbVICXMymZCfxv4qe5x0u3w3qU5CkRIpTVVKWWKaRGPFshUfNho2nKxWzkq7Tk/7h9X1UeJ8xF6byf4b9JDt1+gm22yygpQVd9PiaDwaNpwsT+eD5OZyqQAtBD4+rT/IBf4NwfoNC4c1AvzoMzGbx4p+TFUZ2PUOiexjjz3mVLUIA8iDOYP1IeQL0muLxgzsSOjvt+oDxBmQR3MBAgRYcLDAE1eIFp0n0+aoA7AK36QLEEqmuSG0nEPGrDPHpFRDICyr/O+//353Dx03JBISaESLbQ25hh9SVsxIYacQ49lIaSGAjUk4kKQicWVV7gorrOCIMVJcdE6xN8s0HAQaCSlAEgr80g06bvR2kZxiW9ZMyRgYPDD2zcCBCgPqARBSjP5jUYC8Yg3ByoIuLXVJvqg3/CDYLQU/cUWqXMjgtSAiPQjD7bStyUz38lYo0ftsusgeFz4pOx11gwy6cJg89syH8v23kyRSF5Zar1R+nBmRg84aKmOmxCVcrORVaSI1aI54Bh+8ndx4wm7y6s1nyiNXHSvLLKpsOJWWmsYTSpWVRCRCMfljjrb9oh5Sq8fkJebVynUn7yXnH7iBQDO8cKnURrtJjdJYhKdYnQ1JnaPbGpGU6j2jPvlRKmr1A8pLyKKdPendIyqJVJWT/CJ0zfDlAC0Mfx9RKOh/gPWTgHbJzAwr+ukL+JCl36U/xDQgH8FYHmAbbfRR/WTViCXu888/d3683+QNVSuOzTGrZeC6qSLkwkxzBQgQYMHEAk9c6UjpLNEDRTpqpNWAjU9IHVJK68itE4XY+sP68eqrrzqD24C4sWsK/GoGSB5sMRGE8ZNPPnF+5Im06NQZABpKxw8GDQgz90O4me6DBJN/ux8j4vmAxANpLxsJcE8uGEyYdkNvFR1WFo/ttNNOLm/33Xefyy/+pIMfaZMXBo9nn33WSZa5Zq65wLPAdqPBzIstTODTZu7nDZZc+Vsidz73pWx+yOWy+0mXyogvx8uEqpjUKaGs9SAXEUnMmSqxVKWjjjXRrjL8pbdlTl1mhycoK/Wo/xFyLt8pJQN3X0NW6yvyyajvZdy02e4+Bw2TSnEH59plhLDhGpFqZZkbb/lv2W3bFZRIazyJOgl5bvsBR1rTb0JCQ9WqmyVV8VoZNaZWrr/nOYmH64hUFinzZO3VlpLScFTDexqvJhcQ13YLPn75eDQVAN5PSCu67khTUR2ymST6Nr99W0B4+q984OOf64A2isTV+hPi4gPWyCqLvfiAxlwfqg9+6Wx9fWCAAAEWDCzwxBVCRkdpX/lMiZvUgE4SYgkpGzp0qJuKN39IXj6CRFz4Q4b5JV4klMBIq+lkMt1lx0got9pqK+cHSBdJMDqlSG790oT6QL5Jg06c8MRNHpDAGurrtC1vgKk0UxmoD5SLDQgAaggsCrPVvDjqgcGL8qAqgX1ZfxrNBdKyOgT2cbEwgNbHEE+t8ptujRDIsJRLqTzw2ufy7bSUzIqXSFgJq0Q0VDgpJV1Qp6iTLbbcSFbu20mkYprUJZIyeXaNeEVaf15Yg+o74WGTIIOYxqG3PfHi53LeVQ/I7GSRxOEmobiURaqkR2SOdCXVCKu19GNMn3UqViqvj/xMdjloiDz9zg9SFy1yhLZIM8pTMt1cy/n0ok5y6tCHZcIcJS8RT2Kajyv+e6b07dpZiS7vhaPT7pnbPQHaF9i8g77L3nX6CTZZYUMV3k0+MulbrM81ay0GI6b0YcAIMOBa+tmn+yvIKH44wqEmZP0ntrNZhHrggQe6rbwh0xYW8mzxBAgQYMHDAk9cgZFWOjO/xI5fJIVMhR9xxBFOKgrodJkyZ0tC9FFZZc92o1ggoNPmOru3cI1j9uNmVxjrzO2XfcDZTtHSN4kpoINlEQHTWu+8846b9q+vsyUscdBxcwwsTvRf/SQUkkeeTNILOEYdwu4ljH9P8frArjXED3GFmBIvebR8GqGE0EJsWcDFYrKWAHk3B8jLgg5qmeEdR4tyta51Dxnsqof77LqZxJCLpnSAT+rAHtdQqU4SqUlKNFwskeIeMq22UkKdMNYekWmzamXUF5MlRURxjdVLy1TTNRmSb7VJXHr/CCkPdddEtU2VerLqqovLozecJF8+cb48OvQ46RWeqdy4ypFXtpotqkvIj3O6yRHXj5CNT35cnvqiBmtYzvpBkceWBjHNb1epquslh577jPwwpUKvazvS/A485lhZb4Vit31tnXTWjIQc4dWn7P52VOS21QUJbAVt5eLjHdUnTGnxPuKPRJRf+gg2dWEmy4A/u2UBSCn9pN+UFSb9DIRl3YEfSHsN9DkG4kDPnz6RdOmvLI+NgXsIa7/mAgQI0H6xUBBX64j4EmdhE1sRGtiVZdlll3WqAbYNKF/3dGRsLQpZZZX9ZZdd5sgtuqZcp+Nl+1X0t/zTVFyDrAL8WdgE6SUPRvQgoEh30bfFAgEE8djMblgNkVebjgf8QkaZzrd4CQPhxhwMfkhi//zzz+ziKruXcI0RP6blUGtAXw2yzS476NgaIPkMLJQfSQvkmVXBLNgqxFpCISC/5gz+44UBtFwcpXZS1xASqpQUS61su8FKskgniAILodjljcAhqUskXPjX33pXJs1RMlvcVRKRzvL6Zz/L/ufcLOsddYu8+VtC6iJFLmJMV1Urj33/i59kVlWFRItC0nuRUjl5l3XlhesPkH+t1En6Kq8sjWFr05NYOCqRmCfFqdnSfxHNTaJO0wzLV79NkSMGXy0X3PORfD9TuW0oJnVKbNG+HvTkt/LOR19JXW2dxKJFSn5jrr3seszTstPRj8juJ9wjZ1zzpHw5oVrqtBwL/mdJxwS6+iwsZXqeD24WoBroVyCqqBsB/0yQAfUo+j9IK6oFRmQBi0HN5jD9L4SUOHGcY6Vl+eWXd/4WDtA3YRPbgFTWhAeNwfqTha1fCRCgI2OBJ65G0NADZZ/szTbbzNlTNWA6auONN3ZkE70pQKdnztQK6NiQJtiKVUAHDLFFfxT9UDpYTGuZzVjSRv/LvuYtruuuu84RaPRNsUvIAED61knXB1NlIE7ih1giQfarOEDAIeMMMEiFsbfKXuIs5jJgE9Y/YPiBJJYNE8gPEmWm/iCmSDj8i7ooG3Gw4AxpMXVh8C+mam6QLq6helpQQAmhqbSatCRSpFbH1zo9q01FpVNPHbQXXUy5Z0i8VNrWLsNvaWlJWjof1vak5171bL2JxU8xKY/1ku9nReXEIdfL5CoR5ZsuTGmoQnZYfwnZapXOst/GfeSZ60+Ui474l3TTa9G69KD+woj3pLauVEIp/XBT4rz39uvL7VeeLN1llhSH6yQciUlNUXe57Zl35KBBt8jYaSxYjLq8v/3ZD9rbxDR/ntTVpKd7v/3hO/lm7Hj5avwk+fTXSfLie6PlnEtu07JpnuEduCyDJQ8BuWgNuHaU4wz0iXy0Yv8VPXhA/2aOj+u7777bzb7wsW8kEgf40MYONdZKWF9gfSOOeC+44AJHaPn4ZaMWPyCoLCBlrQA6/qgbEC/548McAQTAAotfBaEh5CtjgAAB2jdC+sIuFG8s6gAQMjpII7OGhkiQdaqQNMgpurCmUuAHHShTVP3793fHtogAIrnJJptkdbMgkuz+YvpbTQEdPSQUMonNVTp/SCWLITj3G+f2w9KB8DL1z45YfqLpBzpskFaaBYMPUmUGBRZg2eAD2Hcc8u0vJwslmLJDMuKfIpxf2IDCamV23QHs9kNemqLrSr1xH88daQ1lNOl6+4aRNVxYeVxIUDT5+c8q+WTMRLn3+Y/km19mSCIZlYgS13CI5U0h95xSHm08JcXRuEST1co+i6Q62lXiyWL1rpPVetbJGw8OlkW0GqMafSg0QyqSZRKPpNsFcwhlGk9dKCIxJbcT5niy/3l3y+jv6pTsetKpaKY8cstZssnyZfLh6Jly0iV3yvjKqJJqzGhpXlLl8tyVR8tOa/d1qgBHXPGMvPLez1KbTOuca4owHs2h5h1KHaqTMi3dYqWevP/0JdJFL0coNk03+3ltHm0L6pePPwgU7RPpIyStqe9zewPvMO8J1kRyYWWj7HyA28cjDgIJAQWcc0y9EIZfu5djA36QSwsDLI50+0iH999rx/Zr4QD38nHN7BB9j8VlyD03cA/9FZZZmtKnBAgQoO2w0BBXOlxMPCFV9ROwXCAxYCUs0/foXEHi2FnGrw6Q24HmA505HSEDAVNrpnPK4ED8RviaAqb/IV2spsXUFuTTP4CwzSyklM7b/CyPdM5Ieil7Yx308OHD3ZQc9m4JTxO5/PLL3eBsdceuNUiKGRDMuoANDv5B5p+AeHB+4orE5rnnnltIiGuafGotuNX68VCxDHvk/+S6B16QqZF+Uler9V3WSYlnXEpSVVKmLqX1ThteYcUVZNWVVpBlFu8sMYhrJCbfTZghH4z+VbpH6uTGCw6TZbqldVFBWCrEC3WWGdoblOmj81JxKdPjOFJSPR8zW5/5oVdJXbmSglC1rLtyNxk+7HDpq6QzodTzs/GeHDnoKhk/E7WViHQqq5P7hhwl26+1hFJTT2YkQjJ42BvyzCtvS3U1CyS1/Yf0GbJbVsjTMtRJNFEhxxyymww+Zvu0lQKXs/YH3oEFmbj69eMNVjbKbsQV8M4bccUPR79kH+qEJT7eV+4lHH5cN+IK+CUe+lnqlHs4RgWJ8Ja+X5Jq9wK7Trz0RVwjLHEC65sMdo2wLNiFwPrjDhAgQPvFQkNcDRSXTorpbOuE6dToJLEbaJ1XbrVYx4i/XcvtDHPBdBpmo+hEuZ/pLab3Sauxe+cXdMbouFJGjpleg6zNjzTBXwccY9uWxRhIbtFHg9BTLgtnddRcsLpeeInrXOoa9aq0gjvJUVc+JY+986dIZReJFFVL3yVKZYWV+8hayy8iOy4VdXrTSJxiRSyKSt8fzjxGno5txeqelP9x2aPmN3Mc1wiiodlSrdTzj0Qn+c8xd8hff4UlUjtVTjhoWznlsA2lJ8YMpFbpa7FMrhD58LPf5I+Js2S1lUTWWWMV6aTPKRpKShLJrcZTUVsnFdo2+QiDkPM/pc+YfMU0LJt3RIqimveUOvV3mWyZd2V+saASVz/snTYsSGXLB8q7oJcxQIAFBQsVcTUC2VAHVV91+O+xMI11dEgt0YlFAsZCKiQaEMmWIq0tBSsvv/68Qz78BLK5O37SI87rr7/eWWgAEFcsHDSlDjs6cUXGHUvFHZX7eGK5DH9upKzVqZesu8FqsuIqXcSt11KSV5xhovEUC6hC7l6cn6zOQ1wBB/4mz7E656XXQuE5zjZstZTKS5/MkkceeFzWGLCEDDpxJ+mqjz7mIk2ng6y1Wg+K9dEwP8ETqk7USjSiAfU5RtQn31MjLVfORDL94Ui6eq6fROo4al+AuKIrz2YftNGAuAYIECBA66Hw0b+DwzrifB0w1/zX8zk/8vnlwzXXXONIKw79T6RJEK7cQaElQBoMsLh/CiuvnywSv3/KsCVgdWzTfYDy4D8/6ZJn7us4TjOtLswjTFH3nqy+ZHe55ORd5bCDN5Y1VuoiRcmEROM1UqTENpGo0zJqeOqHW/Q4lUxl20FCiWGCX871mGuphLb9ZNpxA3WEg+CGPHRm+TAJuQViu2/QXZ687TgZctpO0lmzE0poKvqfhVTkNaS/ZamEFEmdJLwaSSiVjWibSaeTlHgyLnENHNfAdZpenfrXqj82ZpMalz1vz9M8pzJ51Wff3hzvAb/UUzq/6d8FCfbOmwsQIECA9oKFRuLqBuM26IAxwYWU1Y/Wyos92pZIK1+zaakysTMZq40BliHYtQxiV6jU1SSukDf075hKR1LcIZq+l65TlmYp1dR/SgS9sCOWEa3vlIeck/YUcZJL/bzgQUgIwujI79zFL8RkT8gRU8JlzoE9P3ypWRZZxaNKNNUbYlsaiumxxhfSuJXwoiSQ8qISiRTpHUkl2DXOIWB194RjSvDSudJMELVei7r4PS1XOl8QZdJ2l/WXlNN6vVwwCXF7AvlGHYdf2hS65eiAt8Y7HSBAgAALOxY6HdfWhH+hAIOa/ZpradijbYm08jWblioTtnNZWAewrYtdWtIvND0jroDnwUI1zIi1xjP4Z3ByU6V5/IbFQ+qq1Z6hdYhWtU1xlFnJ7cIqqeWfu5YmrlloUCtxmrhyPrcOsvWhP8QW9ZJSGxFJauBwMiGd9UJFVONUAptIQJRj+hzC+hEgEk0lJJKMSzihv9GwuH2wIhGJJ0lfI3QZ9nzEVc8ybcj/LJEWG2nlX3skrqgzsA2yGchHjeXKK6+cLz3yAAECBAjQNATENUC7hREaFrmxrSRAx9W/gUQh8Ou4oq6BHV/MloGOQV5RlUhP2cPpjM3xl320GkPjIXLgoudPUjxHJIlD86EkOc2dqbNMfjJIL6TSMHQnSmaVObvLPtrcIIhpbmztH9hIRlcaDBo0yM0KBKvSAwQIEKDl0eQxLUCA1oKRSv+3FX7z+63FfUgm2z9Z9YNXFA1TGKPmO5t1JKu4FgIRZyOHvCopC5MPrBWwzCqdM3Npya0eQVjxWMDhV1PpWO0pQIAAATo2FoIhJkBHB7YcIQo4s+m4cE0UZIiR++HPXKJkZw25JsPdpH88pKoRPUr/w2/ubzqYuXmhPhlPf5jGXIAAAQIECNAYAuIaoN3jr7/+yuprdu3a9e+6mwsd5qV5uQQw180vqOH050E6psI+FeZN1c4acwECBAgQIEAhCIhrgHYPttI1LLroou43mJ5tWWCBq06rGJsFzhoXv24bWYhmfXSzPv8AAQIECBCgeRAQ1wDtHr///nvmSGTxxRd3v34dwwDNB1QwWApWqe6OJ9+Vs64ZLi9++KtU6Hk4hE7twqSiUT/4cLKPp46nNx0gQIAAHRfB6B+g3cL0WFEVAJCDZZZZxh0HaAFodYe8kMRrRR554iO5+I675eGPR8vx19whU5TNpuWtC7OKRoAAAQIEaGsExDVAuwYbOFRVVWXORBZbbDH3u3DruLYcqNZwVKSiYqYUFXeXqroiqa6NyawZIhGq3NmNDeo+QIAAAQK0DQLiGqDdAgnrlClTstOwGHjHDisIVAVaAFrNkNZoRGTfPbeXNZfpK0sUJWT/rTaU5XrqZfgqJrmcJDxQGQgQIECAAK2PYPQP0K4xe/bsrP1VTGGx81VAWlsQykcxo9+3e1geun6wvHX3eTLsrN2kB9eo9pBedduyBjqdAQIECBCg9REwgADtGjNmzHASVxzbtBYXF2euNAzIbq4DFpe5ADnIVAnktbdW9VI99GMB2wIRrT96C9djBPUWIECAAAHaBgFxDdCuYRLXZDIppaWlTuIaoOWR3sIVGwLp3bIgq4GCQIAAAQIEaGsExPUfAEKVSGA8KEBLgPqdPn26O0Y62qVLl4IlrgGaDiOmKfcvqf+0ffvWYSFnDWStAQIECBCgLREQ138AyBQLhkBNTY37/fzzz+Woo46SqVOnuvMA8494PC4zZ8509QyJhbSi5xqgZeFpt1AnUfnujzly00NvyoffV+q5ge0IAgQIECBAgLZBQFwLAKTJ7wx1dXUyadIk51dSUiLTpk2TnXbaSe677z758ccfXRh/+NZAbh6B+bV2Xv4pIKmmKgA6deoUSFxbECZRpbbZgGC/06+VSx8dJXufeZ2M/LFGatUvbQqrY7WjAAECBAiw4CAgrnnw7bffyjrrrOOM3Y8ePXoe0udf0HPRRRfJUkstJc8++6w7f/LJJ535pq233lr+9a9/OT+zN9paxJH8+fMILO1c195BObDjaseYwgosCrQsaK/MIZRPF5k1vVYqE1EpT4bkD/0oS7cY/rb/thMgQIAAARZMBCwgD0455RT56quv5I8//nBT1X6SZ8f8QlT5feedd9zioYcfftgtHjryyCPl3XfflZdeeikbtrUA8SAvwJ9XQ2vmpTlgxJV89+rVyx0HaDlQz7SQvj1Fjtxtc+mVmiT/WqWn7LZZf4mmUIehbXWsNhQgQIAAARYcBMQ1AyN0SFjffvttJ9mDgG6++eYSiWAcKDOoZ8IR5pdffnGLs1jt/swzz8hHH33k7jv55JNl++23l1133VVuv/12Fx7kSkILAUT0rbfekscff1weeOABueOOO+T666938UKq84H83njjjbLPPvvItdde6/Jo+bY82C96pP5yASO+Bv8uVbYYze/XUiCt8vLyrJTVds0K0HKg7dAykLqef/IuMur5W+T+a0+QIm0e0TBXeBea3o4DBAgQIECA5kBAXDMwIgfRAxC5zTbbLEvquG4OsvfQQw+5cGCVVVaRU0891YXjGlLC2tpaR7jGjh2bvW9+8PHHH8s222wj+++/vyPSJ5xwgpxzzjnu9+ijj86EmgvS4Z6zzjrLSXzPO+88+eyzz7LXcoEeqflDFNHbhbz4iSzl4Py1116TP//8s1VIKyAdiKshkLi2HjCHVaLNon93ke7KYotCvAd0FwFxDRAgQIAAbYeAuPpQXV0tX3zxhSNukDXTU/UDAodEEhIHOnfuLN26dZO//vrLLRzq2rWr9OvXz91POBZr/ROYukGPHj2cBQPSN6mnWTLwAxKKdJa0Ic8Q6QsvvDArtTQYMa2oqHBE96qrrnIE+cADD3R+uSQXCfOOO+4oq666qlx33XV/i68lQBpz5szJEuWePXu63wAtA5QE+McRLiQJ5/BLchSKSkqJK1cCBAgQIECAtkBAXH1AmvjTTz85Urf88ss7AsqxkTwAiRo0aJBbhAUGDhwoyy67rAu73HLLydChQx0BhnRxjnmsESNGZHU1AdeRbBaC9957z/2yoh4LBq+//rpbFHb++efLI4884q7l4v/+7//cr5FLdHB///13ZxMVSe2///1vt/isT58+jhBvvPHGcskll8jIkSPl+eeflw8++MDd5wckfv3113eklvKjslBVVZW52jKAPENcDb17984cBWgJsOEA/9LHKXcUVqKK8gBy1nDmmlHbAAECBAgQoLUREFcfnnrqKUcoIae77LJLXqkiZq4gbZAqJKD77befUxVAwgk5PO644xxBRCo6fvx4N62PpHL48OHufuK3Pfc59pPiXEBwJ0+e7MJWVlY6ieN2220nQ4YMkcsuu8xJev33I2F9+eWX5fvvv3fnXDPJ6YcffuisJZD3N954wy0+w9Ys+aYcpAWQGA8YMMAdG4iXeG655RZ3Tvhzzz1Xfv3114IJ+PyA+scclqF79+6ZowAtC3bJQss1KhFP23lKj7SZ8TbQmtItKkCAAAECBGh9BMTVh+eeey5zJG7a3E8KIaKQNywJQPYgtyzKgjxCLiFYELzVVlstuymBLXwi/Jdffun8ALqqa665piPBxEkYf1oGSCFSTeIhblMRMEDsjJja/Uh8bTGZXQOoQGy55ZYyePBgWXvttaVv374u/4RB3WGvvfZyUleks/37989OzwNUICjThhtuKEcccYRLC91TrC/gny/vzQHyhoTXAKkO0DowguphtzWszzeUVhCY26ICBAgQIECA1kdAXDNgSpppfcggRA5VAT/xQ0rKKn6kjkbqIJSoF0AuIYsQPNQGckE8a6yxhiOikL3HHntMvvnmGyeRbUhiSfwG0iQtpLpM5x9++OFu4RVk1kg1C8EoA0QS6ewSSyyRuVtcWuDKK690JBZTX0ZQIdGPPvqo04VdffXVXVnzSZsh4MOGDXNpUV7UGFBd4NzIfHOCOP11EBDX1gLPkS1fRWZoF/FnIiTVSlnjHs8irkeBlmuAAAECBGgbBMQ1gzFjxrhfyBdT0khSc8nb2WefPY8JKhZHMf2Ofuuiiy7qSNYLL7zgiKT/XogwOqXokP7vf/9z4ZDMbrHFFk4NIBcmwUQ9wKSsEFxIJcR49913d/qtkNB77703K+H9+uuvXdzcDxmFLAOIJUSVOLhmcSLFBTNmzCh4R6qysrIsCYdYYrsW2IK25gTxA+qIMjRFVYDw5ixf5JFzk0gHqA9KS72wfPTtn7LtIZfKDkdfK19NEYmG2G4XF9BWa5vA38YCBAgQIEDLIqRExqvPHqiBjjnfb0cF5NTIoQEp5vHHH++IHzqer776qjO/ZGWljrbddtsswTWcdtppTt+Ulfx2v4HBDJUDpJmQXIgqUlGm6JFUrrzyyi4c28UCS4u8QQxZjMU9bCVLXOSbMEhEjXRiz/Wggw5y5HXfffd1Oq7gzDPPdFJW9Ha5F9UAVBMYcI244ceisSWXXNIRcNLNrRdg+SJ97mWBF8SZeNdaay23GMxIoR+cm2sMRqb9QAWDOiId4oB8Q7A5bwx+YoFOL7rI3IckmsVylNnyVWgeFxawd1ZtqFROveh2efGrPyQVDcvNQ46X3dfsLsXJSnfdc0u2qDdt56H0sq2FpQ55N9kdz9R/MIXHbAXvpcHaVNC2AvxTWL8ctKUAHRUIvJoTjriyUGdhB5LQG264wREeJJv33HOPI4NGkiCee+65p5uuZ4odUglYxMWCrAMOOGAeywHACCJhkJSycQB+m266qdx6661/I4rWMZkfFg6OOuoop0/KoAgxJV3OkULuvPPOjkxDfEkbkusngPiTb+IkPCoCnBvJRGeVc1QKkBSTbr6O0fzs+oMPPujqCiAFxVQW8edKoew3X5yFgPLvscce7phnwQYP/BYSnz9ddjFjUwjyjxUFPiQgrsBf/ws9UkVaIfocpVhqwp3kwpvvlE8mTBEvXCf333Ce9K6bKGVeUjsNiOvcjwdUYBcm0GZ4L5nh4GMOnfUTTzyxoA+qAAGaAuvDrD/LJ3QJEKC9AwFXc8IRV8jLwgwIFwuTIJYQPwgddlqRjBr5BEz1f/fdd67zQKLJL8QKiesmm2ySJa6QOMgvRJFOhnPisZX7SCyvueaaLIEkHuDvpABSUCS2LPyCuPKBYZJC7iWv9ovuLTqvXGMA9ZNIznFILDGrxTXCQeI4ZkcqJMHEY2oHflh+KAt5RUeXwRpAjiHTlNEvcQL+DtZ/XCjYxWyDDTbI1iH1SzksP43BwvEs2cWMexdZZBH55JNPHFmfnzy1BchlYSX+h/D0+WlitMaEJvj9xFny4lsjZcCAZWTHLVaXkrpqidEGPJ+Wq/4sbMQVYELOPvjZ7IP+o9B2GSBAU0A/hbP2FbSzAB0NNqvcbNAXYqFHXV2dN3jwYE+JDUOwt8UWW3hK4jwlaZkQ8+LKK6/0lDC6sAcddJD35Zdfunu1Q/GUGLrrnTt3duc4rtl1JWDuvkGDBnnxeNyrra3NxPp3KHHzunTp4sIrKfS+//57T4lmNm+WP/w23XRTFw6nxNjbb7/9PCWmnjYYT8moS5v4AOWdMWNGNl9K0F1e8G8MlZWV3r333ptNi/vLy8vd/fXB8tpU980332TrrFu3bq6cuHxhc50fSlzd8yKvvXv39pTAZ650DORvhS0JUtQ25mld22nS53yHrZ+39oH111/ftU3egXPPPde1ywABAgQI0PII5rYUOgC5X62PrESPY/PPxcSJE7MSTaSALJBSsuSkn6gEMKXNwiriwAF+kRoSJ+GuvvpqZws1n4TTQJz++9GtI3/cTzyWP3RgsakK0Mtl0RaqD+STe5Ckcg8SXIBklAVZFgd6uYTJlZjmA7oqTzzxRDZtFqZRhobKMb+wslMPCyu0Bbm/adda4NlqG9PuIeSegTq86C3UtWZO2it4n6x9AnsfAgQIECBAy2KhJ64MPkbgOGZAYuGTf5FVLmzHKEgkxv4hroA4UCGwxUoGi5t42X2Ka9x77bXXOh1V/+5QfnCPf3CEhOaC60yps+UsOOyww6RLly4uTVQdsF4AIH/jxo1zxwD7qBY/pBWi3Rh+/vlnZx2B8nEfRHerrbZyhLwhWP021fnh9/OHqc/lA3VAHfqfTXtHyG22iipPtUiy1s3jp/6+jq1lQDVSl86lvQCHGQ7r915oQNv3tzF7j8wFCBAgQICWg9NxzRwvdLCiQ2huvPFGp6vGgITOJ/qpbDEKwcwF+p3333+/I0DYFoWMsnKdRVpslwqZrY/4orOKfuUDDzzg4oZcsqsVOrG5QIdus802c6SStN588023AMsPysCmACyYIq4ffvhBllpqqcxVcduzok/LanxsyCLpRVpM3Outt54LQz7Q02WXr3zlNbBVLAuxILqAsrNAxZ9efaRxfkDcKHVbPSMl5lk1lMd8gGj/5z//yd6LOS/INnXXnPltCXiaPc2lxEMxzX9EImEl3Ukl36G4RFpI9qnUn0QzJxwoIUufuPxw0r5rreVB2+RDlDbEph6XX355ti219zYVIECAAB0ZTWMACygYaDbaaCP3y0DEYiOm2+sjSP5NBvbZZx95+umnZdSoUXLddde56Xk/acUeLHZXAWTp448/liuuuEKOOeYYWWmllRwZZLo9F5AsCJsNgpDNfIvoyC+7XQGIKIuPDOTj2GOPdVJSyBqEm3i5x2+eAj8zuZUPphYxZcoUpxJAONJ6//33Xd6JryPA8knZWaRmDju77dJ1UlemedTjROni8sO0Ypkc7yvlyUU032WuHPPr/OXPdWXE3Tkdpsy5znqM0+uan86ZcAuz4z0o1PZxgAABAgRoRuhgvlBDSVt2Mc+OO+6YFi9l3GOPPeb8/UgkEu73wAMP9LbbbjtPyRxWGbKLhsaMGeP179/fLQQijpVXXjm7IAvHYqlZs2a5eFiYZWnnw4QJEzwlhtl7P/zww8yVebHqqqu69JQ4Z3zmhb+MpEteycOSSy7pFn1x76+//upVVVW5MPVBCbK3+OKLe2eddVZ2MZaVuyXw1VdfuXIrgXcLzQDpNRW2OIu4FltsMW/y5MkuHst7+3Wav2R6wdz/Pp3hdd7iIq/bZkO9A04f7hbSpR2L6tTF9djvstfnOp4Zz9/aQODmz1GPG2+8cfa9tMVZ9twCBAgQIEDLIZC4+nD33XfL0ksvndWBRIKqA9I8EkW7hi1QNhFgMZRJXgjHIinMTukA5qbelVQ6vUqTVDK9iBQVZ4u16gP2YjH0f8EFFzip7rrrrpu5Mi+GDh3qjKAfeuihGZ954U/DpLhMvTOFjhoBdk6Z7kfVoCGgtoDZLO6hPEqAnH9DZWhPoP6RQvM8eFbt3YW8lLqYzKnQZ3zLU1JbtrhURktkhz13k2gsKjGcPodoLKLPIyyRKL8R54f+ca7jmfH8cdRF4Obf0S/Q7jm2+gwQIECAAC2Phb63ZfDBQRTYSeqmm25yhJLBCDunjkA0QswsDA67ozj0Sc8//3xnOQByC8mDzLIYi6lGjo2g1AeubbnllnLppZe6zQ8gHvnARgTYoGVXqPqQWwbOUVWA8EJIKW9DIC+EoW4M5KexumlPoM4hGDwLIyDtx0GCINdpMsQvHpVJkeuf+kR+/Gu2eFIly/dNyfablKb1UBH4har0b52zvcrrrHfrb8d5Jh0RPB/eBdo+bQoSy2+AAAECBGh5BGKCDBiEcBiqZ0vQu+66K7sACzREMP3kDR1TdD/ZWYrV/WuvvbbTa8WCwG233eYktcTZGFEEuaQw9zwXjV03FBrOj/rumZ+45gfNkU5r5XV+wAIszaHjouk/uLBMqRV5eMQYqUuVSCJeLltvsqKU6VtbK5VSI3FJCrrKxaItKniZWxEQVSOrtKv23LYCBAgQYEFCMNblAVuyspAJCSwDEqS10IGJsEhk+GVKmvuYhsdMFlYHkL7mqh8EaByQhKY8h46ILHlNJfW/54xgDX/pM5k4ZaZEioukpLhYuvRaQh7+v6/kqofelUsfGiWPfThOpiZFKWyAtkLwLgcIECBA6yEgrgWgELJkYewX8opeIcDPSNeCTr6aE35ptxHXBR40DXXKW2VGncjtD/9Pz2dLqG6aJJSd3vnoWzLoulflyoe+lyuGj5HDLxkudz4/On1vE+B51OdcdZWWd62ZVsu6dP3N2xZzzwMECBAgQMsgIK4tgMaIKdcD8to4/Dq9thjmn4D7+aCw+m9PzwDaw8RzhhZJCD1K/e7p1ncxqSvzJBHR8nthSVRGJBQvlVREWW04KonamLzy0nvSpD0JNCG38Ct9kNGP/TucCdd/BCJIu+wOXAECtEP4P0yCj5AAAdo3AuLajPATIj8xyufvdwHywxaCIW1lQRUDyoJaX5QKlx4yQxIJh6Srejx/1yDZdu1lJZZMSDgVlRovKtWxiKz/r/WVzVdLjE0nplfL57PdjX+Hi5A/Sk+VrLrDEIQ1ri6qdZqUiNZprbqZ1RXpNgmpzehvNgSi0iei0TKTkH4uoVC1utkaR6W6hCsT5fHcc9PfglyAAG2DgLQGCND+sVDvnBWgfWP8+PHZXbmQvmJKDIlpU2E7Z9HU0TFmsZx/t6/2gDQJTCOshM9TUsm2D+XqrnlmtNxx76tSk+gsSfzDNbJIr4hMnVjlyGc4FpfBx+0ml+++ort/HqQ0ViWqSYlLnXLHlMT0pY+I1qZE1DfsxaQqEZOTb3lNpk0cI1ecc5yssFiJFHlo2BY5Ipkfc7uNUCrzTEKa41BClMcqopqOkmB3QUOH0Pv231U/0vS1/QJyv+GGG8onn3zizrEcws5z9lHVUT+uMOM3bNgwN7vR2rBhqDWHIz6I3YeaOnYUZE2CmTbsqM8wQICFAQFxDdBuwRavZuILwlpRUdGordl88BNXtvGFuC655JKZq+0D/pcw5ChrekNXpaZyzn2fy/0Pvy6pWFeJh5WEhio1UK1ITZlTF5BwrRy08zryyCn/5nYfiIFlW0UySw8//vZPmVkel/VXX0p6dRHp6sKI/DS2QtY+/n7pFi2XUw7YQk45aFMpk2q9UqKDe3rq9O8fDOkcp1UAWGyo+Y1E3IKyqXNEZlZUyYDFy6TMQ8XDk4QSbKhAIXQgraKQjp87TAZrPm0NSM2CSFy//PJL2W677ZwJvtaGv85auv5oz+b4GGa77tmzZ89j6q+jPsMAARYGBMQ1QLsFEhEkIKgJMJB8//33zvZsU9ERiKuBlzFN1NJ/H3ruXRl853tSUVsmVcz0F8fFc8Q1LLHwIuoRlniiQjZcqat8dPMJROED0/0VUqsU9Y2vKuXk/94hMys9OfuY7eTY/deUbnqV5YNVym2XP/BhmfnnGBnQMyWfvnCF8zeqigSuPkk3xLVO/yXCJY4iv/v1bDn3kuukNpSUa884RHZef3mJRjRMOKZUnFI1DkvJOqasrm074hILInH94osvZMcdd5TJkydnfBZ8TJ06VdZaay2ZMGGCa+M2HAbENUCA9ov8o1GAAO0ADCSLL764O2ZAgbgu6MhQH1dejiORIuWfxeKlMHqvPkoIQ1GRZZdbWmlpXBJJJfXhkCTr0Uklljr9/XbCz/Jn3UyZFUvIB6N/kTc+n+jUEJDtJjW+unCVpLosKj+X95ANDntS9h38hrz+5ntE0eAgntJrkNYZejx0+Gdy0OBb5fvKPvJnvKt8PHoMBeBBNplzGoFwpXI6uRwZgw3QUqjvA2V+YM+wOdCccTUE2npAWgMEaN8IiGuAdg3TRWUwQSK0sOHfO2wsiy2/klRGiiVe0k0JbCeJSjcZP36aRKMxpXJxJYUxSSX+rkLh6eudlC4yJZGSzl36S0mqp5RFO8nr3/0iR519q3z99QyJKB+ojovMmjVBUuFq8Uoj8sOff8qLn38r+w17U979bZYS3LDEGdCd7YJcAhFy6gEX3/CO3PLgO1KZ6CLRZK1UJ8Ky4iqri8cOYBqGvxGnOol92rjMTM3U42qnCjFemfXdb/wp1zz+tfw0VVx8CQ/yniGu3O2IS+uQl4UVkMOGiCszIIWCuHDMltjOYk0ln3YvsPj84NwWblZVVcmoUaPk4osvls8++yy7mDNAgAALHgLiGqBdY/XVV3e/DEJvvvmmW0CxMMCkPgkdt2eXTxOJKmmomiPduneVUF1cihI6kCshlZSyzkitJFMVLnwuPv56shx2/DVyziX3SG2qVOJVNZKqDcsi3coklVTaqFF0KRLZffddJBTRU002qWQzHo7JrOou8tGoL6STxlMEZ/FQIEjnywA1ePD5X+Wp//tIKmuUnOjltI4u4Sxs2KkJcBrWBCNSJ53CPeT76Sk5fshw2WKfK+Xcax+Qofc8K3sdf7H832eT0j2TPyn/cYD5BkQP3fH60BBxbYo0lvZLeHRIBw0aJJtssokceuihMm2atuUCwPvO/WbLmeNcSailwaKyXXbZxenmXnLJJW4DGdQ3mkK0AwQI0HEQENcA7Rorr7xy5kjk559/lkmTJrlBzdyCjk7KFddfuli6pSZK/551MuzCI2SXDZaU9ZbrLjEWaDlplkhpUexv9cHZN1+Nk7/+1AChUj33JBnHrkCR7LX7DtJ/+f4SVy6ArLZH9+7iJVOSUFKMTqnTK42GZeml+mdm6dNx50tjakWF/tZK796lUhRTEh1VsqFxxWvrXAdDGCiHJu2iiUmx28p20NVPy2ufjZOp1WGZWVEniaKuMq4yJoefeYlMLM/lrhzNS1wCNB0QPbaf3mmnneTzzz93kkoDRLA+sldeXi433XSTPPPMM/Lrr7/KzJlIzOsHklLcSSedJNdff718+umnbrvrPfbYw0lD/TCpKr9//vmnk5xecMEFLo8bbLCBuwe9dJDb/sj/8ccfL++8846Ll/zzcXv77bfLDz/84MIsLH1FgAALCwLiGqBdY9ttt80cpa0MPPvss26AY5DNlcAsiOiqHPD2c/aWdx84X968Z5Dss7rIU5cdKJeevItEU7N1VIYklspmG2yVuSMNthWAguy11wZyysF7yLF7bSb/WmdZiURKpTYUkedfGyn7DrxEXv14vCOUFeVzJKz1GVXSmaaIKVl5zWXF695FXvrsC5mp54nUHL0ydwcsgCbA8QeuKS/cO0TuuOJk6VRUI6lS9HJFxo8bPw/5REKc8sIyKxGVEwfdJO98MlmmVxdJdV1SioqiMCepjnSTROd+8tPEOW6xV7qD0hj0vrkxtT06suQfcsd0+u677+7er/feS+syg/qI69577y1nnHGG7LfffrLxxhvLGmusIccee6xUVla695H7/O0CSemtt94qw4cPd+d2/YMPPpB3333X+Rnwf/rpp2X99deXtddeW7baaiu54oor3KJKCO9zzz0nRx99tFRXYyN4bhvgvosuukhee+21efINOSfsDTfc4MjswtJXBAiwsCAgrgHaNZC4MpDZ4HPVVVfJrFmzMlcXcGR2tyorCcmAfp1lie5pKwCeDtLfv/eRhJUARrt0VpZQLglvitTU1ChDQO8PCRbLspLSuXOVnLLPALl+4Lpyyn7/kuKyHsoBPRk3p5N8M7m7XHbfq1KpY/q06TOUbEQllYQAQD7C8sO3E+Sw8+6Xgy5+Xgbf9KpEpKs+AyW2fiKgaS2ZrJDN+8Vlg/6oFOizcSQiJL///rUre9oAAO7USURBVDv8NYuikpTEvZCM+naGvPvNdIl43SUajsiWG6wpF509UCKpSpdyjReTcX9Mdp1Te+2gMM1mMLLWUcD0PdPpWEX497//7abwd911V0cA4/F4VgLqBwQSQggRZCU+0/N33323rLnmmvLhhx9mQs0FCylRESAtP2g3L730UuYsDUxRHXzwwc4c15QpU7ISWcJ26dJF23BnpwqAKTzq2vKH2sH999+fbYuoFVkY3FNPPeUksvnKAyycuQABAnQMBOawArR7fPvtt25QisVibmC97rrr5LTTTnMDaSHoSOaw/EiksBgQdRZVmdDFCsA7o6bKfQ8Ol+9/nSS10a5SGypy5LbEq5GDdt5c7jx5CyW2SUdO+cfWA7FURBlgTEb+LLLP2XfIlCivfEiKa6bLCTutJRcd/x/Z8MT/yW/jJkpdXUKiSmC5M4KOQFFXiVfNkk1X6CIjbztV7+POHMBONb1KvbLZAefJdxX9JK7EbuleKfn4iXOldzqU1FWXi1faRY666F556oOpyrG7yuKlcfm/B06VKuUq/z7hJplZXiydOy0i/z14bTlzzwF6l17wkMam42gMSN5effVVOeKII7KEJUuymwm2FbGZjYJYlZRg8zZN05s7veYG0lCm+svKytwxJudQweF9Iu+oArAokvfFykIZka5i6xR/3kPAO9mnTx9HbHm3uEacJ5xwgpuutzCQUYtvtdVWc2oK+AOe06qrruoI7NZbby2PP/648xsxYsQ8My4G4iE+VATuu+8+50e8SHOHDBni7iMMoC3ssMMO7jgXhPGbwzJ92gABArRvBMQ1QLsHgyQLLxiYQN++feXtt9+WFVZYwZ03ho5GXMmnm1pVRjilOiaDbxwhk2dXyC/j/5IJk6dLWbceUlFd5abpkckyaLNdwVKL9ZDP7zlKykJK9nQM5sWGSsWUyP48q1gOPfcR+e6P2VJeVCuR2lly5jEHyeLdiuV1rZ+3vpkqHtJUiUkyQcQpKaqrlqJOIttttoqcf9QusmYfBvY0aZsHjriKIFs7YNCt8vLXtfrMktKjc1w+fOY8WSFDlAEEfO+Tr5E3fvIk6ZXJ69eeIP9aLSwf/Fol259xl0TqsF9bJjee+m85bicsSkCQ0gSnUCC1Q5po0j4jX80Fng1T1N999507R1p5yCGHZNNp7vSaG//73/9k7NixcuGFFzqpJZJT3okVV1zRqeP89NNP0r17d1dOyOycOXOkR48e7hzSPm7cODn99NOdRJO2iltnnXXk/fffdyR4+vTpzt6yLQKDBPMOo78KIMxI43kXASQVyShxkyd0YgF6riy2ygWklfwPGDDA1TWO50H4e+65x6kwAPJ++eWXy9lnn52XlJJviCtSYyOu7f3ZBQgQICCuAToI0IFDzw4wIC277LJOasNUImDAoSnnG3g6qsQ1qYTzhVE/y36XvqIFDEskGpOEDvKoAnTr1llDeNKlc2eZ+MdEiSqL7d21RH56/GQpVSaZCkF8IYERidbVyAm3vit3vTRaSpV3FnetlusHHS3brb+4rLf3+fJnTVclu52ktqZKwyclHPFkicV6yn9WXloOOWh7WR0VAE0t4qhpekvMeZAhrmh9nnPri3Lr82P0NCphb7qMfOJSWa9HJoCCGA4dfLs888UcCUW6SPWrJ7jbr358tFxw/5vS2atR4hyXB4ccJvtszjNKujK0JzoBgbOpdo7/+9//OklfoTMAbY1zzjnHTcsfc8wxMnjwYEc22fJ00UUXlT333DNLMCGUkDmILKTW3i2uQ2SRVP7444/Or1OnTm6BFH5nnXWWW8hlgIii64pUFhAP108++WSni0q92VarRx11lDzyyCNOh3ifffaRJ554wvn7Qb4gpNQ56Natm5O+LrLIIjJx4kS55ZZbnD/pHHbYYU4qm69f4NnlSlzzhQsQIED7QsfoaQMs9GBAPfPMM90xBPSXX35xUh8GMZOsMRB19O8wf+4j4YhMmjFD4kUhiUcTbrFUNFalJK5CCWuxFBfFpH///pLCZpb6lpaVSTHjrjooK/+QM81JFcmEPydJt2hc1luyTIZffaYcrKS1TK9tvt7qmmiRJKv7KNVcVGLRiGy62cry4APHyY2DtpcN+ihVVUZKR5FQ0tpQ7ZKL5ZdPS8GKI+kp5b8mz119XuMpKdbf9ddbL7O9Zkg++E0/LL6skrseflVjD0sykpCS6ExZZ/X0hwUlqNWUoeHtBRAt2hoO2LQ55e0I7Y88skAKfXGm8/mQ23nnnZ3E0/JP2Sgn52ZBwMqHlBaiCXk0SSYEFKsfSFn5yPQTQIg9Oq/mRxwsuALEg8qA1SXXbOEberT5QDwvv/yyyy/HWDyAeEPChw0blgmVBvrw1i/gAgQI0PERENcA7R4MOAxQDEysZrYBCEnK9ttv76YGWXWMJMg/YHYkUCKIH/LFlM/QfzhSqp6dJZQokdWWW0W6FZdJSSgs0/6aKn/9OVk+/PATHfg1jBeW1VZd1d3Jax3KuIRGU1MSlotOP1yuPno7efbqE2TbZcr0Sp3b8vWOwfvLBv1Dkopgf6rOkZWfxvwu19/wioz8usrN0oeVY1KrUIuGahcKs8wyS0tKPyZYQBZWUvPXlL/SFxVFoYgkU55s9a/1nc4khGLbM2+S/f57v8yoKZHiVJ3UKOE9YP+dpU+P9D2kWad/07QmQHNg3XXXlYcffthZFmBxFrMWRuyM5AF7l4xUGiCUfDAyewF5hLwSBtIKQUWKSRz4IwVlIRv6sRYvQI8W9QDaG+nke2+RgubDX3/9ld1kAPjj9QN/0jZyHSBAgAUDAXEN0O5hgxpTmS+++GJ2UQdSOyRHDML33nuvI6/1DWLtHeQaeoDOKmdM2eM3YPmlpShaLuFQhYwc+bb85z+7SyhcIomkJ9FYifojrdLBX2/uowTkvg9nykS9T4drjSusBNKT7nq+el+Rw/ZeT7orW3V2WTV25IRjla9OqdT4InPUJyFhr0wmTaiR5175XPY450554I1JUqnhoQg1miGNbh5wWqW9SCI+R4r0bKMVSqQo5kl5OCW14U7y5e+18sbYkLzy9VTNk4ZXJr1qH5FXbztGSks0B8mIVM2ZJanwHCVDk2XzNfvKkCO2llL3HNO1UaJlaV/KAh0XvB9MwaN24yepBnvX+IUY2q8BEojEFX/TI4Z88i6yov+VV15xZBYgTUUvndmRG2+80S1gM3Afusi5IC7SwJm0NBfYgzVsvvnmTnqL6sZ6663nHB9FBgg2IL9WtgABAnRsBMQ1QIcCuqkMjj179nRTigy8DEgMdKxI7qiDE7nmZUw7CBvT41reJXpIl6KQRFPVMmv6X0r2otK/72IS8RLqp+RVA0UZm5W83v/4y3L6+XfK+v8ZInc985F6KtHQ+lAeKTEN5+ROJOS4StgR1z+mJGTKjArBdkFSr/XqXCSdI3rFK5bZ8YicdtWDcsxlL8qrX85wOqwQV+o86zLRzYp1lVuf/1AG3fSGpKLFyhi0JKlO8tCT78tOR1wqhw6+W/Y84x6ZEQ8rERXplqiTUGKO1FVorEp0OkWqZNdNlpXbT99DFvFSWj4l7i5yLWNAW5sN+QjcPM9TnV031YGuXbu6cwARhHBiTxlbq4RBVYJ7MF2H2gFqAwCbrCygXGaZZeTUU0+dZzMRiKupWPjBe2xkE/NupG8EGwdYFEZ6hEUnFlNZI0eOlI8++sj9sjDM4CfLAQIEWDAQENcAHQ7YdWVVMbvyMO0JYWU18SmnnJIJ0fEAVYBYOlkVjNWLOCknW7Aus3g/CddVSrxypgx/6G4Z/9t3UhSqVTJaJ7GkulRciV5IamPdpFR6yszKReTFt76T6ZVKgI1Z+rlK5phk3nrzHRcmqmQh5dXKMfttK7tvuJyUxTSQEsjZNWF5auRoOfLca+TZt35y9/hBVNCU/735rZx205Ny7/MfSE1tXErgo4mwHivtLO0rc1I95YOfZ8rEjAne5XoXybrL9ZZFShOyat/OcvEph8ndlw6UlXtAVJXQOPKkJMv9DdDaMPIKWVx88cXdMUCKioSThV1YD0AaC3llS1cWOTH9D9HEz3TSkaJCRrE8YPFCXJ3dYQV+5m+zKcRB3EZu7TpAVYHrqCGwaQHHXCcd7sdqAcfArz8bIECABQMBcQ3QocBAyiDF4MTKZKQsr7/+ujOizqDql8x0WISKpCoZk/+9+LWccPod8tv3P0hJKC5l0aSE4uX6q2TVK5diqVFXK0VetYSTlVIU8SRRXS4xqZOubvHW3NebYd839jtAkt959x1XX5FUVGI102TDlXvKNeccLBsu2VM7h7AUlRZLSVFMarxieenDH0T5saOTfrLBxGwkHJKSUiUMRVHppPkqS2h+EhVS4ulvfLaUJGbLdhuvLf2MA+kjuv/y4+X9YafKqDtPlGN2XNHZK0iFOytZj2o686YRoHlRaN0SBhUdpuIBhBOppn8TkOWWW85JYJGALrbYYs4P0smUvaUBkcQyATBVAovD/85i6g6YHybH7JrFhQQYPwgp7zzpcowf6ZJHAGklD0ZiAwQIsGAgeKMDdDjYoJvPdVToMC0sQWKSNKHlqI2IXHnT4/LdT1MklKqQMiWlRalqKVaSilukLCRLLV4qa62ymGy6/nKy81ZryP5brShrrFYq/9m0i1x8yq7O9NU8Ist5+Hx6+n355ZeVeDwloUhXWWfpLrLOyl1k0a4iD156pBy77crSQwlweTys+QrLJiv2lYg/PgWHJVIth2+1qjw05Ai56JAt5dDt1padt11V9th2BTlg22Vk8MHrygvXHyoPDd5WenED+VC3dCeRlZcslm4xpLNIWj1NxWnm+pMI0IbgnYL43Xbbbc7sFMf4GZnkAxL9Vcgkeq5sCcv0PKQRm6wG7mEKH6Jp7yoOSawdEyebE/jBQiyu+aWmmL4iHkxyGQkmDCAcxNXC9+vXz/0GCBBgwUFgxzVAh0NDTdYGMD/aux3XdGkYaDliH6ywlOvhwNPvkO9+/V022XJDWaznom7xyzLLLi19+/ZSEiHSqVSkWAkuk6uoGXD3HHVoJGLdNqWEtDgK0dATH9ziLPzUjZuRkLseeEKqKqvl5OMOlGV7a6QKgtTon1m1Im+/P1r6LNpDNlijv3TRhP5Ww0qoU+EiSWguUG+AfLPRAHlCiorhK+hFhEj1U9lxCs1s2NMDIjOPKJHjQUkyGWyn2HDDDd3iJHDuuefKZZddlm17+dpgewfvBiv10ReFLOYCgslGC+iXG9Azf/PNN50BfwOr+LFUQN3ccccdcuSRR7r6wBE/G4lgYQACzL0srjKJKGRz/PjxTieW8OQJiSu6sVxDsgrICya6IK1slEA4q3NI6wYbbCCjR4924W+++WYZOHCgu5YL7gt2zgoQoOMhIK4BOiTqa7b5SENHIK5IXKGL5B7bpazgx5RVSsd0SCD+EEAAMWSoZ5iFEPqnTQiLfVaWpOSjT/g5vVfgC1CXQC8R5YA0CIJ52FhmLIda4sluXX9HOkLkpITDVaojvzjiTKer4SAkesxhOi3OMpHqT/qMvyBvYu0CCxtx5TobDBx88MFucdY222zjFmeht+oHBBO9VNQA2ArWD8gm7+GHH34oyy+/vIwaNSq7e5Yf7OzFxgMbbbSRM4Fn73qh9YqlkQcffNC94+jZ+lUW/CDegLgGCNDxEBDXAAs8jLgC9PUgHO1t56y0zJFXkb8YuFf6qiyxVr1qdcyF5PkJKsOw+XFsjoVSSDmRwnKeC+fn44XYVU0o0SguNlr8d6S0iyA/0Yg/B3ORrwMhH+QhPZHbNHQU4grRg6gtKMT1iy++cBsRTJo0KeObBmVEysn0/+TJk90CLLZxxaqHTf37wYYA9ZFFLA5AfJnmx36shfGn8U9APEhw+aVMDZFRI65IjFnwZZLfAAECtG8ExDXAAg8jrgyMvXr1km+++Sa7iKQ9gRfRSTYV6SE0qdQtPfAiZU2T27RjuE9fSeuDpl3IhStYbuRpaF7/cEP0MpMjDcamAvOQEZeonfv8Fdw1/zRg3rjaG+gyIa4QPdrUgkBcAVsos6EH26T6QXlxkEoWP+EgeTjKauW1oYRfpvHxp37M3879pBI/O7d4iJc0SI9rTQHxEy/xEQ+/+AE/MbVrkGxsQGPhAB1dy0OAAAHaLwLiGmCBh19VgEUkbHWJbhxoFwOVZgH6mWQQJzshHXy9OgmnEhJl2ypPB/Aky5aUEGoZPA8CyeDLqzv39WW5Ffe7KAp4q9OkQpRk1E91s8RBwyX1OJyjK2D1l1uPLh96z7y+hQGJcwHZbzNAqJiCxiQb5Tbial1pRyU/48aNc9uzoqfqLwPlwtVHXAG/Vn5+bdGUkVJAGCOWRi7Nz8A5zk9c/XE3BsLXR1yJx//rjxPVBPMPECBA+0ZAXAMs8DDiyqCGVIWBjIGxowA5UT65kw2z//QFZrwOeoH5A2THiKuhIxKgfOTRD/8wYcd+CWahZbZ720sdkZ+O+LwCBFiYERDXAAs8/KoCSFxHjBgxz8KR9vAKkAMvO356gjA15aUkilRL/3lcDCH5SodgrA2FMsRB/dCMdZc0QCZIQWDQRkJF3eSrB8i+SddM+pWLfPcRqin56EigLtAFNRujLCC6/PLLM1fTddrRQDnsORb8jH3hCi0z8XTE+gkQIED7QUBcAyzw8BNXVjGzOIvFJe0d7WGQD4jG30GdsGPbt99+69rUOeecExDXAssctKcAAQL8U8z/+okAATogbHrTP1C3V7T1AI86heWhKXXVtOU0f0dHeC44//T6ggArVz7YNb+bH8zvfQECBAhgCIhrgIUO/3TwXZAARcxHEyGPEDPMHzWoDwxLLZRnFhwO1Yh0HtozUJ0IECBAgACti4C4BgjQ0QG/m0+Ol5GnStL9iysPZZ/3avVPycjrPpEbj7xTXrv9LQnVzSX5bHjVGGGF6jpaRxhOcNl82oE7EU1WpEYduxaoV0qdaepCXtsjgbUPH3/e/H7tNd/1wfI+vy5AgAABWgsBcQ2wUGGBHGgpzj8oErdiEAuX3jsrquwxIuE5MUn+FpYPh38ms79SQgsPS/qSgplqcM/Z3vKTNE8vQYaVvHGNlWYujN6QDWtO5NOnRst5O10uz18zwhFYzHy5GNo58bN21JEIaoAAAQJ0dATENcBChQWNtKYpYtoZEZwvuM0ItG5SsYwT2WSHjaQs1Enkr4g8cetT6ejrRMrH1MmcH5VhZjQIoJn+lKnhtCVWpLgpSYU1sog6v91ZO4yLfP/2lxIbpwT2yQ9kyk9/adpQXsoTIECAAAECzIuAuAboUEDfku0Zn3nmGXnhhRfkt99+c1tPGvJJvxZEKatRxVBtWMonVcmcv5hnn98yalyhKkkkZ6d7hCqRqT/Olq++/lpioSIp9TrLr5+OkzN2OF/O2Oi/cvWuN8s1ew6TD27+yu3tGk4hdqXuM1EpAY5qRLF4VH8jemTy3LRM1zlMeeGU/xanSqVztKuEaiLy9Uff6P0RF0eAAK2FjqbaESDAwgxGkYUSbdlJBR3k/OPDDz+U1VZbTfbdd1/Zbbfd3D7jjzzyiMTjcbfjT0OAvFL3HZ3EQloTiCqTIpM+nC6X73adXLjjZTJt6rRMgKa2L+0GKrvLuLfK5eGjH5WrNhsq9+w6TJ685Rmpqp2j3HSOROJhKRrXSWJSpP+KJZqKypQZU8Qr1uTc9D/Q30zVxr+ukq8e/0IqvlZmOlk9lODmFaKq3+SKKplSXCkVXT354YcJenNIIhp/R8CC9i5THhadsTDPHB+LON6xBclRJitj0CcHCNBx0CQ7ri31chuhqK2tlZKSkoxv/vT8pIPrheaJ++xeWw2MaSQ6LzOR9E9QCBkiDOnZdogzZ86UkSNHyg477OD8MATfliBvoKGy2LXmqLOm4tdff5XttttOfv/9dykuLnaDjxnFf/vtt93+8WwTybnlk9/XX3/d7cFO/S6yyCLy5ZdfSr9+/dx1UEgbsvgKQaFtslDkpp3Sf/rGiIyLyDXHDZPK32qkMlUuR99+gKy0zUqOh9bUlUtJUReR2SLjP/pLJv7+h3RdpKustsUASS2q7d8XZSgVlpkTquTKQ64SmRWXLtFi6VRbJFEplVm15ZIqiUldNCzdeveUbt0SstRKS0qfVRaX1bdZXcK9whJW4prbHi7f6gqZM75KuizaTaS7yMFnHyJLb7GYZPmopk8WQtNFrj/qDvnzu8kS0TiW2LivnHTrUSJ0Aw28Dv46bu76bgyUFTuuX331lWt/5513nrPjavlo7fz8E/jbFsdHH320/PLLL1nyauBaU96BjgLKdMYZZ8iuu+6aPQ8QIEDzornfK0dcq6qqMqcNwwhfc8IKBKl48cUXZdKkSXLYYYc5AsIA4B8ECAtZoUPluvk1FQw8lMV+GxpomrvCLS3Ke9FFF8nNN98sd999t+y+++7Ov7Uxv+VrqM5aAjyrxx57TI455piMjzjyMGHCBJkyZYrzv/HGG/O20TfffFP23ntvl+dFF13USW3ZiMDKwG9j5WlKPTVv3eQhDHoa0X+f3v+1vHHnu1JUUyrVsXIZePdBsugqi0ikWANUheTnD8fKC3e9ITN/meMkpLWRGtnxqO1k3SNXc3EYPI/duTrLA0MelGRFlfTpuohM+XSSRP6oldoifefKYrL9PnvI+tst50iolInEu1RKbbGWMwETTWi9I7WintRpfK/f8rb89MoPUvdXtUQ6FUm/zZeVvS/aQ+qKal15XDj9021KZ7nupJtk+g8zpShSLIus3l1OHTZQqjpVSyISz5Y99xml40hfs9/WxFZbbSWfffaZO4b4XHrppdm2l5vPjoDp06fLtGnT5Mgjj5Rvvvkm4zsvOkpZmgLKdMEFF8gee+whSyyxhNsSunnf3wABArBjZXPCEdf6OqpcNPcLjZQRQoKOItLWzTbbzPnfc889bjoYckdHYiSzpqZGxo0b58Ivs8wy0q1bN0dk6XzIG2H4RXJoeTWCC5DSIeVkq8a11lrL3Uca+Tpku59fO64PFk8++O+nHO+9954jWgcddJA8+OCDTlKz/vrry0MPPZSVeBooO3758gf88fpBPfhBuHxxmF9lZaWLg/rhmTRWXlBfnuYX9T0HA/k79thj5aOPPnJ1suWWWzqi+sorr8j5558vRxxxhJxwwgmuDP7yct/HH3/srnFfr1693AdSWZmyL0Wh5WhKeQupv8IBQZv3eUJCyydUyJOXPS+hP2PSKdxFEj2r5PD791SyVycl8TL5v/vfkDFvjZVIeZl0DfWQaFFUZnnTZanN+8oWp2/k1A0MnsZf5UWkrrJaeWmZpH5PyBMXPykl5Unp2nNRWXb1VeSbX3+UmdWzZLnlu8q2R20l1T3qJNS5SEIJrW+p0TKn2yD1RMwVNUlZelpPGXHjS/LHhOnSdcPlZdszNlXiWqNhCJcO22tmT7lz0N1SObZaimMlEusfkSOGHiqVncqVE899t4G/nePnd60J3pH99ttPRo8e7c4PPvhgR35y89lW+WsKrH9EX/ziiy9274hfZ9yPprwDHQWUif6SD9qnn35aunfvnn1e7f3ZBQjQUbD66qtnjpoHTZK4NudLTOdOJ2kd588//yzrrLOOO77hhhtk4MCBWVJKWKRtxx9/fHZQoCKef/55N/VLx0M4yA8EmF+kB3RGpGEgLYgOg85RRx3lpJ3+67kgTnMNoaEODn+L46233pJDDz3U6WKOGTPGEdPll1/ehUNlYMCAAVkyT3iL0z9l54fFy0Dz7LPPurrYdtttnV+hoD5JF/L67rvvuuOGYHFb2k1JqyHYc60Pls+pU6e6c7Zx3XzzzV3Z//zzT+nbt69UV1dnCanVHfl74403ZM8993TnSFr5eCC8obEy+J9tfc/Zj+aqE4O27MxRGsXxEnnxxlfl06e+kpKqMmdXta5XhRzzyH7Sv39fiVZ1kuuOvkGqx2jbTigZVHJZLZXSabkiOfO2E6VmiSpHXOcpSyokiZSSxz9iMvy84TJ99Eypi7G2PyJJLU8SE1XhuBT3rJXz7hwskaVLpCak76efuGqxabvJREpm/piQt296XsZ/NkYWW2kJ2X3oUVKyRFTj4aMyPcuBkYEuc0rk0v2vEpmK1FfTWSQhQx4bLNWda7LEFRDen1/8/a41QVvcYost5IsvvnDnJ598spO48j6D3DbS2vlrCuy9e+qpp5y0lbwjELBZL/97mVuujg5m95544gn3fDp16iSffvqp9OnTJ9v/4jgOECDAP0NpaWnmqHngiGtjpMHQnB2XdQqkDXl8+eWXs+TiuOOOc5JICgsRgbgNHz5cTjzxRJkzZ44LA5AUQ/wgexYfbsaMGW4veqaPr7/++kzoNCB4pAMJGjVqlJPAtQb4OFhhhRXcivhll13W6Wsi/SUv77zzjpvK3mCDDaRHjx6y3HLLyaqrruqIdyEd55VXXun07Hr27On0N/v375+50jB4nsTPgAvZZ/A988wzM1cbBvXdmmAHp8UWW8wdk2c/meeYstAODJybGzFihPznP/9xbW3xxRd3Ult0XDvswFQn8vygEfL5i19LqXSWmniV1HUrl0Ov2UtW3nQ1rSCRD2/9SEY89I4kavVDyAtLbWmVnH/nOdJ5Df1Q7JyJJwOMaSWUNEK7XrtgpLxz+zvSfdFOUh2u1YsRvcJADnGtkz4rdZaBN54q0k+fP3yaLsE5/RNWP30WI995T14aMkLKpneSUHVKll51Cdn3rAOldAtN28fBuS00RWTofteJNyUsiaTmoofIBS+frYxWr0fn9jf2LA127PdrTWy88cby+eefuzaEtPWSSy7Jkry2ztv8gP718MMPd2Vgynz8+PGZK3PRkcpTCBAW8KEPmMr8/vvvHXH1o9CxMUCAAPWjucdZFxuRFuIgN83liA9MnDjRTZUfeOCBjnhw7a677nKdp0lY8UN5fo011nAkiwVcp512mqyyyiru2O4zMnP11Vc7yStTxP7OFoJsHRMEEgJD/KY3S1gkeByb4/o/dcRz7733ujTJPyoREGp+kf4BJB6DBg1yZJsFSKhKPP744+5aQyB+6hKSj54a5JPB1Bxpm+Q61xkgvKhhIIHGnzhzw+a61gbtxJ4zbQOQT5OYc83q2565tVl/nu0Yf2uDbQHsm9ZgCJWsMuGBQQR+maWdpmX7XQfMcXo8W10uX1CGufGRa0j3tYqkIjZVvFitJOJ1skhpd/201et6/4jnR0r1zCpJhROSDMdluVWXlc5L/p20UlfUTJRENO2fx/wg3bp1lWRFWKK1ZRJOxZzOajgZlVhdZ5n2U6UMv+1R1Fr1Dr0hpPm0d8xFFJEP3h8lJeXFEtF7k2Vh+fyXb+TOu+5M75CFdQFeU+MDJFsbFy+pxFT/Vae0Evj+UGfPCpfb//C8zfn98zl/2OZwxGmg/ni/AHn05zPfvW3tyJf/HTDHuQF1m3yw+xYUR334+5B8/YE904XB5auj9uTy5TlwHcM1N9pu5M6A6TYkpxBGIx4AIsXUOoVmcHj00Ufl/fffd50NU/1IZP2dMM7UDpBkEs/SSy/tzg3ci7STsEhA0Stl4Q7kEX01SB7E0h9nczg6Rogp6VNOyoxkky98K6+B8OQDEkqZGwP1A+m3sqM+4Qdp2hRmLriXtEz6yJT7jz/+6OrVyF97AaofgHyih2awF8MRsEx9A/ttv9CBIh6ViaNmyujhY2TE9SPknjPukvN3PV9O2/F0OWf38+Scf58vt55wl1RXpwdWP3qv3kPOuOsUWW29FZUH1krPxXtI7xUXdW/0U/e8LvEpnhR7JeKFYIme/DrmF7nvxofSW6v64OoMmWpK60uDbrfT9pJAMBpKL+vHnmqIa0pekxp5nRLTqjptG67n0IB6XWPhRMmstmV1SCO79+smkUWUHHXVgJGQ/DLmVxEmSwiqXu42oBwQ7hv2IpLylMzHlbjS9PI0P55xrgP23FvTWdqG3Dy1V5B3PqDLy8vdcT5Yn0RZOO4I5Zof2LM00BcGCBCg/aNNiSvkETNF2OQ0WAcJeWL6GxBu8ODBjqAwnXXfffdldRn9MMnH0KFDnbSV1fp+ILW79tprHZkDkEnSx2GSCj3PXNTXuTcFmG+yRUXg22+/db+UD70qpuUYTMaOHZtdNAZYrdwYIPjoalne/SQVUv7qq6822CFT36hVGIlFH9T82xMgrgyiuC5duji/3IGnIyFSJ/LSdW/KzSfeJs8OfVE+feQrmfLuTCn5rav0nLmY9PeWlq41i8jMcXNkwoSJkkASa48EXlFeJFNGTZGvPv1awvqubLjFBhJaLCyJ30R+eesnKY2XSVFJmaSUFYaSSpKrwzJ65Hcy59fydBx+EC9xajN59dU3pSJeIzXROqkqrpAkxFevM21fWVIufbdYUo44+xDnlya06ngE/EJ4tN1sse3WcsYdp8p5950lx590jPQs6SGlyVKZPUnbqDbPeCjh8mVQWqRJJyUVTs9wkA/n5hMt3SaIn/7J0B4/9BoCi1+xyIF6QEd9f5oL1oe0ZT3QdswtrPA/h7Z8FgE6BtqUuEI+meKmA73sssvci4vkEFuCEDJWgrPgBr1WzhkgIGkshvjrr79ceMiqSQUgXwA9UTpm4scfKSLG6ldeeWW56aabsgSXF4R7+EWHEtNKbuDMA0sD2MuFH2QPZ36Q09xw1113nZO0cgxpZmEHecIcFmWCXKI6MGzYMLey9/bbb3eL1bbeemsXlzkD+UcaTVnOPvtsOfXUU7N5gACvuOKKTiq50047OTMvX3/9debONLif+Mg/+WGhksVvC06sLtsLaAPkF9e587zz3VbPftfuoc1s7HfjJVZbLLG6YonWFklRXYl0SnaRWLJIps6YKvGiWonHaqS0pFSfk97DI8Lp90/qd0/uveZBKQt3luJYkSyz9LISnxmVR/87XBLTq0WUaMa1GvbaZy9ZecVVJFqj8c8uk18/Hp+OIxeoKtSKTPntRyWNMyRaWi5VJbMkVER9RiVSGpFt9t9cBl5xoEytqZSKCk9qNZ6acELqwsqqlXR6+my0QWv+kvLpe5/IF+9+pe/D3AVWdbWagB5qjOl/5ENviWuBaiJVUl48R2pjGobvO1QKcBlhM+TW3ZvznHOdvSscu/sy583pAPHTV1k6vC/5wrZHRx/Fe4RqENY5mNmZNWuW64soh737Vqd2HKDlwHOxOua4LWDPuy1cLgoJE2DhRbtgJ3SUSFX5pfNExwoiCTlFGshiI5NWsrgKfVEMztOY/YOH/RIWpftzzjnHnTOV/tprrznya2kAOgjOIUJYGUCv1DptwLGRU8ge90OkySsOMmqOjp/pNyPF5AF/wiHhMOyzzz7OHBPhka6uvfbabjEa5BaH2gR5odyAtHMBWUVKjEQWsos01w8MiEP0SN/fIRqoM3abYtcppLyoClBOQProB1s52gsoiz07e0aUK7dsHQbFIodffJBEB4hU9Z4jlb1mycxuU2V6l8lS1a9capcrlzUPWUnOv/ccWWKpPuk31YqqTeLFB1+RSFWRRBIxScQTcse1d8sHN4+W8Z+Ol+rILJlVPE1qlVT+36uvSW1VtYT0cRYpQf7ynXk/YhyIFyF2D5GtT91Rum21qGx84r/koluGiBdN6wDWpmpk1bVXluePf0Pu3vEuuWWXG+WXJ3+QkrqQFLGrgKfPoqTI5XPsL7/J45c8I88Pe0VuveFOmeNVSLJrSnp1W0SkXDl1rT7DpCaaGZ+9lH5EaTv1nBRWI6Dpcc3vCgTtgXeGd5U2TN6b2/F+WDpGMugX8oVtj2727NnOKguWOQ444ADX/1x44YWuvlgzwC/lsj4hQMuCtmRjDXVv40x9juvmaIvN5fzxtoYjTXtHAwRoCpq0c1Zzwk+osAIAuWR1PY0ZIglRMZ1Qf8PmBYdw/e9//5OVVlop27kSF+GMlB1yyCGOFKIygBQTCSWEEB1XrBP88MMP7j70ZZE8IKXlXn9nTVqffPKJWzBFvhioSIO8c0xY62wgrYQnTRZVYXYJAo6aANYECAdRhWxi7stWJPurH53c+++/30lBsA4AkSZP/roCV111lVOd4BppGkFFTYD8kRbHWFyA5DI4cb+pEVxxxRVuFTRgZS2muTDTBbBkgF1UTJNttNFG9erHtjZYcHfuuee68iJJztXlbQgM0FgV4JkhXYbo2wKvNgVNbY5I7YyEvgOoQiSkc6eu0rl7Z4l0VwJH1StJTSovzHxrpVEt8sTpL8s3o76UWF1YikIxbQNJCUdKlaAqaYtWSiockohXpEnUSFGiWIrCRRJP1cli6/aWI57eR2JuFReRYlFA248y6aS2oZIabWeVIhNenSzJ6pT8/vkEGfXWB1IbqpZkWZ30qO4uiWpllmFP6rpXy/F3HCF9NtK6RL8VhhkKS015ldyy2/0y+89yt4lATbjalee6Jy93mxe4XbGQIJP8NJFzd7xIwtURp4oQj8bl1sdvEFGOiwqtc44Xp98TpcfutyHwUcs7D0FrKWAVhHce0JboP2ibHQEIBPigxrIKfQUfuZTHgP9PP/2UOVtw8cEHH7jZL/oFTAmiwmWWS9oCPAP6avpy+3jw9/sGv1++6/ML/1jU0uBdoYyML5hfu+2229xMYYAAhaDNiCuNFvKGBQFUBSBcOMiqEULAgICUkk0DsCrADlOsuueFzc06ftzHrjYQMjNTYy83Aw2qBhj/t11vkFw+99xzeVfSct9///tft1KfFw3nz1t9gCRDPi1drAVAoK+55hpHJOkwMcPFwMoAAjCLhXUFSORLL73kdDr3339/R8JNQmygo0ViS/kh1Uhw8YP4oreLaRekqNQl5NbyAfg4oP5Qo4Akky752XTTTd11G3wpIySPPKP/y3Pwx9PaQC2CBW3ki2eGekWhaLfEtUBYM89Wv37HjXt/qjw67CGJKfGtnlglxTVlyh0jkogqDQ3VSv/l+8u4cb9JSW2xhFNh8ZIYvfKk35qLyVHPHCDhmDLIhLLiiEaqpLBGWSTJlNaJjLrlU3njzjckrIwxEk5vSMG7CdMu6RR2Ni9nTyiXlN6/9H/6ySF3HK7x6N1kMJPHn54bJ/dc9oAjzZXxcum5Sne54J6z00SU5oyjqU0XOWe7C526REXJnDRxfViJ6+J6DXLbBOJKPnnGvFO8R7QV2jP+uX3FPwFp8BGMug/A5ulJJ53UrGm0JCAJbOTCBzAqSXxoYxrQFrWaub4FHe2JuNJ2EKbwUc6MIpLv+tqTvx9uzj65Ndsv+TYhy1577eVsiCOoCRCgELQZcWUl/4477ugkmYBGTGO27KAegD1T9DzZ1QX9U15m7JtCZHEMoH5AhokDm6jcAznBPixEkF8WZyHdZQMAS4f97em0IYe5VUFcEMjTTz/dESVW+jcGvhqxfoDkEpAnyCOdIy8pg90mm2zipudYPMV+51yn/KRv+SAshJG85xJXAwuysEtqkh+ILh8BBuLxd2wM6JB/BiUkUpBywOIwVBMIS1oY9qdTZzoHQs85Em4rU1uABXnUGfUEyaaOC0XHJ67pdmnPUj/xpFqpZqfJneWeS++SX9/9WcqqOiu56yS1sWqpLa6Wq269QkaNHCXv3/ee26CAd4fnX9qzRPYfspcsud1SIkUar6dxKlmtLdVDjbtklsip258pfSr6SqI26aYmzXg0U/nLrLm47LrnrnL9uTdJ57quklikTs77ePDfbcNqor++MUGeveMFKa+aI4f+9yAZsP7SabLqx0yRs7e6QGLxIqkqrUgT1/uVuPJ4MqS1qRJXA/VmrjlBfLwTtCOOmWZHX72jgEWhzCQtueSSToWKPpCPZts5i10Jf/vtt0zoBRftkbgyrtG3IXwwIUI++Pv1jgj7qGR8ZcwMiGuApqDV57ZsEKFzRD3A9KsgJkylAzoRpLEsWMIyAMc0cAgWBBJpB9PgSBd5gYkTZ6Tv1ltvddPz7LLE1xwdNRJPyC8DsR+QWDouQFx+ByBrDz/8sEsfgojJKKbRiI+XDQkmK/GRskJCkQwjneTFxFmeeEk5Zp980kSflReWqRLCQdTRO1tvvfUcWWdTASSi9ZFWCD+dHOSVuJGusrsYklYkKfhbGQB54Ese0krdISUiXcpmmw4Qhrr417/+5aS4EBbUECgndnT9ZJGwrQlszTKogkI+IBYk+NsjiCiT65TqLD+/NlYmfTRVutX2kE5eF2dtoU+XxWSD5TeS2y+4W7546WuJlRbB9lx7cao3c+Iy/JKn5dVrX5XKMXPELcrS5m+xz55TqW0grh9cqA94Lk7al0tf3Yyq6dJ98x6y0X7rSHX3ObLqeiulVRrmgbYNDb7sdv3lrKdPkktfPV8GbKCk1ZoMiVmC2ryjUd6RzLlixlRlz5z7w80HyDN5b25HPVpbBPbBnC9se3S891gzYcaHD1LWDfDhamUiTIC2Af2qjRv23udz8wPiBQhqGFfpz23saw4QP/ExZjQG2hhhKe8/KVOAhROt3kNZ44aooSYAgWP6/IgjjnDXkfAhFWWjAKQArJKHQKFzyQp5JEeAxVuYtoJQGmj8vPDolz744INOYshUGAuY0ImEgLFqHv1Xgym7FwLyAZFFEswuV0hdIHnbbLONU09A97ahlxB/Ogu7zn285NQJxAwpCCoO7PSEegFf//URRBZRmekqABlFcguxRv8VW5ocG0iTL3p+ISNIW6ZMmeKmOPkAMNChIJ1mcRvkledBHiHcqCUY6itjS4HpSwNtorWJc3sCwsdwlcjLL7wi1V61TIlMluJ1I3Lmy8fJaa8fI7VdqmXa9GkyZ9Jsic9OSDihxDOZttXqxVMyZ3q5vPvgB/Lfgy6TWT/McHqndAQIN7t17ySR4jQx69+vv2vT/sFl2oxp4oWqZKehu8qQURfJbsN2T0tG50FI6jIGYzXlNAlVguoRLrfZ6HlZ504S1XYXSqU/QPnAdPfgyFjrNrWCwDvb2u9Ac4GNT5j5gbCi0mSEFviPA7QNGmpX/6Tf47k+8MAD7vkfe+yxTkDCONKcgBAjIGF2s1BQpoW5Pw/QdLR6DwWxxNmX3p133ulIGi8Q01OmOsBLxuBAg4ZcQsow2wLptEaOqoBNYwLusZce6S1SV7Dzzjs7YskLi1TTptaBX3LSGMi36Yxa3poyeEEAkcjawMBCLiQdxEP5UW9AmmMSHEA6gDBWbn7RfSUcx+SJDolFV4B7GZiQkiIZBoRF5QFCisSaMJjMom4ol4H0MJ9FeOoMPWHCki/qm+tNqbPmgm0cAXh+LDBpbdgzaMg1Bfnuz+fyQsnmlntvLl2W6iL7nr6vnHz3qSJ91b+zyEY7bSBzUnMkHku4qfe6aJ0ki9LH6MCiIlBW10U6V3WT+297QDOSwnqWI67SVeTq+66WfS7bSzY6d3P5z3XbyNYDt5TKTkpwu1RIj9W7SqibtpeUxtMtnV4+Yqk0dy5pdeBA2zJh/U7RqXOJhBIRKapbRHqU95Q/fp3kiK5bP5YB8fEvHxqqJ/On7TSXs/gMfv+OgF122cXNzFA3+SRu9ba5AM0CBAj0y341OUA/Tr9rsHZtz4NfGw8AYVmrwQcIag9cs/45917A7CA7Thq4H6FFvv4cP8YrG5dIA7U1/4JHwpiElXGC8WHgwIFOGML4i2AqX/sKEOAfQxt2m+G2227z9GX1tNP3dtxxR0+JpacEiTfNW3nllb099tjD69atm6fEyvkpafXKysrcsZI/b+ONN/ZmzZrl6cvhHLDfhx56yIVTwuPpC+bV1NQ4/0mTJjl/c/379/eqqqrcteaA5QWnncg87s8///SWXHLJbHm6dOmSLT/O8nPiiSd6o0aN8iZMmODuA5TBjslv165dXTzUw4YbbujSI8x+++3n4uEacVNfK620kvf++++7OtBOxsWhnZaLj/M111wzWx+Wj59++sldI9x7773nDRkyxNNOLFu/bQHqzvL59NNPZ3wbx2uvvZat8759+3rjx4/PXCkc9gwLcYUi3735XD7EKxOeV60HlZw4L/1RD4JXeN6IG0Z6525zsXfGBud6V+50nTfu4UneEyc97529/gXemauf71209LXe4GUu9YYdeadXU673EQeO5lGbPi7XH5e6nie+r/F+ffpbz5ujAWr0IhdoCvUUN+ki81+s5wZ99e47/EHvvGUv885f/ibv8qWu9y7b8ap0uUA98RsaqqeG6u+fYr311su2qXPPPTfj27Hgrx/9EHZloT9Zfvnlnd+CDvpYxhv6vJ49e7qxoTXwyiuvuLZz0EEHed9//73rz+lnR48e7S2zzDLejBkzXDh7Pv42TJ983333eT169MiOG8XFxe7ZUQbitr7df+/MmTO91VZbzYXzu7XXXttdZ+ww0Lfuv//+2XhxjCOktcEGG2RCaTeg4wnjwQknnOAVFRVlxw5zvXr18r744ot6xwzSnDp1qrfIIou4sgcIUCjajLhOnz7dkS8aOL/PPfecI6rW6L/77jv3Au62225ZP5z/5eD4sccecy8Gzl5SOoM+ffq4TviMM87IXrMXqKSkJBtHcxNXf4eR677++mtPv0pdp0Xe/aQVR37JE50pjgFkzz339ObMmTNPPPqVnc1/586dvR9//DGTeroz2HvvvbMdiXU+O++8c/a6H8SnX+IuLxYnbuzYsZkQc2EdIrDf1gLpUQbKRP5OPvnkzJXGsSAS1yzmqINoKrSFpw+A8suZEyu96b9XeIlpeq5k1tPxcPp3td6jg17yzl7vSu/GvR/0Jn+QIa0QVhxkOBOfIZkkgKI2k5dqDYgXTanR4hIg1/mgcTx/0cvemQPO9y5Y7mrvv8td6Z224Vne7HFkRpETPBf56ivXtQQWJOJKv/joo4+6stAHLbfccpkQ7RvWn88vIK70e5QZ0vfXX39lrrQsIIbbb7+9d8kll3iLLbaYt9NOO7kxC0fdI4zJ7acN1dXVTuBBnnGMEzZu4BhL77rrruyYh4PsfvDBB669+sPi6E8Zi60uGQuXWGIJd83atwmTjOT78fDDD/9t7DDHGMQ4PHnyZBfW8mMgzWnTpjkSjlAkQIBC0WbKTOiaasN1x+xohV4bi5sMrH5nSptf9D9zoS+QW4WIrqkBP6aRUSdAB1ZfEqczeuSRR8pZZ53ldD+xo8pKfAPT5awORq9WO4t5plbmB+Qh1ynhc9cw0cOiKfKFDiqLvLChyLQR6hJYTNCOxeUDx0YCzzzzjDz55JOuriw+9FOxyEDdsMuW2b8j79yPH7q32tFkp5ZYTQ+0M3K/BuIjLAvBzEoDuk/oGAO7H9i9/7SO5gfkg+dtafNc/wmaWgar+0Jcoch3bz7XILCLOs8j9SSl/+picSntVyRdly4TT1+fuD7auh4inVcpkv2u+o9c/elgOfnJQ6XLxsVSgfpAVJ8z8aAvwK+veuglaqVa6oqqJenVuO1f2SlLwpm2QVhz88B/we+4L3OvFm/drdeX2iIWg9VIlf6yHWxVVp1nbvsL0LywttVoG2unoF9lzGDxLn04awQKdUyxc5/1b0zbMyZxjbjQ6W8pxyJj1N9Y48B0OmMCfT+LlFlvQd+U20/7wRhHvnluWEVAjYrw9P2MJzfeeKP7NRAWCzKMIf7+3DB69Ois+hrXMcmFaUWOGROwbsMiZ6z1oFpgfSfjGaoBPAdrQ6gIsC4CKGF24zDqgDYGcm9T+94AAf4GbUStDr4Ar7rqKid9JAs4vubyTTeYv50jLUWKeN1117l4bLoCB5BOombgvx9n5zj7kuTr09LkHr50WwLkTTsBb+jQoS4t0re0KioQhaVBuDfffNNJgS2vhH/11VczIeaFdnhOCgqI3xwgrssuu8xbdNFFvUMPPdSbMmVKto7qA1JWvnzJE3XLV7/FB3LTaG08+OCD2Xrh2RWKXIkrKhgLH/S5edoO1TGNn/BqM65Oz9Oi03QIjtLIPmUOUkhAK71kSp3el3T3xd097jLh/gZ8ibE+l7mr0vMePuUp778rDvHOXPci79oDbnSS5KpaTTOlecsfeZtiQZC4AnufTVWA/gb1Kv+1tnrfGwOSwgEDBrh88yya4hgT6EO415zfH0ddNLeztEintLTUTcH7ZwAZj15//fV66xyJq4Vl/Jw9e7brq5nat3GOvP/222/ZZ8eYwpjpT9/vbr311kzsc3H++ee7a0iiLS821tjvsccem42DuJV8uzFjqaWWyvpTp371AsuTHfMMA4lrgKaiTSSusVh6Nyi+OvVFdQbxWYnIlxmWAvbdd18XTl+GrJK4vozuHIe1AQzw8/WqL6sLC/RFcLtusTPVuuuu6/y4Xwmb+yLFAc4B4YkbIP3EukFLgLwDFoYBJMzsFkL6JuUEnPMFjXFwzNWwVSx2FjG4D6gzv8PCAuX3f/HaNdJkBywWMbFwCxNd+JFGfcC2KV/+bE5AvJZvg6XRVjCpsaGqqipb3kJAeezLf0GD1kLmSMEhj3meatF3xy2X4m/6X8S59F+up5GOKdtKsnFoGC+modJh50btubP6WwZXGnKKmMjBF+0lR998hJxw3RFy5j2nuoVZRUX6boe0DWaCtSfwLtCf8Jv7nnRE2Lvtf8fb+n1vDMyWISVl4wRMHyLdK9TRL2I1hWeHw9IKC2extIKlGkzuMQvX3I68YoKMWS0s3iAdZVzAggyzgmaxpj74+28ktezMyHiK9JY+m2dGGMZWwDmmJpEo009ianKVVVZx1wyMNwbrSxlbAeMsUmDGUWsPpEMdUg5A/WFtx2yOM44byAuL0eirAwRoNmhDbXXwxfbLL79466yzjnfKKadkfNNAighQlN9nn33c1xjZNF1NfXmc40uO34suushJEs3xxYdDV0c7BqdHxIIlJCR8nSPN7Nevn7f00ks7/VB96ZwjPiSUQF+2eb4M/yksLvL166+/euXlLHuZC7vuL0euszC5rhA05b6mhG1tvP32264N4HhmLHYrBCZxRReL54+Oq5UtX13X5/x1Up/Ld199Lt/9hTqLI56Ip52+UzgXb0KfmXNaeB6fc/onmXZ548O5fwk91ncoqb96fyKefqfS6SU0rVq9VqfRp52Tumr4VIry+B1+jTiXQdJCmksm9T491xy5I1xjcHnP1EU+x/XmBvGyMNTa4uDBg1skndZER9Rx/ad49913XZ9A38Ai4IkTJ2autCzQcWVBrZJXr3fv3m7hKxgzZowbo5BC1gfecWt3uDfeeMP5M4PJOWMiv0pGnT8zkMwyKdl0/gcffLB33HHHZe/HHX744S6sH4yPXCM+xmp/+6b9s47C0sKxQAvQV7AQjDGW6zjalJJXd514LC5+A4lrgPlBm+ycpQ22XimFvhTumjZ4d45ZJ7YkxD4cX6x8/QGyTRgktvY1h5/58+WHP9JDA1+dSNyQshIPX9V8DfLVjp4QurHcxxeswfLxT+Cv4nzx2XV/uHzId28h+csXb333NSVsawNzLpjzsvbDV38+/edc+HfOwsYvpl2QcBCPYX7qvj40Fhf4p3VqaeSmZfHar71nhCskXwZ//P685p674+z41TQg/dUIJKXPhXh4PmkgZdWr4YxJLYU/TeAvS2Plyr33n4L02PwDs3HEzQYn+tGbudoxgfSMrbBpL+g3LgxbvqInj+STZ8hMHRLX3FmdlgDmpVi/wSYzrFWgL2LcYU0Dtsr1A91JRusbI9EhZQxD8vnQQw+5GUpmGGmPgO3E0VtlnYJtlc27xVhIOCTKjHsGtv1WMp05S4O46R9Ji2vovRqQFCMlNnNegPUHrL1gYyElwm5dCTuRGdjohvblB+8REmhskGNj3WYkAwRoFNp42i34IsMBvuLuvfdeJ4XVBu70g7p37+5dc801WenKXMlQy0lbWhJW3qa4QtHU8O0RSAqQHOhA41arasdZ0HM2iasOBFkJAL80/wXdUdYWL29aV6DJTvlCNl+N5c+em7l8YVrTmW48xx1Zx9Xgl7gi9cuF9R8LksOaCmWmT0HqxwyOXWtJ6Ae3W02fC2bjMIfFtYbygPkoa4fMOP773//OtkWeH5ZoAPGY5Z5cPVo7xm2yySZu7DRgXcHCEN8tt9ySuZIG60v8763/faSfJX+rrLKK88cR5oYbbsjcPReUMZC4BpgftInEtVD4s4aElM0G9AVzX6JIU5Geoufkh74kWX0cwvHbUTA/j6LQ8lncHak+/GAFMNvhGpQsOCkXz7gxmMQVqYZ25PLEE084nd+m1Df1VkjdEWch8RYaX33QTt/95qZlcVr8dp43T+rlzwEhONdOQRPwJKlVq8PnPPkkHv95OMxxnrgLgd6KTDWZTEvQc+vOn39/msDC5d6TD/54mgP6seS2TEZqxTES18svvzxztWPCL3FF756dDJnN8tfzggQkikiV0XNlHKHMSFzR8wfN2V7qA+n6Z/fIj5JQt74BiWt9oB/EmgLPCqkqu1SRX54RkmMknWxswyY1/l0ieZ6kaWFxxIElAHZ0tM180HlFCko4wtPPsl7CgNSWWUqD9cHWJ6EvTL7YUAiQDtu3+zc/APgHEtcA84MOQVz55eWAkNLhcM5LxaABGfEXwa4Z/MftHf5yFIpCy2dxd7T6IL8sEGAXMDpX/Bhc6JzpIEFjZfKrCrCIgCk1M4nWkeqjPvjbTbOUh+gYg4gq4/Di0J7J/MHfvuc3jvYBFtBAMABm9ti1riO3JT9xpY9lkRDvi7UtfxtbEEAZMSvFttiMIaYq0Jb9QiHEFRUBdkC84447smMi4BjiiXmtAw44wIVjW1dUCSgLC3xRkaLMqMixhbot2OJZQ4RtoTAqC+w6yXlFRYUzpYWjniC1qAUgOOLe/fff35nKYnEzjvhZYPzYY485s2KAcGztTr79gOgacUVtIyCuAQqGNqoOD6YccHZsv3YcoOMCFZGtttqKUdNNQ/GrX+7uWqHP2G8OC4Pf/sVZAfKAasFhscoP859v5JjB6sBYd911s9OlweKsjomPP/7YqZzRN6B29scff7Rpv8AiKEyRNbQ4i0XH7DLFszLHwmXKkLspC2oH+DPt/8knn2R802DBlrVfTCb6TUFiSot2YOoCAwcOdKoE1MvNN9+cTZfFzfTPIB5Pb05DOPJo74elgXpBLvTDyKkzUPdsztPR36EArYfG51k7APiixNlxgI4PbZtukcLaa6/tFmXxXJEAIeliX2wkCgGaGTrEMMok9RWao2629g4Y1XETgPzBJTVEilDzgwXz3fT3PwsCkN4BJRJZx7u3IDpU0ChvR3mGSFVNkmmgL8SUFqYkAeVCEosKAcdIYFEvoE81oGJn55jO8venmFmkTsyPBdJKgF078C/iYjMfU3Xwz4TiCOsH1wMEaC4sEMQ1HzpKRxQgP+gEjznmGBk7dqw7xrFTGDu3YEmAczpHu2ZuYUHBJW0kIJf9QRiqvqmcIic+cr0MfPF2+a56SpZuVoaVwIS0zvW4wTqvN01iostp/L2cJ1/1xhegJWAkA/KyIDtruzZW+F17xvfff5/NIwSUaXj0UE0nmbJBNFGlIlw+O+CmywsguYQ3oC6BShWqAsSFOgUgzEYbbeTiRYBw6qmnOksFVo/+eiUv/rrEak+AAM2Fdktc+VIMsHDDTJnRGdIBWmcMMNNi/gsTjNC5oQKhBipuGeFGVsYxT6AmQMPz1j3y0rPy5GfvyvCRr8kOl5wqD0/6RsaGa6TEbQaASYB6CKsfepkQ5MkveyF+HNdcDBZIf9kaAuJMkbLXA7Q6Gn22CxisH+kofQkL5zDb1b9/fycBPeGEE/4m0aQsbGCDKazddtvtb+VjcaERTTYAYtGqAd1XNuNB4opElYWHNh5ffPHFztQWJr1Y4JoLhAnkhQ12DJBYdGpzpbB+dJS6D9A+0GbE1d852jGLZli9yApDGnJLdaD2EvIimdSuLUDa5KW507f46Hhef/1119HMD/wdDXGaay3cf//9rnO2dL/88ku3b/Yff/yRCbHwgdrHJfjL2xv2tA0lJOGlJaHpvwoL2AgYLmzISOgBqgGVET3uwkdDWKaHE3LUtUPkoMvPkUnV5eqngTRe/zBTXzL4Z1tQhpzyk377fNcUKY1wfF25jJkzRbDKDImdp3MqoCwBAjQF1vfnc20Jv6WBXJA3dr5CDYBds7baaiv3EQ/o7/0Edffdd5drrrlmHqmoXUd9gP4UAoqddD/xJb4TTzzRLZjCegDEF6EBcUBCkchiNcDisvQARJi4zAIM17DvCtH2jycGv3Q/QIBC0aathReBxoxjlfgmm2ziVufyhWdfwU2BxTV+/Hg3lcEXZz7YtAjx2wvT2p0VX7V89fJCk998L/X8gnJBiNkuFgPX1IVtAdgU5HYmRvhbo64oA2ZXXn31VTdtZfj444/l0ksvdceEyXULOngiuJRSx9+kUn4P18nUWEpq3RR+lrYWDm5Qh5Tzp4qpMvjOa+Xjn36UZHmFRFGBT6SUFIuUx+ukIl6rBBPjq2mimXV6Ly437UzUaWQCWP6zT4oD9RhfWy6HDDlT9j3rBPlLqSvENTe+AG2HfO9aR3fWj9m40Zx98PyCPLCSn/4a/VtzjBf4sZofgsoxU/x+f84tPOdsCct1HMf+OPFbaaWVnLQVMkrfjukr4uY652uuuaZb8Q+4hrNrlq45S4frZongqquucqSXzQfsfsrH/aRDePx4DgFxDdAUtJk5LJK1pDGJwVQCX5E07EGDBrldRZramImPF4HdlUaNGuWmK9iTmheTeImPl/uZZ55xJj9OOeWUrAkQQGfW3LAyWtx2jkkSdqghP9gVhWA29KXdVNApsCvMBx984EyrsMtU7nRSIWCXFe4lvgEDBjizMaAl6ioX1A0gD+woA2nlowMiO2HChILL4zeHxS41n3zyiZPkgtYoR7MiQwBnhmplu5sHy5fjf5EDN9xabtnvNMHUOEQSO6wRpvUJmmlvfsxT5kx8tfott+Mlp8pnk8dJTTQscSXC4aKopNR/j9U3lUt2OkRW67aoVOqtOsQLn34RR0E95Z78m0tILXb21SF1nlLMxKzuFvXVPNRpwNqUPuNwVK549n4Z9u4LSpZFBu64twza4SAp03c2qu+sKwkRWcTtAEiUkEZRv9gU5oO7I8NvDgtTSP6dlRZUvPfee7L55pu7ftfsuLalOSwkqNQ9hJHnQF9nZJr8cGzjGO2OY/xxNlZavrlOf0fZ8GNctHBcs36BODjmmsXNsYUFHNs9xOn3M3AOyDNElnOOzd/yYseA9DimL2e8RpIcIEAhaFM7rjRc7L4haUXhHCLClnGQLfRn7MUpFBSFFZeQQL76+GUqxF4y4sNGHgrmnDONDsm1KrCXzA9eLIgPL9bAgQOzU9cgX/jGYB0Fgx1GmXm5X375ZTflQ3wW5/zEDYgb99xzz8l+++3nyB+LnLDvh399ZcRW6tSpU50twbfeeks+/PBDt7UfHxXcR75ZCPDAAw+4r+jWAPmy/KI+AhGnvvAfMWKEe3aFgOcMcaUukHBDgPv16+euzW89txloeprlUb9/L7tdf65UFokMKO4hI694QPikYEhI6fMq0nLZdDslDCW1/aufK62zUIO/nnGoDuL64I8fyt0vPKWE05PymiqZVDlbapV17rjpVrLaIn3lkw9HSaooIhsPWEWO2W43WTrUSaIkAjP1VSNRTlNC+sDrz8k3U8bLrEStLNtvCdlhtfVki34rSRmWCTQvybAnsxN1Uh0tlt0vPVE+q/xTwlqAFWOLyLtX3CsmZ/dF3W4QENeOj/ZGXBkLv/nmm7zjnuWH9uYnlMDGFOAPRz+Zj7gCfzgc5+bMz66bv50DC2fwX7dj0rI+nDwCuwYIiz99+qqrrppdvxAgQKPQxtOmYLtEbeDO3hxbv2GjDmiDztp1s+N8zn8dHHzwwbxNbhs/4vKHxWZcr1693PZ32L4bOXKku8d/vx/6snv69ehtvPHGLs4rr7zSq6urqzc8wF9f1sxZ+txgx3PmzMna3mNLPmzYKalyjnsbir8Q6IDq4qdesbVndZoLygKUiHpLLbWU161bN1dv2tk5p52MK7c54isqKvK0g3f3tTSsLqkX/RBxeSMf5OvII4/MhGoc+uGRvRf7hfqF/4/ruMWRyZprSXpsLQrvcv178YsPeZ1O29UrPmNXb7XBh3pT1b9WXbW6Shcm/Vujjnvq6rRtJTSeRLrcruxcwCni6rDI+EtdlfeL/p7wzhNe6NwDvOg56s7az4ucsY9XeubeXuz0PbzlzjnUu/DZB70Kbpy7U2QWtKp7PnjDW/zY3bzOZ+zlFZ27ryen7+r1H3yw9+KvX7nrrjz6p1qf7196uPRZByoD3N2TQbt7fU7f1/sx4WLPF327gN+OK31YR4ffjutKK63Uvt+NZgL9P2Wmr2sPdlybG/5xyH8cIEBHR9NEms0ATTNzlLYPN2zYsOwXIxJNduUAfJn5v84agoXD3ieSA+zQrb/++k5yoC9s9isQqSNSRfRrmKY3/R2QLy0kwGDSpEnu65Evcn/+OSbvOOJ88803nZoDEl2mPdDxIX2DpfHZZ59l78UuH9PX/nj/CdBtYpUp8ZH/fffd1+ky5QNf44RHF5YdUdCD4j6+gFEvoH6QLOGIi/xSHqa0WhPUPRIRykGeyQtmsjoy7HFntCGyXwf8UTKJ2JSzrJ+b0eea/lbo2Tu/fSeVRSGtjyIZ0Lu/lEhSivSaPkW557MRcuSdl8v6px4oR95xuZR7SYmEI06NIJ5W754La/YaMcux/iyfITe8+KA89coLoizXqR3oJ5UklffXKk+Lx0TGV86UV775SF4e86kkc+NTEOUqSy8nay8xQLpqrup4B8oiMrF2pnw37mcXxu1urgGxVMBhdV1tupCKCj2eNWdO+kSR8W53sPc5X9/RkdFcfVGAwkB9W51bH8vskN/5/TjG2diT75r/nDC51/3O72/x5btm5/XFk+ssrsbaE/ERNkCAQtFmxJWGeuCBB7rpEYCO64UXXuiOc8HAUJ8zEN9FF13kflEQZ+GTH0x9oTAOIGZs08i0UGMvla3YJN7nn39eDj74YKc6wAtJ+pAqptdRIWC7vltuucVtnwe5Iw3uyQV+EF3SXnnllR1JzC3P/OLoo492U+FMDTG1D1nnOB9InxWnhH/yySedmgUWCLDxx4pUiDqqFZhcsS0IySNkt7VgdUL9M5VEWcg3+tCFgvD2nK2ezbUJyEom6ZB+G1Xq7wx1M9VVq388rH8yeXO5zvTpeHE+R+Ly8dgxyvpiUl1ZLSv1WkI6S0QqyqvkgIvOlEHDb5Mnf/lUvi+tkv9N+FIefP5JKsFpCKRrYV7waVWrcb887jvZ/fIz5dZ3npNyBNRzyiUc0S6Cuqupkx49F9WvnZDEO8XkmzmTZdCwq+WPqVPSkfjA5976iy8twy+4Rl6/7n+y7uprqWdMwlqO/j0WFafpRpkymdE3ga8TzQgF1OcSjUhV9dzFhATLBG03sLbjb0PWzvwuQIDG4O+LGE8Yn/g49zu/H8c4wuaGt2scs7bDwnHsv+53uXHWd83O64sn11lcjfWzxEfYAAEKRau3FhoxJAQpH2SSBos+69VXX+0kpfMLyCR6mQB9GfQ77WWF7Jx22mkuXYAxZPZF/u2337IENB8gaJgT4Zd8QrIhcejOogcKiPPRRx91klzSQ18XySCLmYgXMmgDGL9INZEKG8gX4Rp7uRsD+bj77rudgX4bNMm3dSL5YGmyh/Shhx7qlOopIwvaWAmKVJP64UMAog045wu5LWCdG3mYPXu2O+6Q0Gov1zK88sOXcv3rz8rg5+6TU56+TQ7737VywANXyn2j35aasD5DDWovqFGgGnV3PPuoVCX1YyTpSdeiUtls083ctd9nT5Xx06dIXUqpKI+Wm/RZ9V1yCa27kETUu4QVUTngrXjh6w/l2BsvkWptKjrcaFuokliXrnLI9rvKsTvsJav3W06m/zVZ49PAykyRvHbT97Zb5/x6aTO8hBLshNzz6qPy1S8/6stUJ1svsbJsvsra6QBkgyaVIeWufLRHzSfPuaJCP2gzxQjQurD+w+8CBAgQoL2gTYgruO222xwZglgixWRxUn2AeELMjHjmglXvEC/igzwi6eSeGTNmuHtQeEeNwO4fM2aMm/5ebrnlnHqCkTKDhUMCzMKLKVOmZP3IPyvr7ZxBFgX/jTfe2C0Cwm244YYuHM7f8XMOaSVfSHJ79eolK664otuZhDBWN00FRA6p6fHHHz+PdNVMk1AnkFJIcy4Ij4UFrvPxwGIs/LiXcrEgCtUGA/lsLdJodWj1YgScPJDfjoxnP3xHDrlnqFz68v/k/jdflufffUte+/QDeX7Mp3L9kw/LLLe0KvOC6h9KXllTK2PrZsnwt15Bz0MfcEL69+wjayyzmuOA01L63GJR8dxGAXp9do38a9k1ZLt1Nk1HRDVqU8zWqa+5xZXgFmmcRUUx16aj0ZgM6N5H5iRq5JERL8pPE8dK11rlrEp8I16RLBHtJjed8V/pVlqaiWFedAtF5aLhd8jDb74gxXNqpFuvnnL7mZfLEkVpw+TVmp8qvlP1170dPm7E6xKPK2vVX1QKuOS7HCBAgAABFmIwnLU6IFrY54T8odOKLqgBPyN7TFXfd999brcOVrMbWcwFJBjzUgzGkC5UBlA9wLHy/KSTTvobOTVg5B6LAQYjkPxC9BjEkaAeeeSRTtUAae2NN944zzZ6l1xyiTOxhMQTQoXhZvKKQ/pLGIAE9I477nDlRyJL2C222EL+9a9/ZctnJK0pgGxCwC3vBiSjlB2SjgUDPhIA4SxP+KFSgO4o1g323HNPR1q5juSVsiCRtbqnPpAutzYol+Wf49ZUV2gOZMlXpgn//PNPzuQUkstKJXCVJZ4k0ErRei52Mw/aBjlVhyY6BK6kpFiefv0VKUeZNazkUy9sv+U2jn/ySTJ64u9SQxW56X2RxXr3lcsOHChZmSjX3Dz9vIAU77zuZnLfBVfKSksuKwm9nTb645SJ8uTLL0hVos5ZHagsCUuxptl1Zp1cfeCJskGnvpJQfp1pSvNg/JwZ8s6XH0tVseazOCpzJk2R6154RGYgRsUClobBXBbaAfrGu1/KpA/XtTUPvQb8MnHnSSJAgAABAiyEaDPiilkipI4//fSTm05n2v799993mwZgloXr2LNDZxObrph0evbZZzMxpMEAh37pzTffnPFhEPWcHzqQLDh6++23HakERuogipjdAoRnr2eTVBLGHCaTIH/YmUOiCelESsruTRYXv5BmN9D/+KNTWaBMgN1FUCswoPvKRgs2fY80lHvJ5xtvvJElh8DibwxGdskrxM4IqeGRRx5xEmc+FExf1w/uZeET5ScuCwNBNaDKgT9hSYM8tzZI25+n3HJ2BLgcZx7rATvtKgeuuZls0WtZ2WX5tWWHAWvLjsuvK4esuZVcsN8x0lkZJq1BaV6a6+rNM5Txjfj4fYlrWyMebaXy0DNPyR3P/8/N4H824Vdth3qkLDAS9yRWVCQTpk1xu2EByCGkNBdkqVT/9u7aQ37Td8dRSfVMFWPzkRykP4i4P1kUljvPvUx2WGFtKdPuI+ry4YLMg25lnWWz5VeXkoqEJCCi+uwefu81eeHbj52JLe5xLU3vo3wsHHPsHBUJJa2uHC7iAAECBAgQYC7ahLiiywoRhIggedx5551ljTXWcOoCTHc/9thjTtoHGYSgMGhCqpAs+gGp3GWXXZwNUsCion322ccRXlbr+4kOIB6ku0zn77XXXs6PeJkqJyxp+QkR+SCvSF6R/qIyAAm+6aab3HXCcj8klLjZivTwww931yB6SGIxlm9T3OjdIvnlPgjgGWec4eyTIqlFiosf8eAKBemzcIq0KINJJQ3UIf7sRgb8+qlWVvMj3ZNPPtntW819SGEBer6kY+GbsjCqOWH14n9GHQWOl6lDughRW7lPP7nxkFPkyTMvk8eOu0CeOkbd0efL3QeeKvssBymcywVdqfXm17/+RH6eMkliYX3GepFdrKakauWbCWMdcR3xwxfOvygVkajyzQkzpsqJt10lH0z8xW2jCgVFypkLRxzVvTjyTamoVZqLnVXqGBfVtqvpwCnZRID3at3eS0v3UDhtoSDNa7PBDb2jRXLHsYPklctvl3X6DUDPQyoTdfK/d14T5PWkV6p/0qoASJe5OeO0wAnIOSj8VQgQIECAAAsB2oS4GtliEDTyx7Q5xATSxHQ8OqP777+/I3dM/bNYCOmrAWKFn980E6SVXagwDH7ZZZe5eP3ASDiLoSCjfoJnKgG5hJF0kTbiz3WIHCQUInfIIYdkQqXzQnzoqpoeKdYCIKpGWjH7BeEjLsqOFBSdUhZzERcr5nPTLwTE//XXXzsizkcAebF4bJcrTHShkkB95BJbgJ8RdyOlxIv/BRdc4NQ15mTMExE/GxO0BcijYX7qqtXh42KOqaWFoRJXD31SUqSsrDgaczP4KAdAVpFCUkpKhz+fDmnCKzJ59ky34QDOTatHQhJTgrjimmvITa88JX9V6wdcOCJ1mK4q0et6Y1VdjQy9/3aZnax18aRb47wge0hle+tHVqlmMIqwkwTJROampGYGonrCOtvJUrFS9VBvK1sG8zwSvV5SI7JBUS958pTLpXdJd5GaWvn5p5/n4aJIdl00eGYuIHFNEYE/YDsD74q51kJrphUgQIAA7RUMS60KOl9IBzqK/EKmmKpmFxPspbK9J1Pq7HiFFBLihGMBl5+sQKDYs96m+AG6rhAvJJ9+HUi2fiU+Fk0h4eQ6JM+AFDSXCDGNj4oAUl6u4UjL7jPyhj/3Uw6IFTq72HFldb+RUSO2EF+IOUSyd+/e8sorrzjSir1U6oDr6Lo2BZD0DTbYwKkbkJYNbtiG5WOAPEHYUZm49957nRoDElb0WAkP+DWSj84vlgU4534+ANiFy+q5LYmrHx1iEKd6/U7ftvFKEV//4zu58+P/k0s+eV6GvPeEnPLCXXLkYzfLHvdfKetde7oMuPBoOfKea+WPqrmL6ZA/7rP5TrJKz34SreNZaWRKJD19liuut4Y89Moz0r1KPcJR2Xj5NeT6My9SUlzsSPJ35ZNl/MxpzhxWPuKKn9JKOWyVTeXR4y+Ua3Y5Uk7bZg+9oGkUF2tKGmJOjWyz0lpy/q4HOn3ab6tnyHfJ2fJXSULiWrbMDrNzwbmy8bCS7D56WBYrkkhxiXtXKrPKC3NB3tIM1p3Ow1nx8p83BGsX/NJWacf80uab0xGnpUWZeD/yhcn1a6qzMoAO0eYDBAgQoIWRO9y0OCBJOPQkIYEcQ5COOuooJ31E/3SttdZymwew4h4SiNQ1t9NG6gmxpGM3EA8LkZAuordqYNr+lFNOcQu1sLVKvBA0gz9uI3NnnXWWsyhAHm0QBEiJt9tuO2ev1e5jYMFxjj8WDLBYYNeQXm622Way5JJLuvw988wzboOCXXfd1ZnSQlILwWSgOvPMM7OqD4WAzQaA5Ztf8kEaPXv2zPpT7mOPPVbWXXddVxdYGjAQnnB2r7n6QD1jKquhMC2B1k6vOUCOoR0JfQx1+radecdVcujQ8+TCJ+6Wy599UIaqu3Pky/K/L991FgU+/+tn+SU+TZ7++gN5/M1XXByAePopfXtw8OVywCbbpT01zm76IfR/770js5QksoAK9Ft+GZmT1HcLaX/Yk6mROvmrcpYjh9E0BzJ+OA9K1XOrVdeUY7f5jxyx4x5y+LrbySnb7yM9klEp69xZVlp/bUdyX/z2Y9n1stNl6wsGynH3XiOza6ukrjZheyY4VGnefpeEjJFamabns6or9R0yIpYOmG6Z6V/3bDOO4xDS9Ux8vmgbhf894L3jvbLZg+Z0fuk/53x05rrce+bHkXfKwkxOa7X/jvieBQgQYOFBqxNXAEFDZxSpqBuktGNG0moLtVhchaST6yzauuGGG5xpKhuUAAu5rIOFoAGucw+EFvJngwv+WAXYe++9nXkn/JGoAiOMfnCOTViTxJIOgwgbFqBTS14g1txr1/nFoQdLWD8gekzlUxbsv1JGpMsGpK1WFkxlsbq/UHAf0h4WjSFZJg8MdjhULrgOeSa/AwYMcOVmkRkEG1JukiKLyw/KZ4vYiNfqE2BSLDd8R0Br59laLJ89yBmnVMyW6iJtpzEltDGtT1xKnwHW+dEnpY6VYRZ3KVMmGXP3wTWJJ1GTlJVKusnSsa4aofqGIlKlhObFV16UulRCibH6afme0vMrbrpOaipp49o+1bkFUhqJSTb5Id7MaTqf6kF6j496S86+bIistNgSctimO8tyvftKtebxtscelNfH/iB/1s6RaXWVMi1RLi/88KEcf8NlMj2ccPETJ3j/r19ll/OOl53OPkaOu2eozK4sl1hZiSzSpav0CJdKCQlpwuQHtQAP27NAz5W6KnHVyObzWbGDHRuCoPPOL47Fi83lllpqKaeeY0Dlh534LC2/Iw//1JEeM0b+96+l0RHf7aaCPi1AgAAdD63XE2YAiYIoYT3AJJWbbrqpI1kGJKMnnniikw4SFhJmBv8NSA3RVWXKHbutdEIQRkxgMahgmYC4AZ3wEUcc4RZbsbqe66QBCANJNvIGiAddWaS/FgdgCh1/FpEh1UXv06bQDUhGyK8fSF8g5uQjd0BgsRiElkEOkLaf1DaGESNGOBL/5JNPuvxYZ4zqBWSV/CNxZoesxx9/PCvBQX93yJAhTtqL6oTlCxUDVBwMQ4cOddJZ4vDXxffff585aj3Mz2Bqde6/N59fS4InYkPkDWddJNussJasVLaoLJvqJEuo65MskZ6VnnSeVindKjxZzOske663mey17Y4Sz+SRF5VNCTDqttu/tpbluiwqxVVJ5a8JfZ6iRFDLo20xpIQ2Fg07/3BRenFdSSIktcmEk4JW6jPkKRIrvxn+KJGMJ4owVz51n4yc8rMMffweufCGS2S3PXYVT9MOK5E+49GbZdv1N5eLDjtByqJKrjvF5NVZv8rpd14rzBO43OqfR97/P/l+5iSZFK6VV8d8JsVKylOJpGy4+trSmbQymw9QL3FN1bO2pfd6Hmo3XHEn+pd/7qxR8Ey32WYbp2705ZdfzuNQq2kOx25ya6+9dpZIYnKOd/Dzzz//m8MG8j916OWTbmsRLdKhn6BP5Li10m1L0Lf5+7eFEf5+sSEXIEBbI6QNsVVaoiVDJ/jSSy85ySUdPwuIsDAwfPhwtzIeQLiYQodQoQOKlBCiiJ6mP7tIVZFWspsV28cCpIqYq3rwwQezC4ogtwwASC8ApA1CRlx0zvyaKoAdQzaR3EBwIW5GbOncIJeEQbcU4oheqy1qQp/0nHPOcdetw6ec2IqFMEMMySPqBmycADlGtQD1BQgsYdHphVQWAvKL22OPPZxUhgGHPKI3y7a3xAUgrlhqYMEY5B0goaVOMNFlID9s+0rdohbBIE3eUdcwCTmgvlkc15pSINQdqG9gA2tjIL+YKPvPf/7j6gUza7Q3JGegpQdlasscSCkpcymqR1TrrjYRdyvok+oBuQyFItK5qERiSlWdWdNM9dqQyi/k8qdpk+SIu4bKNzP+dIukStFF6NZJThh4gjzy6CPpj59oSFKYF9DYVlOifODm/5aNV1tLVuuxhLANAPmweAnF5xbT+xuetI/MLtIrESUtNSlZapmlZeykiRLV94B8fnTG9dKnZ2/Z85pz5IsZ47UsKelUG5IbDjlFDl9nCxfniz9/Jafdd738kaoQKQpLtEakf6STPH7R9bJ6UU8p5XuPBLV834UrNc0DpLKTnujNsbqEPDLwAtln+fWdykCtekc1t1RFIU+L55yPcFnb/acgXogr7zPt/7zzznO2plsKfOSbneiWAhuj8LFPeZhZuvPOO92x9YuFotD+oFCSWGh81g8WCvpwPm7oH0mDcYRZQMoOWrpfyAV5b+00c1Fo/bV1PgMEaDXiSgdIBwEhgoRCjgCWAyCt+DMY+KV//FrHiS4nK/MN/mxD/CA1frJo1yE4kDY6KabcOEfXFEkjsPhNusB9FgdSXvRQURmwjhaSCsFkcRN+kOkDDjjAkUJARwgBt7xYXPYLmKLH6D+/SFrZ+hZzYOPHj3dxoot6++23Z0LPBXVEvNxrBBWJL/nhfspAHXMNf0yLMdhZmVC5YIMB9G0hzejbsgsWFg4sf7vttpsjetwPeWcx2/rrry/77ruvk+oa2DIXAgi5bS1A9vmYAFbGxkDZ25K4GmiNkD5SY3rc/RoNy+h8stEAR2GapOaLtVZQczON5bzVoQBw8N2XybtffSq1JdoOIIBaH8VeVMvV37WTWXNmp/01sbBGHNPmW6yRlWmVHbj1jnLZHocLWs7UIIotpEPwdyb/JntfcqZUd4mJF09IIhWXcEmJeHUsRkpJqb5LN+92rBy4/pbyw5wpsuOlp8qMcEK6xENy/VGny96rbuzihBg/89MXcukjd8qfM6bJ6n2WlPsvvEG6qn9nLQy8OFMJ8m2oXP516mEyq1g9uRZPypOnXSq7LrGGqweIa0wDFkJh/P1CSz1b0uCjlT6FNnX22Wc7W9MtlR7ElRkUFm62VBp+4kqZePcpJ8dWp/66rQ+F5q+QuEBzx2eg/7C+HxJrxJX+AbRUPTcEBC2Mi8zaISwhX/nK5fdrarkbQqFl/qd1Q56pexM8UFbGfhYuBwhQCFqNuAIkdpAliBodI8QDiR5+dJAsiIJc5YLOlOk/JLXcB/zZJh4kjGZuCth1ziF6SCzQQyMupIqQF5BLXP1AMomNWWDX2EWLjQUgy4BBCyP/RlyRcmI+inhJy+7jlzLiD0FlcRZpIg1G5xX1AzPtxWYLd911lyuD3Q/RZLCkDkmb++0agyZSZAg2klrqF5UGOgTSxBF2yy23dCQOwowOL5Jt1CdQtTAgLYY0m8SVnbNQv6CO2S2Mc/JFfVOHmPZqLfiJK+2AcjQG8trWElf/r75wjrimTzRtjmmrHGZOnapqOCQ1ek7rpMVbLuNKcl/48gM55tnbpLKqQmJeRJbr0VuWWryfvPXzN66MLrTen3LxhqQsEZJqZacY+Ye4Ltm9h/zw3zvdbD0kE1NckFbw+q/fyp5DTpOixXvKcsXd5ZvKKZKMaTtWMsnmBUWRqNy1/8my9zpbOCL5f79+Le+O/lzWX2oF2WHtTd1GBpQBs17Y9cACQaUeLaL0m08cys59ll4ymZJx0aRsPvgwmZSqcma4irWMENedl1zDPT+sFpjEtRD43/2WAPHzMYf6AcBKCDMtLZWeEVdmkVoKfuJKn8SMV+5HqdVrQyi0DgqJCzR3fH5AVFFJo0+GNLWlxBWwtoO+FsECpNU+InLhL2u+6/ML0isEzVE3xEH7QnCCSg1CInaZDBCgIOhL4Gnjb3GnxMdTYunpC8lb59zpp5/uKdny9AvTUxLn6WCQvWZOG7inX8Pe9ddfT1az8Wlnk3XglVde8dZaay1vqaWW8jbccEPv4osvzsah5MobM2ZM9t4LLrjAU1Ln6Vd3Ng3yRx6Iz8L9+OOPXs+ePV0Y8k04C8+vvujeueee6y266KLOD1dSUuJ9/fXXLk8WjznzU7Lo7iV8cXGxy0+vXr2ydXPEEUe4sMDK980337jruFtvvdX5WZw333yzp0TOxXnSSSd577777jz1bNfwU7Ln7gFW3tVWW83V8RprrOF98cUXnnbi7j7C64CZzYMSQE/Jvysv6XB/a0LJfbbuyW+h0A+ebF3oR4c3duzYzJXWAU8p/aQUdkKVmmf24ryX69TxtOKZX/DLjOne+mcc6cmpO3tF5+zrrXnZSd6nNdO8Z0Z/4hWdsYcXO313r/TsvfV3D6/rGXt7W151trfq6Yd63U/d2ys6e1+v8+l7eTtdc45XrXHx9Oa2hjRI853pv3vvVv/pja0t945+6AZv1QuO9nqetIfXc9B+3jZXn+X9XjvLq9JcErZGXRU3As24K5b++lsGfgltQ8k476v2BXqdMlmYaeoufOsJb+lBB3tLnLG/t989l3sTMrEmNbI6jVjfynneo7YEeVCCkX3n9WOvRfN17733eocffnjmrGUwfPhwVxbeef0odX6t/X63Nt5///1sf9K5c2fvjz/+aLP2RbqMUSuttJI3bRpvRGHgvuZybQHKyngyevToNstDgI4HR1xbA3SCkKY111zTEcZ1113Xq65m+JyLJ554wisrK/O6devmLbnkkt4BBxzgSMdvv/32t7D5oF9v3qRJk7zy8nKX1q677uri23jjjbP3kw/9snUdtJ/c5XbSkDX8IDmQtw022CBLdCGC/Hbp0sX78ssvPf1Kzw5i+D/zzDN5X0IjgLvssks2Xb+z/Oy0004unB/33XefI5+4q666KhsX5aKs559/vrfffvu58ldUVHjPPvusp1+02bjJM/klPB8LOMPMmTO9n3/+2V2j86T+7Z633347EyoNwk2YMMHVDWSftHEWp99x3T4ImsPxQWLl6d69u6uDQtxrr72Wrdt+/fq5Dyj/9XxpNZeLJ+c656f1kayLeyl1XlzbnDrO8bf6qktovSaS+qukTYlerbalSiq/Kuk98cn7XulxO3vhk3fxVv3vcd6IKb86ijdHqd2Qb//PW+PS472ex+/iLTf4UO+esZ96szX+72dP9W5872Vvvweu8c4c8aj315SpXlWFi7FhaBOr0bR/ravwRswa772ZmOzNrJl7H3WXHvQyHg1AS6mEVetbA/OmQVzTLTj9y9v5W/Vsb3TFVCXTGqH+T2r4Oq23Wpy2J39bq69t+Z8rIH92nhu2PuePI58DtEU+fmlTQ4YMcX754moOd9ddd3mHHHKIK0u+6/lc+rk07qxMjz76qCsLfdyyyy7rygOIy8Lkuz/XWdjGXL5787l89+Zz+e5tzH3wwQfZPpuPdfrOtgL1jKBkwIAB3vTp0zO+Cz5mzZrlhBAQ1wABCoVTFWD6uTmhnULmaF6gV8SiEe0wnM1WpqQMSsjc1C/OVsFr1lxc2rm4aXX8ddDKTpXYL/cqyXJhLR7OuQ+zTeiRci9T59wP0P9kOgyQD8JxL3kElqZ2im7ahlX0LOiirrBmgBUEFjqx0ArVA+4H5JtFUlhEID7gzyfT1Kg95APpkOaOO+7o9EkpD/cyhcVUNzpQnKOawGIsrpM/8oo/8eMoI9ceeughufbaa50+LzuAYbYHXVXS4R7Ckh4OP+5TMuAWt7HwBJ3gF1980S0oA9QN91hanFt95oL4cXbcGKyO8oH7KQ+60TY9i/kvdHsLgX+LX0ynsdjMVAWaG7nl4Myj+HpAa/Bft3rJW3ZuytQhW7umIiHpmorJqIk/yaHDLpGpnUMyaJu95Ph//Ue61ugHqI6/FcXpBSo8k1Jto52LSiVcrc9W34VKfSdqEnEpKo5JUVjj9dJtR6mdu5etV1kJht5tSH91XHfXw9GYKM1WRqPX9D6vtiY9za/phMN65ArHefo+8qu50MtxPSZfei0UkaS2Me1u0tfVubS0myD9cCzqdhRLwCE03RLyoL+EjWh+HbVIztW1dHHosb0f/vrjmsHCGfzHufDf1xgIiyUUdMN5D1j1j4qOxZ+bh0JAWeoDKgKo9qA+VCjIVyGwdFEtwpY2QA2IxayAeKweGyqLXWuoHIZC6qS54wOE87cB+uKddtrJHdOnU2ZTFSi03TQFDcVDPaMqQL+OKlghKliF1o2lyy/n/rZhfoWUMbee7dzisHhy48u9D+CX0D7B1ragzkW7qw8Wf4COiebWX3bElUUGzQlIkB80YpyRQhqsvTzWwK1Rcu4/doOnhjWSZA3YnN1PmoQF+Nm9EFjSQ5+GX+LAD90aTGRhpooVtGzRSjrcQ7wc8wuRI23rJPAnHkAakGFMc2EOB3/0abHDir+RZwNxkyYDHosB6JwgkmymYCAtFlqxYp/4SY8V/bzYYNFFF3WL2dDVJD3iJC2Ojfha3QBIPGQb4k7nTPxcszoC/OJvC864Tj0RL+XB38JZvPwSH/Vj8eTCH39joJwNgTiwwYuuL2CDB3Se88GfT8ACMz5UAC8QZJyPFX/+CsljISBdf9oOnGaiz02HsPnTnlsf3A6xw0BAVcSTOZGkMy2lnyfSqbhEylIhicU9JX7adjVsrT47a6+xiL4XcSWNSgSLlISmkmkrGrEYbdoWM6bDhjKrw8iN1qC7FovEJFkbl6jG40gudrPYUcuHdPa1XbnUFfrjecSt9co575Xml4Dp9LTMSmYJ594z9fE0v5Bnl05K86h+6OTi8A9n6pS8WxulzeYiHX86nDnzawiEM/iP84H3GpvQfMxyzK5+bBySG0euqw/UQb6yGHjfWbSDHm0hZAUUUmZg6aLPzxoD+hA+9F977TX33pM38t5Q/gBhyBvhGiqr1UVbxAf89YJuJWsSAH0ZdcAHcUuAdBt6JlxjUxc+HujXyI+NM7mwMhfSZ1o4fq0+ScvGDfwB/Tj+hcSZL4z52Y6MvBeAY1wuCE/5IK4ISvhwQphQ33O0fNpvgI4FFnM3JxxxxT5pS4MGR6doDdYaujVEa9w2KBl4wQhLg85HXC28EVfiszg55wUiPT9xxR8ix0tGWOyW4k86XCM+jvnlHtImHUA6BvyJAwky5qEIwxapbHZgZSQOwC+SUyTNpAHYyAAbkCzmYnEVJJN7sAQAoQXch5UBFk+Am2++WQ499FAXDpB/ykJ65M3KBwhjHQHhiItf/PnF2TXCkT6/XPfHYWFxxGFlIj3KbPHkQ0PXCoWlCVmHhJM3pK/1EddcYPkBawkAiSsL9WyAao78NQX+9Kwe8+eBa9oO3S+H+uyoa+etA4Neicd0AILiKSnVB6H0k3dB40Naqc8NwlemhDLBjlXwzZh+2CgpBFHsqkJcXTNKp58mrjzndNos8Ioqca2r0483wmu9J5N1BMzckYan7BJpq7vH/WVhGHFnQuk1TH6ZFNWVJZ2wti9tbwTRDLKrV0zPNbdpCSzZIRsajRHX3PZmbcMPzgljriWAFRMWlvJ+nHzyyc6SCMctAbZqRjpoFkIKQW6dNAbIMYtCAR+FlI2+wPqPQtHc+Wup8gKk2EhceW4IEujHW9KqQENlgTiycQ4zQ0hcGZP8Y01zwN4Lyov1HvpRPlL4ZZyc37rmPuLAH0dc9NP403784S0N/LgHG+pIXFl0i0lIG2fzITfdAB0HftvwzQFHXDPHLQqS+acNzxp1oQMELwYvDvfZPfhB8iB7uf4c+9Owl8vvT3z+lw8QHx0PYbFLCwjDPRaGX+ylokJAOKbf6aBQNQBvvPGGswVJR8pWs/40sFgAyeXLlI6Na3adX8sTYe03F+SRclh588HCWDwWl7n64m4tkDadInVtdmQLAcTVNpxAZYIpQWzYAsrUmrD0/PWYPw+Zenf/0u0OchiG8Gm7SkA69TZH6CLaTvUkpY6wEFzuDSvrg7jGafNKGiNF+mHjiKt+RDI9r/7pbKTvC2n4dFb0lx/aSzQmNVrfEFeN2G30FfHlnbDpwBCctD+XkbhmTp1HKjPV77wIkCWuaYJtxDWixDWejDu1AYhrQxJXg/8YcE64/PX6z0G8qAcxcwKwxIEaUUvh1ltvdeotfLxaP9QYcuukPlg43iWkj5SNPoldDBd0QFT5AAb02/TPRlxBoXVYCBpri7yLWJtBTYwPa+uf6gPtoKG+vD4g2MBqDG2W+xG0MGMISbY8+n+tDjgmvD9df5kIh2AGqTWkFTOSEFLGFPquXBCea0hc2Z2RDyUs9gQIUAhajbjOL/wvT1ugsUGyKSAupkQwV8UGDGuuuaaLL01K2q6MHQFII7C/S13RyWP0/fLLL3fXGmvC6LhC+gH1jO6uX5rRVnVv6TaUfwsDcUMSSkgkqimm7fUkAnt1YGDJfGBk2qwGl5AST6SdiFxjWmZ3LCknfY0nUPPQMOqDCS4HPSdG9GrRTQ3FlEjWxp0ZLC8VdywSFQCXKxJIa7wq9NidZ4ACaw785SR/kFLKwjAIcYWgRjQdMpVUT6SuhHFLItsRKAdbO6NzziCOOTnaopXPnllzAUkrJOv+++/P+DQ/0Ic//PDDXRkgEKhBNHc52huQuGJ6in6ZGRj05/3EtbnRWH3+/PPPblwgX3xgNwbyy/OC+BGeD3qboq8PN910k1MJgTQC1NVoV6QLiAPTa5Bn1jlUV7NRtbg+E3UrpKJ+Ikp43MCBA+Wpp55yM5Bc50MAgQFjHPC/+4C6IA8QVyT8lBkTjwECFIJ2T1zbGlRPc3fg/q9W/3GA+oGtW+zQos4AWLCCygRorAn7iSsdO9IAdF1b4tkWCtK1tGkD+eAPw69yVY7SpFUJH/8c6cuQV5pROhzENewIqBbYLYxKE1clsSmUC1JO4sqAY3Vn5DBLjnFhiKuSXSWuTOGLh/60XnHp4TRB1AscctuwhZkLS8vKBPBDHcLlWS8z6FEuCCvkFUBoc6JqU9CGnnvuOZk6darLv21AYO+xv3zNAey4QlxRKWop+Ikr+v5Iz5q7HO0NkCUW2VFmI64ttWizECDlpm/iWTe2OIvtu9GtBnyEoxPLLB4SZOJgATCzin5AJJnR473n499AeBYDs6iYWT8EKzx7G5s45h7WO0BmESAAro8bN87Z/0ViavcA3mP0wG0BtMHfB5AHVAUC4hqgydCGFCBAu4d21FnzQ7iRI0dmrqRNHjXkMIdl9/Xv379Nzd60LLBLlevmAwmsps6NAfNVc2PiCJNQuLm+zYKc6Cyl9ojNN9/cmaajTQ0aNGgek0zNjbvvvtvZdm6JuA36IZg1DaXEtUXTai9QgpgtsxJXZyavNYC5QtpLIpE2wcgxUOLqrbjiigXZcb3ooouy5hGtb1Oi6syZ6YeVs8U7fvz4rGnCKVOmeCussEI2rN9h+1w/wpxZqnzXcUqO3S+mIQFxYhaxd+/e84SjPq1OV111VWeaknLau2EO4E+6mCLTDyXnFyBAIcgVkwQI0C7BrmJ89ZtUC8sLCwLo4ZFRIP9IT+Kn/RyyB7lw40L6cB6Y/1yHdBWXjvnvzv65c0S63IbpK/1pHJZOMyEn0fYs7/NLq5EeBejYaM1niC4tOqaYvwLWp/FLPqxd5QPT6+wQiYQfEB7JKr/WJpFk/vLLL053FX+kn+j15zMfiLQWtRdUAvbZZx8n9US/Fgm05QuwNoM882tgvQUSUz9I3/KPGoDNkPn9AwT4p2h3xDVo3AHygSkp2oZ+rTvLAGYXrqO3F3JvpBWts/TSKR84+VsR1QN9U/jm2IkiP44RqSnPxpEb3A3JFg+O+zKB0qcaIkVXoGeVc2TGa6/JuEcfltDsWXqlTiJSK6FEjUaeNouWBrEWPtiTJPnzA1qdJtaZzAAOfacBArQkrP+A4OFaAzNmzJDrrrvOmfdjah4zWJBO9EMhnblT/H6QR2yhQ2AB+WdhL+oq2KCFpNJH8os6y48//ujuOfXUU7P3cO7fzpcFW6gHoJLCgkMIJ1udEw6TWdhXRc2ABYjcV1lZKXvuuafTgyXfADONqC/4gbUi4gbEhQsQoDnQLogrL+uIESOcVC1o3AFyQUeMPiGgfaD/tSC1E4ZOI68QPFyWwBnJ9LuU/kFHbdps+Xj/w+X/tthc5jz5kEAruWxxcexqyeKwyDnGZaGhuCGkA9tHI+Xzww6WycccKd+fd67I7AnqxsnUFx+TuhefFYnrQFRTmb4nl7zOEydIJ8i/uDqss5KMpc/VWj3AxdXNc7ueZIK1S0AYjPTYcT4XoP3CSBdozWcFmUNaCbFEMrrVVls56SiL/SCK/nzlAikopNTfxpCYYuMX0olZNsCYSh/JKv9hw4Y5aSv34dg4Z6ONNnLhuJ+w3GvXAWsKkMaSV3RnIayW3iuvvOLWDdhCMIj2Y4895kw4omtroN8mbj/Ik/Xd/uMAAZqCdrE4C6PyK6ywglsdiWI6L0nQoAMY6DxZbIACPx3h5ptv7jYVAIU0X//iLOwWspDAdgNra5B73P+3dx4AUhTZ/3/AsuQgQQFFQEQxiwqYAwfmjP4VczxzOMUcTgVzOM8s6hkwYs7iDxVBjIAZQUVRREEkZ3aX/tfn7byxd5zdHXDDzO77YNk93dXVVdXV299+/arKhCbQrapeEITJPlAQvx3qEDuENz+Rkf/vUKmzeLZ0P/0EWePm/2g806bAm6lZYUmCsRSSHf7ZoPGLT1RXFog8+px8esr5Un/hbJFmq0vnnXrK1+M+l/pzFsmyZYXS6oSjZf3bB4enVdNwYD0pCCfgHIR4Fkvmoo7+SpwubA6xwwq2GGLY+A48rnkU0j2LPYxdgDX4r4PpVD/bbLONPtzh/PPPV+EQfyAbFfF3zDpnMZ5rZf1dzMXOWVj+HnrooeToDisDZWP4KYYaYx3Bdskll5SwRFYWuAqMHz9eh/TjvFgun3/+ee2Jj/DjN8/C0sDAw8yNdn3opEobQWhiAGKMYaBOsMS+/fbb+jcPOF9cTJIG15zxxG+//XbdxtctnsdmLWXot1GjRiX/1vbu3Vs7adl+xi1n9ACOY5xxs+wydidl5W9uuuuDsMXVgLJ45yxnZVi5u72SoAHzmYThQPhsUt1a2m7I6nojd0rCH8JZs2Yl/1DjKlBToETchAi2/ESoy4gBob0xLiuBKVlL/IvCUctC2/y/VyRv3q9SLyqUNdolZvwJzbRu+FdvRXggLVgc0q+rkxXwSb5+SLMOLmeckBMzlirDUAVpqKJ12lyRz7+XeuHBpkJ6we8y6ZVXpcVv06XJ0rlSv0GRzPzl53BubLtBThZfDk5ZLnpK8q0UPzjzoxXSYEWh1GMa2VCGukFih8dq2EOKQbjrv+yEtmjtMb7uVB38XeCzNrMfYvxgautMA8ewBK4dzyAsl6nxKiMg1vApZRIA/FU5N4Jy4cKFKl557pT2vGE7blLxYa+YVY1jEKQvvviiikSmHiddxgBntAS2EYhjIhLrrq3jUmDPO4SzwXlsTFnqienGEd2WDvnmpedf//qXDrXFOe1+YJ145NmC41QIoTFVO/TypkdjuAmic889N9nrsLp59913o65du0ZHHnlkYotTHcybNy9aY401tLcqbeSUU06Jli1bpvtoK+WF4cOH8xdTQ7aMKlCihdOpmA7GBSEsDSsFhVFBUWG0LMRaFvK/PISCFUVRUWFxWBFCtGBR9Om6HaOvpG70ZqO6UfT5O9ES6+1PGgtCmBPCzBCWFYatIfEVrBdFy0O6hZaDJQVRwbeTo/cO/X/RC63bR2/XaxKNz28UfRLq+qMQPgmSclyQnO+Euntxw7WiOcOGhTTmhbTCeUISpMJZdSWlUMVnIfCvmBXkZPmS4rjTf4smnXZ2NGLnvtGk6waHOpgTAvv+TEjTzkK22WabZJu64IILtGe4hXjbqwh8VIH0xOt4VfLL33fKS4/59u3bR0HkJfZULq+88kp06KGHRh9++KFe127dumkbCqIz6ty5s44AEC9bHP7uLV68ONl7n9CwYUPdx6gEjI5AedjesmXLqFGjRsnRB1q1ahVde+210aBBg6Ldd9892X6Jy2gG1n7PPPNM/TtLuoxQcOWVV+p2RkPo06dPMr3SguWL0QJ++umnEvdEHLYzgoKPKuCsLMWvW1VIOKcuQyNOrodGrm92bGNWD95K8WnkDdg+O1Ql5ANuvPFG7fnJp2aneqCNhD9walmxdT498VksE2hb8SVpWLurOsL5CpcXWyoXzBf5Y6bUmTZN5PsfRCZMFHnnXZn36BPyy71D5Pt77pbCN9+VvCWFks8I/CHfRSEwRWrdeuF2rVs3yMi6MnvkSCmaM0vyw32T36mjSPd1pIgP8ovnSbhxZMljT8ob/2+APLl5L/n8qqul7qIlIa2Qlfp0t6ojhSEULOLLQp68fN/jUm/YW9J21lxpyJSuUZEEiav2z4VNmshq3TeSnS8eKPtec6G07NkjpFM/hJCXUCy8FpK2Royly8lDONfSRVKncFnYh4drsasAtc4yD2tRYYEsH/66TL/nPmk38j35+d7/ifw2PaQRUiNiCIlFVpKuDdHGrJ05lY/VNzM1seRvw8oEfDOxGPL3HmsjX9rSxavowDMNy+huu+2mbg5Md0rHJwb35+8abcueQamQX9wJ4u2Pr5V8kaJDlfUFYL9NSgDUD+4s+NLiEnHAAQfodiAuIYhOzdukSZN0O+ly/Oabb67Hkyc6lgHxzWJLnskT0+YSz6B+iRPf5jgVQZULV2vENHj7Y/HZZ5/pdm5KbpyNNtpIB4LGz+fss88ucZOuChzPHwzDbtTS0mU7jvP8QQEGqXaqB/5Yzps3LzmsCjBUS1nQlixkByEfEyfI9zffIJ8cdrh8GR4w3+2wg/y4yaby9UYbyIS+u8i0Yw6XeWecJIvPPUMm7nWQTD1/UHhyBB24eHnSFxTQddy10x4bIg0KG8nyeo1k9S22DhHrS5MFS2Xyv86Uj7fpLRPPPEXav/2cbDxtvMy582qR8WPV2TUKx9sjsX54qMA/ttlVWjVtKI3rIWMLJCpYri4LzaJCadm1i0SrNZPJDz8onxxyukzY/xCRmXOLM0QIiWkt87/we87Lr8m3Z50tv4eyThv2pBT+PFV9VAmJrIdoIWJIu/5770rdvKXSQJZJ25B3mbUgRODMmqLjZASfxYHnx8oE/rbY3wh7HsT/dmQSeI6lS7usgDsAzzX8RumJz4s4kBbE3QBSn1McD3FfXMTh8ccfrxMYICJ5hpImPqOsU05EMR3C7DhmDLMyAMYizkP6iGCrGwL+3CzxWe3Vq5fGJy4TYiDA33jjDQ08L220FzCBbedwnIqiyoWr3YQIESya3FzMz4zfD+ISIYtQQdTyxofvTVx0rgrcvPj6XH755XqDxf8QpAPr3mmnnaZ54Y/J/vvvn9jz9ynv3E5J+KPH8C8Gf5gZVYA/rJlif4CB+q/Ka0A+i155TcbuvLtMv+xqqfPKqxJ99LEs//FHWbx0kY5CVVQ3vFiFUBieSctDWFS/UL547+3wY67Ua1RHmgfBmR9uAb491Ges1a+/kKXD35cFRYtkRt3wUNpxR+0stWDkp/LzUyMkf9psqbt8qdQrKlaVdVZrKtKmmazIo7tTeNCH0IDq4/nYUKR5n/Vlve220bzm5+ERW9xhikdk/S++lhUffCmLps2SolBtyybPE/ljcajIUDaNEEL4wYgBsnCOPH/6abL0gQfkjyv/K9NOPF9e32lPkc++DHFCAUIUzh+uhv7l+X3m71I3XAvu7iUF4cVkYUi3bvF1yhWsbcWDkzvE/x6ku5blhVWB2a0YBouxqHm+xP8ecQ/ym7RtHSyfti8uXHk+0tMfeNbx9/HZZ5/V38ahhx5aom8Az92NN944WQb8a/G7JWAFtu2Iz/j0s/ixDho0SO69914dnYCZuJjRkA5cdNCKT5mL8amszm5WNljVunRqJ1UuXK2BIg5vuukm/RRPA+Ytk6V9fuDNj6nocB2wzydxAWvCxay2cVKFLudkHDtuuP322097k6aDT06kx1skn1xIh3wwXMmqQL7oaYkDPvlHrJNvAkI9Ph6fkx6uXXyQa9oCn6TMOsH+1JBt/DZtqhQsWSDL6xbJ3NDOZzRoJFMbNZYfQ5jSoIn83LiZTG3STKaE8FmdevJLuzay41XnBHVZVxotD3/cEaDhvwL+zi+cJZ/fdqM0nDtbWi1cKktbh7rYa/cgIJtIo+03lg7rdw1CkAkE6HBVRwrDMWu2bCPSpHkQs7S1Ojpslg7bCosWyXeDr5TPhg8PcYukqLAIWalwh+FUUFRnqdStly8F9ZpKdPIBIut21L8cZCdI7/D/pWqpldXyZauLT5Sf2jeR3woWSv6SOdJi9jSRcR/wRC0+QFNnJdJxHoPuVtG7lGG2FgXxWhg2+DOsWuFvFUKGv38E+5vF9poUwJ4jVfk3hL9hBOqW541h5yZv/H0j2G/Lrz0vOnbsqNt4PhGHtEgTbr31Vtlqq610alaz3vKbYy0AhiNLlzFgSYeRGnhu2TM3VXgiZC+++GL55z//WeJvMHGpy379+uk2/kZfffXVal1mH3EIcax8dg0cJ1OqXLjSiAlrrLGGvPzyy9q4L7roIjnppJO0EXPTdO7cWedNxg+H8eF4u8P6ap9JgEZPg2f8OY7n0wdvsAx7NHLkyESsPzGrHTctAjUdfHLChwdfIPuDMnDgwOSnnEwgn4yMwADTfFZh8GaG+xgyZIj6/JDnE044Qf9Q8HaKXxLWYGCf1Y9TXB+0CT5dGVwX/nim/hHMRniY0E7X2qOvbHTj5dLnmaHS97lh0u+5Z2T3F1+Qvd98XfZ58xXZ66P3ZM8PRst+H74vJ3z9tfQPy2Z77imS3zg8FcLDCHUXipvHOFbffyOTnno0lL9ILae9t+kdGm7TsFZXljfLlyXzF0phnSAEQ/0sC6FR/Xz547NvZeETr4Q3Kc1WOA5pG+5Fnl/fTZIFw54NlY1H659/DoqlZajvcN6l9QtlbtsmsuW1l8gWV18YBHV4GIZ3w2KDKzJ4UYiL/Gwom55yluzz9rvyj2tukig/PPzqhpOs11WiOn8Oqq6tO6QbYT0OopxsFNHmixhFgZ1OdUK75W+tWeBqauA5wP1pf3Or6u+vpc/fMBOIwJJthPg6eYyLPK4PzxBgO79tfejQoXLkkUfq+jnnnKPPUIa6wiqKiLUAWH4ffvhhnRGL4QX5u0rg2vMcJh7uAaQfz6OtmwA2OHbw4MH67GZkAtKnfOQ7HVY+S89xMqXaxnHFrxWLKg331VdfVR8bPs8zILPdpHZDAsNwHHTQQSVmFWEIlC222EKP5RhuakCAYuVs2bJl8kZD1DI7CPGY/o7PGmA3FedinZucsQG5cTkeEcoNSRp2w1uV2bEGogoL8RVXXJHsTATcvAMGDFCfICwZfLKxffyRePDBB/VTjpUbUtOujXBNqB8+T+ETZjCmJS8F8ReZsmBsQ15oaB+8LDCmYfyTVmXA9SVwTbEpLi+cI/l5TYLMow3Vk/DnPPw/PJzUvEhbKF7qWmGQgdoZq7gNqLSL8oJwLZBfrrpIpl13s+SH9ypcCH4MD5YNrr9O1jzlVI07dvUuUm/O77IgxF2xokhWC8KwQTjTjxtuLnuMelukdRC5ReHAuvn6BaDBRx/Ip332lXorlsoSHlhBJOeFkB8eSnlF9aVuSIfpBloftJt0G/a/sNYmZCgfnZwA4bok6NjGUhDOtHDuImnTuL7MHnC8THr5CanTqqlsfe1NIjvsLtK2mUizhlIY6iSvYLn81Lef/D76A6kfCv1Ho6bS9+mnpWi33cJ1LS53FBbc0Zld5arFxnHlPuXBHx/H1e5tqIj7uKrGcT322GP1HqHNIljsk7Gds7LOXR2Y6OJvM+v8rccIwudtI9Pyrmy9WPuItxPqnUkCEJiPP/64fnmM77d1zkVcDCRMNvDee+/p30H+VvLcYbxrnlOUifubZxJl5LnJtuK/R8Xp8Zu4iHieccTjvLRl+ngAzyX+9mKJJa49Y+Pilm32rLZ8WyC/lnfDtnMMz0nGoeWZzNixlj/HKYsqE640bhor4Z577tG3QRq+YdmwG8MgPp8bxowZI5tsskliazEIUXo8kg43HccSuHmwsJovJG/WxLPZQ5i+jg5XpB0Hyx43j/WcZBo7nNoZb4/PLvfdd5/utzza8Sw5BjcE/pAAfwj4zILYJm88FHr27Kk3K/5HiGuszOTz+uuvV8tunNS81Wawyl966aW6Tr0wLiFtIdM/ctUhXEtgd1hYLqtbFORd+COPQR8BiO5DnuWHP+QN68jycNmJbleflsYjgS5LDZcskjF79JHo3Y+lcYjQIERcEcRw3ZOOlS7/GSyNi1rIB+3XlOaLfpU/Qvyt/9FXJgx/W4pCNf3QpoX8vy8+FVm9Y3hqLwtP7BABfpojH+xzkjT58S2Z3XQ12WKfvWTZ/Dky+aWXJT9kpllor4tCbgr23ll6BCFaT1pJnWVLwsmZISc8REMeuApYSrWYIf6K8CAc1b2jtJozV+osDlo1iPDlQYwW7LipbHrfg7K08/rSMBTsj57byy+fjQ+pRDKzcRCu990v0aGHhGtMQiG9sKT8LlwrX7jSsYYXRL5W4cIB8XNV0WOiSrHyYdTg7zyD5/MlsCqxeiUvGGLoZGXw94rt8evA84O/ezzHOHbq1KkqKunQbM8lYJ8dby/4CFV+c7ztI56JT9bZh9iNn9eW8XikieBlm4nW+H5CPA3D9gH7WOc5idsgXzZTz+k4aQkNp8oIjToKb3I6ZiunDo2/RAg3jW4PQk/HdmMM1fPPPz/69ddf9fhwQ+kSbP3yyy/XMenCG6UeTzrXXXed7oMganV8vi5dumjahNdeey3tmHIDBgxIxrF8sAxCWJdDhgzRcfSISzBIKzxcNE644fQ4xuULDwDdH/5g6NIg7+PGjdO8csywYcOi8AadHOsuNW+1FasHxhWkXgnU15QpU3R7prz55pvJthUEaxReRBJ7qgZa6hJdKwz/5kXRl2Oj6K4h0ZKTzo7m7nlo9N2u+0U/nHN6FE3+KhRaoxUvE3DsfFZ+nxu9vG73aHQox+chTAphfN38aPol50XR4t+iaPSYaGRe4+iL8Ez7kBkajzo8GlsvL4R60bDVmkfRxC+iguXzQvKLQ/KLQoKLQ1gaRXNmR4VjPw7LkLfFS6KvTjk9GtuoZTS+gUSf1G8RjeyyeRS9+EY04f8dEM2+6NIo3FDkpjif6Qj3yNc9NopGhecSaUwIS/I6Or9u9Ov1NxVXyLIl0W9bbRF9Wqdu9EV4fx7RpFkUPfZE8cCtlD0Eq4psZOutt07e7xdeeGGJe7ai7+OqGMfV0u7Vq5eWy8oWv+9qarj77ru17NUB9c6zhOeUrbNMXbfAs4Ql2DPQfsefSWDHG/Hfqcs4Fo9zkS+eTfHnk5Hu2JUlXZoVka5Ts6lSVwEsB8ywwedyrJDhBtHpBel8g7WT4a+Ygg8LGb0k+exun4TDH099m2MdeHskDd76mHeZzzxw4okn6tR1cZcC3AZIx/xc8a3Ft5T0KD5p8mmEuZbtbZPtOJpjKSWPfHbByoel1N5cLS/AWy9xn376ad3HNJCMzUdHMGYEw0JDfnkrpeMXrgr4tpLPU089VR3lOQ5Sl7Udrgv1amDdjvd0LY/qtrjiUb0khNY4mT71srz570FSf9rP0jBaLHULimQ+naYa15GORxwl3e99SIJ4kzqJz+VKuEPxNa2/eLmMO2egzHvqGWm+eJGsVrBYFuXVk7ZHHCjt77xFZl10rfw05D5pWLhEluaF9tl8NSmYtUjyVhTJH23bSN/hb4is20UKGoX0I9KPJK9ek7AM64y/ml9fZOlCkTm/y/SB58i0Z1+UeXnNpc/Vt8j8ogKZePFZUhDSLdhyO9n58SdEWjUPx4R7oF6xC41RFO6her/9JAtffl0mjhopiyZOlM5f/SZL6hbIooMPlS3vuiNEWijf7bidLJz4XchfJL83bir/GHKvyKEDkm4IZNEtrlVjceXeIG2+GDGrFH+nIF2ZahpYW+NTqGJ1rEqoW85ty0yIXw9b5xqS99Q0LG27xrbfttvveJq2rSzs+QnEj9dbPC2w3/HzgeWhquvcyXFCo6kSeDtcd9111RqJ9at///5REBRJS2XDhg11P1ZWfhP23Xff5NsXS1s3sKT26NFD45LmXnvtpTNw8JYYh3jMvGTpvvTSS4k9f7Lzzjsn97dr1y4aOnRoNH/+/Cj8IY9uu+226PDDD4823XTT6KCDDko78xJvpOHhpfmgjGuttVa04447Jq2qBx98sMajHrDQ2LkInTp10n32ppuurLUV6mGHHXZI1hXtJLysJPZmRnVbXJnjS23vKxZHcwdfE73QtGn0ToN60aimDaLR+fWi95s3il5vXCf65cKzIua44l8J4k1h5h9RdO890fDV2kWfSr3os7r1ojdaN42id1+LvuraJRqfJ9GE+nWiT/Ml+qBR3ejjvAbR53XyouHNWkbRxMlRtLggZGZ+aGxYW8M6yy+/iX4844zo14uuigoefCSKPngr+qBPj2hceKa826FVFP34QxT98FM0ZeOu0aTGEo1p2jj64djjo2jW7OI8lchguBeWLC1eWTgviqaGYx9+OPpKmkUfS93o7X0HFBt6Fy+NJnXvFo0P1+XLIKPfatwsioY+Fq0oCGmRXGLhFteqsbjWZvi7S8g1rI1Z/i2kayfxeKW1I0svUzJJEyxdix//7TirQpW95mCdxD80nFMtCM8884xsueWWEv7o636czfFBJRiMLhAauq7zZhZ/U4O77rpL/R0h3ATayQtfH3xH+W1w7vgbHXmIg0/XuHHjEr9E83Xcccepzw3j0zHbyGOPPaZWXbPMpoJfLU71QJ6x8o4ePTp5LiyG+JExSgL+PHEYWgTIo5Uztay1Ea4h9WCjLgCdRvAfziVwNFHnmDr1pMXR+8s+N10qPc8+RbofdZxseOTx0njXPaTXFf+WNS++IERaERQ6bZ7OI4l2SlOgOdNLqs1qIofsLZ0OPUS+a9xAivLrSfvlhTJmz31lxY8/SsO8PFlUFFII9dYwHFgv1GFRnRVSb/ky+eCEE2TGbXeGxvi6yKxlIfkCkXDshIuvllm33y7zrr1OPvznafJynz1l4bgvgyyuL4vnzBaZFO6xZnkya8N1hXkCWixeLFOfeFg+OP4kkSVk7M97TYoKpMH8uTLrqWdFZobrNvZjeeeiSyTKK5CF9epK1617Fpcn5G/FvEVByhYflvwY7VQrfE1K/ftY0+FvTPz5kGvEnxmE0ihv/6qwsmlW9Pmd2kmV3a002GHDhsmP4eHKJ3U+R/Xt21d7FRr8wbQ/mohNRAqTEZQG4jD+ud4EKkN88DnY4DO/wf74uKDAeRCnuCqw/vrrr6v4pFdt/I84x/IbQcp0tHFwWcBRnv12M9O5ywZ95vdzzz2nw47wcOjUqZNu5zMVvSqdv2J/5OJthI56K0u8Xdm1qUoKw+mWhDBf8mXJWutJ3ZP+JU2uuUHa/ucGaXXfrbLZ4/dLy/POCQ2xtTDSQL0QUwoWhre54pc2hTuVr/rQbE1Z/6Zb5eAP35QVnTtK48VLpc1ShrOqIwUFRdJs/c7Sep2u0mx5fWmxokCW5q2QxtESaTjmHZlz4dny9XFHy7v9TxSZFwTn/Fkye9pYncF1WZ3F0kgWSIfCZdJ+fqEsyy+StgV15YfX3xKpnyfrHnm6FDVqFl4oRNYM51v4UhDA478OGSr6U3MunCffbrWR/HzoQfJNl/Vl4gEDpN2M6UFzL5UGHdeWtffaQ5bS02zpEsn/fa7Ut+vCsvlqJV0knCoHd6aqvj+qm1wtb2l/y8rbVlp5S0uvNDKNa+la/NTfjrOyVJlwxXrGoMTt2rVTUYjfJ6MCIOLM0hiHOPQmx+e1NBi6ih6hDMbMuKhxkQkmWDg3wc6DP2oqDCVyxx13qPXVwM+LwBix//73v5OjFNALEuFtcA6OszmzgXI+//zz6kuLoCZgHaY89Nxl+BX8WxnSZPXVV9djnJJQl9QtfscGlm3Drm+2Qxe/RiHgdd1oeSjLT+GlZ8xYkSG3yR/HHSPvbdpT3u+4gYxu01E+XL2zjO3aU77b6yhZ/MRzQU0Wp1GMlTUI2hWhDT86XFZMnSlLozxZLvVlRagv+tEs/WaKLP7m+yAGl8qsvKAHl4d6KwwCOtztjOOxMIjI5ZPGi3wdRGfjlrKifdfiZAP4lRJwcGms98wKmfPNpHDKxtJ8j12lxcG7yOzmIotCuvU6tJQFbbg24WWNg9UqXBTuDcanbCB5dfMlj4kLVkSSH144el91QXhTW1t9YGXeHJldtJgJZtXGvKJBSLBti3DRSchxnEzh72Q8lEZ5+1eFTM4bp6LP79ROqky4IhptSeNlurkjjjhCLZyIQd70U0UI8x7vtddeye2IXANhyxBXWD8J8aE06FTVo0cP/c2xcassMHxW6rk4PwKVjhYMa8UgzggmAoM9M0wJ5yctLLhxSzDnQYQTl3QJfN5mxi2szOSVgOUQlwjO/3UQDX369FG3A8QYHdZwfWDWE46nTpzi60x9U8eEeKc725b1LFwgBU88Kj+ffoZ81G93Gb3n7vLOQf1l9HlXyLePvyh1J/0k9X+ZIU1nLZCmMxdI3s8/yax3XpO3Lj9X5LMPEonEWLpcZlx3q7z+v/v1a/8f9ZtKu733l7kbbhw0ZAvVj8jJxWFleWEjWdJ5XZmW30QKm60hi/OaSb0GDaXRNpuIdO+kw1rteMONUrTp5jKhYUPpcNLRMn+HXjIrv7msiOpi+5VmG28UVGpILCja9a/7r/R64BGRcwbKzv97SPLXD/uQ5NxOnLjNarLWf6+WieuuI9+1bCNfN24uc7btJT0eu0PqDThYChs0lib5dWTZxC+Dmq6rIhm3hsIm4YWkWRCvGJlL3pqO4ziOk6TKhKthn/MRrIznyhIQavTYJ8C2224rEydOVH9TxAliDnFpmBglPoLv888/1zhYXplAwCxznCsuXImDC0A6YYhQZiQAxKa5E7Ro0ULTRJRyDOKVJWPuxWFqVyB9gkF8YBtiF/GKOGU7cz0bDADOBAyMutC/f/8SadRmEK4IfcN6O+cO4Tp+9YUMP/Ns+f3OIdJy1BhpO/FrWX3WTGm9tEhaFKyQpqF9N6zPhAMhbp0iaRDaV8PCIqm7OMjGecVjCpdgwUKZfN+D0iq8BIU7QZr27ilt77lNtn/pFVm+SW/5NW81+aNZE/l9zbay2SVXyFYjR8q+zz0n6194sXS/+N+y1a13y/aPP0aDl8L6DYOA3UB6vvGmDPjqK+lw5WDp8/RzsumN10vTo8+QTS66UtY7+QyJGnJfhhewNdaSRgcdIZsOvlbq9u0TtiVeJGiuvEOE+27t446Tg0d/IHu+977sN+YD2em1/xPZ46Dwdria6lKpUyh1ls7XoWRVuNatI0VNQj6ahnv2r7el4ziO4ySpcuEKJsoQlXxKR3wi1p566qmkyKQDDp2smAnkP//5j1okUzFrGx2eEDcISgbRbtu2rW5PxUQlAtKsoHGwhgKzdw0fPlxFEtvwfTVrH/nDVSDuJ0ua+LfGYRtiNz4TC+elgxfDMwEdvywfkyZNSlqlGQps8uTJacV1bSP1OlH/1G3qtctq8hpKi6ZtpaBxc5nVMAjKEKY3biS/NGso01o2khmtmsrvrZrJtNaNZUrrBvJr08byW8s20rH/oSK9tk4kYoR7p6hQls1bIEVLI5kR2uRWgy4VaddapHNH2fKV52SvN16Xf/zfCOkz9gNpeskZImt3CMJxV2l1wZnS8rJzJTr5mPDG1ySI1kbaBWxpaHbL2raRaJ2uEjVvL7LamtL0zJNlnftulVZXXC7SbV2pUzdP5hYuDX8w8oL4DEKzPp3AlgfZGtoozZRbkeYb1qMVebKieQsp6tpJZMOuQSA3CScIIbx/FL92rAhiNQj0wrp6WJ0ovFw2CMK4SYhTLX+RHMdxnFyhWh4TiECEBwIEiyrijt76Bx54YNLH9O2339bxVnEDYJatrl27ak9/PrFzHIKS3vj777+/jouKqMQie9FFF8lXX32lcQzG/TRXBAJWT5YmFA3EMtuxBJubABbXJ554QsUsHYM4hnMzPqudg/KkdtYCtjNlrIFvLWPTki7pcDxCjIDrhAlVRDhlSM2fU2xhp57sBScn6LGZ9H7+Wdn44Udli+dek95vvS9bf/q17Pjrr7LrH39Iv99nSr/pv8seM2bKnjP/kJ2DKN1tzgzZeMjdErVkvFramYVAi1ay3XX/lY4XXCX7jvtAZNteNJogKJdK0Zr1pfAfPaSw91ZS2K6zFDXKl6I6jFMQxGIIK/LCPRD+4VdK60JIEuph9QzLolCvLGmJ+MQWhngF4VdBXpE0adhMt5tGbZKHtTWs8aNYgYYQZG1eaN95XKPEdg4KUZkojLRxY6i3VgdpWKexNAsivsmK+rJ6w3Yi+U1lhR3jOI7jOGngkVPlINwQbQy6TwcrxB1C1gQdIETPO+88/UwPTFDAaAFMy4cgfOONN3Tu/xEjRqgoRcjw+Z20mITAMMscvf6NX4NgIA2CwbGcf/z48XoOIC8IUjpm7bPPPjqKgQnuVAtrWdi5CDZRAuLr448/TopfOnOZKwTbJkyYoOu1HVw+4sNf8ZKSS+jgVvWKpEGPdaXNgf+QhttvJA22XFeadF1LGjZtQuNIxMwEVYfhDSvUy0l7S8eLjxPptHo4CYIx3APhdkb3Bc2og/rnhTZGqBdZQKyu+DMkthHyihIhHIs7K8G21U+G4u0MYaXDV5Ug7CCoeE2UKaVo3Ilsqi+NJb/HjlL/nKPk1zXayLcbdJb1rjhTilq2Kv6D9Je0HcdxHKeYKheuiDLCvffeq/PPIxbpZEWnKDCrIyKPDlJjxoxRiyuijn0MHwXMXMMoBRxP5519991XZ1NCgI4dOzbpc0o6zD9tPq/8puNUOl9Jtl122WWaP+JtuOGGOpIAcA7Oj5hlH64CVhYgffJIngziIrrs8zYhPoIArhC77rqrdkBjpi3SBfIRT6c2Q51yzalL6o9OcHZtDV4usIrzEpNtcIPVq1NPikLbWVG3SIqaNZSofnhBodng4GliNEbJX3HYE1Ks1yA0uEY0uhAahxCUrJo3VbaGKGHJC6AF2hXjXWn7igXdngh1EyH8lwy2LYQomU7YDrZMwgZCiEfQcyVI7GIPOeQOR8SudeWFssOrT8i+w5+Rxv36BFEc8o7vQsqhjuM4jmPwLKlSEGfffvutDBw4UEUnYF1lIoK1115bBQqwD6smowUwYD+doRAtZ599tgpIxCiuA8Tj0zoTGsTH+8QyZ1ZcRCBTrALiBx9VE4kmKBGXuCXgf4pw5Bz43WKB7d69uwoo0kMYk0cT2MDxCGe2Y9nleNY5DncHOn0ZjDSw3Xbb6TpuEYgtfFrxcbX6IG/EIV1HdFQHs5zDueeeqx3omGYTH2gmtmCEit12200FbHZRrNrqBjG5PCwLwi23gm0mWuNiMFPUuBkkIFOtahNBWOJ7yiiwpF9PzxEPDFiVPhQnsSLkIX2oo73+VwTxSicq224t888WGjamBltVyNWfP4skXwobtZQVG2wg0rFjKEsQ30WJY0g0ETF5uOM4juMEqly4IsZefPHFEpMC8Ome0QUY0xTRRkAY2oxJxGXc03XXXTcp5lgiYnElwNppFlWDuIhHBCfCmNm62IZoHTRo0F9EIcIYf1mOQUCyHzcGJgqgoxa+rnHi5yMuQvPkk09OCtozzjhDJ0Fg+0cffaRzYXfr1k1OOeUUHS+W86RiVmA6o+H7GxfHtQ3qlJcEYPQFJnMA6oQJIg499FC55JJL5J133km6gbCP+eOzEa5kQZBhvJogwXXOuhRVxk/b9Oe6rdmeAMcGFbg8tpn0WaVVF4c/RWnJbX8VreUFSPd7pVqnHhz+l0gAlwORRuFnk5BQo5D50Pbrh4KlqRfHcRzHMf6qnioZRCkWtAEDBqi1jIH/+bSPUEE40tMe+MSOtRXMAmpij7j8RlQiVBhGiuGzSO/UU0/V6VsRupzLjunQoYNaNRmdgPFT2Uc6wDpilc//WG85H/6zzHpFHCY4QHwiJgHr30477aTr8TQQnJbOzTffrIKZtBCtTLjA8F6MUMCkCaxjOdx9991lq6220vQQvvi9ssQCnFMdkCoB6pTrjAsIM5vxmxcRXmSs3lnaiBK8lGDRtn0GxxFS16uO0A6D0mwQlg3CknW2JFHrK7/pZZ8aSsmrHU5RQyCWlZp1jounU7y1dIqPKRmSiQeS28JPq17b9mcsSPyynclAHhKxgmjVHAX1XifKC8Wvp5ZdOoJhzdX4GcB1ziRkSrpjywrxYxynIqiNbYm/3Rb8fnIyoU5oJFnXSpjzH7G39dZbq0hEfKZmk99xYcdvGr75k8bFSboiphMvjEgwZMgQ7YiFcLXzWlwEE53CEMGITbbH07Z1jiMvpQkk2058AmU0a6vzJ1Y/BuPfYi03lxBeDLje+A0fc8wxctZZZ+moAxzDPgP3D14QuCa8DGEJpzNc1UD+i8vwZ0lStBnCNdZWiJe+5ZRE41mi4QBbjZ/n7xBqP7EWQ0V2McV2W7Ju24hvx5iy/pMoCopVTc2BcMiKkHnty1W8JXZk2BL+s9+2P5V42yiL0u7DVDJND/DLt46W+Odfe+21Je5rI9NzlwVfi95//3154IEHKiQ9J3vhbxMdczNpizWlLWywwQbSq1ev5LMevJ07ZVGtwtXEHZ+ETYTym8A+GjEWTJbpGjJZJ6SzTK5KwyctxlpF/GDZi6dh1WT5M1Krz/albi8N4hM3nqZTDPVidUPgDxsjO/zwww9qOcd9AyHKcGpxoZoKwpUOcBzPMYwdjN+xpVu5xNsB6389H7bR8mOlx4RrsZ4knXhKf4/S2zAnK97H2p91GI//1xJoeiZ8Q8aJ/ddY8fSKU0wXB0rPX0kyvcaZpkc7eu6555KTkOCyMnjwYF2HeDoV0b5cuNYMaBdcP553PF/sGcdU4XQwZUpwrjXGEeJm2h5zncMOO0yGDh2qdWFl9nbulEW1W1zt9Oka7KpkzY7/Ow0/3XnZli7t1LiZ5v/v5K+2kOn1L68uR44cqVPrYqnlRYj4mabtOKnQfhAetCU6fuLyc+WVVyb2lmy3FXGfu3DNfaxN/Pbbb9rHgwlm6KSMCxnjjDPcI3EsANe6rOudy22Blz+DL2a4/d13333qRgfezp2ycOGahnTnZVtFpO1kTqbXv7zrwYQRdPTjk+6rr76qnbmwdhh+PdNTUfVvVFd6kEmaK5Me4G6CTzodS/GpN+LpVETbcuGa+9AmuHaMJEMnYfpyMBwiI+lcfvnlOkoKXw75u8RLEbM/2u/SyOW2YJZm+oMgYikro/rgHgjezp2yyBof14rORkU3/Ip+GDlVB9cO6xijObz33nv6qc4eCFnS/LOSTNt5pnWY7elBeWmSln3SZEQTZsJDaFQmLlxrFnQo5gsQ7iW33HKLjhXOdWW2SJa0LSyy9POo6fDCh3se5Ua40skavJ07ZeHCNUPi+fObKrewa4dYZZ3rR4j7VDl/JdN2nmkd1pT0wHzv0/nXVzQuXGsWtB1GwOGa0tm0X79+OtINX4ZoTyxri3BFtGN1pV2PGjVKh4/0Nu6Ux1+7/lYTNNaKDBVNZabtVC52zRAaJjZYQvy6eigZMiXdselCpqQ7Nl3IlHTHpguZghCmDVWFaHVyH3tx4pM4404zZB9D9zEyDcKNL0Hbb7+9/k1CtMLKtEfHqW1kjXB1nMrEHgSlPRB4uHgoGTIl3bHpQqakOzZdyJR0x6YLKwPtaGWPcWonfOmh89V///tfneEPCysdtHAVYKIaPpEzDGOceOel2gL3lAt2JxNcuDqO4zhOJcDY3x988IHsuOOO8vzzz8ubb74pl156qY7bTQetY489Vs4555ykaDMrfmX7TTt/Yi+gtflF1F7ec6UOXLg6tYay3uhtn4c/Q6akOzZdyJR0x6YLmZLu2HQhU1blGKf2wTBX11xzjRx88MHaGYvxpDfaaKOkmwnTht95551y1FFH6W9mAPQ2VfVYndfWujfBauXPBfGaNZ2zHMdxnL/inbNyCz7z//rrr7LnnnuqGMUVgLFKIS4Q4vz88886lqnBGK/dunVL/Kq5xDtnUU90zqouyAdTi7OsTVD39957r6yxxhol+n5kMy5cHcdxshgXrrnD/PnzdfpfrtWFF14oJ554oo7zWxY8ghG6zAJo/Pjjj9K5c+fEr5pLtghXrgGTQ2yxxRbyr3/9SzvPlXavERe/5ZpyL9544436NYCpd00OunB1HMdxVhkXrtmLTd+KlXXChAmy33776aQCzzzzjLRp06aEwCnr2k2bNi0pXInHtNYuXKsOrhPT7vbo0UMmTpyoU4OnglTiOnO9a4psohxbbrmlPProo+rGkiu4j6vjOI7jZAgPexMuiBjE6/nnny+77babXHzxxdoJC9FKxyynZsD1Rlx/9NFHOjrEjBkzEntKQpx4yAQbX9wo67h0+xDT8eMh03PnKi5cHcdxHGclQXAwaD7TlI4fP15eeuklOeGEE2S11VbT/Q0aNMhYQMTjsW6+hjUdKzflrUqxZWIxVfCVBnnDnaNv375y9tlnq3WcSSSGDh2q1nH2p0uL7VYulojM66+/XtsIU/9iZbb9qeI1Hthn8VL32UgU8W2ZlitXceHqOI7jOBmCMED4nHrqqbL77rurHyvDXDGhACBOnOyFMXW5fsC1zBReREwQskR0Hn300dKrVy/t1MXUtaVhYhIXkquuukrjIngZ15eOeSbcU/OD1R43EvxvS4MOgA8++KD07t1bxwUmbWZnS5deTUF9XG22DsdxHCe7ePjhh/UhySD1tcUSly3w4I9/yjUrK1YzrsWVV16pHXpYJyBaGebKxKsdV56AQJxggQPifvnll9KlS5fkcfHj42naejZSVt6oK+qpZcuWsmDBAt321ltvqfW6snniiSe0A93xxx+vw5S1b99e84qP67bbbiuffvqpunrgAsJ2q2cs6ghNtqfWPWXBCnvRRRfJYYcdlthajMVDMDND2tSpU0scz8xpxxxzjLqdLFy4UO/zESNGqM80/r+IV6yqPXv2lOeee06ttRxLIC9nnXWW+qhavnbeeWd55JFHpHXr1jpeMMezPR2kQbqPP/64rLfeeomt5bfXlYXObhWJCtfPPvss8dNxHMfJJnhY8TDlYWuWIqdq4AFOnSMKEACIHkTBcccdJ0ceeaQKMHvIs4w/8FlHGNi6wTbbbjDmK5+eEShYy/CTNeEaD3FS08glrDxYCRcvXqxlofMhLwGVCed87bXX5Oqrr1Zhh1A8/fTTte65xgjTZ599Vjtn8RtY8iKCG8gXX3yheaUHPn6uXLc4tAd8YHfaaafElj+vE1b58847T9fj17Jjx44qirn2b7zxRjKOQdyGDRvKkiVL1LK6+eab6/bGjRtrnXG+uD816TC5xc0336yCuqx2wr5DDz1UrrvuOu1UaMTzVxFsttlmibWKQYVrWSZux3Ecp/Lg4VHW52XEErMv3XbbbRU+o1Kmn7XtQVbWQxBqSjxAABCfJRZvBAXWrv/85z9qnWIfIhOxAvy29IF1Ow/LeEjlp59+0h7tQHpjx45VIRFP085jlJZWKvF8lMWqxFvV9sjLAOVp166dCld49dVXVXBVNrwIMgQUFt7PP/9cbrrpJh1JALHJvq+++kpHO4jXBW0Aayz7gJnQGPuUqXt5oURD2XViNIhx48bpejyN7t27J90ULC7pIoyHDRsme+yxh0yaNEl23XVXFcRWz7bELeWhhx5SEQvUH+4pjPmbSpMmTfTvBj65tFEj9X4n3T59+ujIJbwoGRX9dybdKA1/Bx8Oy3EcJ4vByvLee+/pw8UeeE7V8Mcff8jtt98ud999t47vyadgMEFRUSBc11lnHRU1iJnJkyeXmJAgWyHPJvBTKUtasA/Bxud5LIkcj4hFcJVGRUgVBBmikIDApL4JWE/JD+Htt9+WXXbZJXHEn+BW8PTTT+t606ZNZfr06Zpf/E/79esn33zzjaYFCNdNNtkk+bKBOwAjT+CPirsAYhFfV/ZTLqy5uAgArpukxz1P3Y4ZM0aHrIJ4XeNChOWfc+J/S3kQvgZCfOTIkYlfpYP4ffLJJ5OuKrmAC1fHcZws5r777kuO45pqdXMqDz4L9+/fX30XebC3bdtWtyMcKlK0AsK1a9euahEjbQQIv8HOVdHnrAjIt1kATbQZZUkLysl+PnvbTFUvvPBCma4CFSVVOA+f119++WWt01tvvVVfChFu+Bp/99136vdqcF7iMdQZ1lXgPsQ6y7i97Mf9YO+999Z9wDnYB1iUGSoNIUo6nIvfWNSpM9LaZptt5N1331VhyiQWWHexAiO0sb5vuOGGmhYQHxeHDh06qIsAcbDW8yWAcXDNwkpa+Erj1hAnXo+s07kMH1kswrYvG9taHP8r6DiO49Rq4g9zRMHll18ue+21l5x00kkqSpgOk4e5CcuqxPIWzyPwuzqCwTrii7pB1McDU9wS2JcuIAw51kQWnYj4PI+/Z2mB+BURyB/nxXo6YMAAFasITayTdBajIxGC0spr1zv+KZ39CEqDz/UWDyGJbykgLH/55Rf1UTfrKv6sdOoz6zJpMbIAlmcgzqJFi7Stkc+4Hy37iE96xMGCSxxGNeAlIC5wOR53gfKwsuYSLlwdx3GcWo0JAsZj5fM3nWRYHzhwoFoU7cGOKMm1h3xlgVAjWH0gzOIBi19pgXpEWFlcqKoXAoQeLgp0wuLzPH6qWEstH7QDE3NWNn5bpyggr19//bVunzt3rvrJ2vG4G2y88ca6zid8RDEik7jA+fiKYqMpAO4G+MkSBwHLyxNwfptZjEDdkT5pWHqIZH7jg43LAVgvfnx4LZ5haVmIl9O2ZTsuXB3HcZxahT2oASGDaGBYIXpYX3bZZTJ8+HC1zCES4nGrAsRJbaE6yooAxU3gk08+0c/kXN+4kEOAxn+bsIv7gLIdP2Qsqvg9MzkBQhxwEcDaDLgJ3HDDDbpeFrQzRpLgPIhchCvnoH6s4xcBEKqvvPKKrgNCF8sq7g+M4wpYYonPWLGs1zTcx9VxHCeLcR/Xiscee4iNDz/8UDtesc5MSDZnO3GwVsVFg5H6++8S93FFmDz22GPa2caw88XPW12P7tSyk490eSmrjnhZwD2A3vmIOwTaO++8UyWjCqSD/M+cOVM7QeHb3Lx58+S9ZmWjPIzvipBkG53nGAGA0QWAMhCHzlT4nHI864wWQIerNddcU11QcAsg4F5A27P0cU1BkE6ZMkVFMsdTT/iuMluXgWBmP+fiWM5Lu2FpohuxyjptCpcGymPnAbs2bMOvmPYWdzPIekLGHcdxnCxlyJAh0THHHBOFh1Nii1MRhId79M9//jNq3bp1dPfdd0eLFi2KglDQfdR1EK2lhoomiJUoCA+UhYa8vLwoCLtkCGJWQ4MGDZLBtlV1iOchno94fuN5Li0Qh7IGEaVlHzVqVKI2qh6u6YwZM6K11lormj17dlRYWPiXa07YZ599knm2a2WBMlxzzTWaHm2LcOONN+q+ICKj/v376z7SDkI2CkI5CoJS91OPTZo00TY4ffr0aPXVV0+2h1NOOUWPMx5++OHkOVu0aBHddNNN0eDBg6MOHToktxPIY7du3aK5c+fqcbRpa9cG65tvvnn09ddfJ7bkBm5xdRzHyWKqyuKK1eajjz5K9vKuifC4w7+S4Y+oz++//17rlzEybR+ff4OwShyRHrNYVRRxi2sQdGr5xVUB4ueKr1fXoztd2clLan7KqiP2UVZ8S23mTiyuzPpUXeD3isWVnvjNmjVLe6/x2f/CCy/UaxREn5bBOPnkk3XYNLZh/eTzfxCU2hEL8Kk94IADtJ5ImyXtjokJ7DdDajFaAJZnfGhJi3VGHDDwZTWf2mOPPTZp8cW9gDp86qmnNFDHZnGlPHaN2G6BMlBmt7g6juM4FUZVWlx79uyp1qGaGnjkWQgPbg133HFHovTFFqhMQkUTt7iSpyCoK/V8lUE8v+Xlmf1YHoOg0jJzbarT4gpmcQ0vbqVaXMeMGaPW4ng7Ihx55JGJVP6ENK666ird37Bhwyi8FEZLlixJ7C3mhRdeSKbRqFGjaPHixXpcELi6jXpp3LhxInYxt956q+7DYh1ecKLwopXMH5iVl7DZZpsl0yTwN4Rg8VknzldffaXH5gruMOU4jlPLYWauo446Sn788Ue1wtTUAEEM6BKLU3gGqrWJTi3We9upfKhngl2LXAELfWpnJyygTBJCWwKW+KZSNizKzLZGWdmWasnHRxbrKDN54VvLaABYaxmGjSldgTFeDdImTeKRHkOIkabVJzDE18EHH6wdz5jkgFEx4vtrAu4q4DiOk8XEXQXs4VPRD6HHH39cDj/8cF3nQcinRZb2eMg1gWH5ZsmnaIYsQgjQSYW6QxywnZmx+M34nUznyexN8bqt6HoujbirADAIfi7NZLQqcG0QXlwb6plxVOmsVV1k4irAderTp49O3Ure77zzTtlzzz2T7Y1y8ILEb9oY4HrCSAHE5/raduIQnyXHcD72s41AJ6wRI0bofUm7jcOwVx9//LFOk8sYt2VhL2xAunE4t3XOsk6JuYALV8dxnCymqoUrvdl5KPKwNSr6fFUBAoHpOy+44AIdV/Pmm29O9q7GR5Ee3UzjiWBgLnUEiwvXqgUxZ5buXBCu5JN4jLuKLyqjDLAtLqNsPfX4sgRkKqRBfHyuwYQt2zmW32bVpS2XRTxvqbAP4crMWTb2bC7gwtVxHCeLqSzhysPP0mEcSBOuDMCPtSeXYbYhOrAwVSvWKYa74vOqPfhh1KhROp97XLgyo1O8biuinjPBhWv1ClfqHSsqIm7ChAnStGnTtMI13n5KIy6pTHDaMZkcDxxn1lcTr+kgjllwVwXyQ5npDOjC1XEcx6kQKlO4Ggg8E67dunXTMSbjwrYizlfZWH4ZWL5///4qQpleEytqOkaPHp0USuYq4MK1askmiytjq+IXyidzXmRSr72JSbNwIp3sesUpr81k2qZI20SrHRO/ZxHENl5rnNT0y5N4zBLHyAObbLJJYkv248LVcRwni2G4Gz5r33///cmHVKYPv1T4c09HEqabZCgdLEsQF67rrbeeTJo0KaeEKw9wLGZ0csHv75///KcGPvnySRUBkFoGhCsWV+rEhWv1kC3ClTZCe+feID/p7jP2E6wt0W64XixXps2Ut9+IC1cjLtdIx9wFUomfI35MKsQjHHfcccnh13IBF66O4zhZzF133aU+pw899FBiy98Dn89bbrlFp6UcNGiQzthDJ5AjjjhC9+eKcDXBwPKzzz5TIY6AZfYh3B148Nt+lhYMF67VTza5CvDJnbZAALv28TZg++JY+zKqqs2kI13+yqM687uq/FWqO47jOFlDXEDGH6yrChaavn37quvBww8/rAOcMySP8XetulUF+WPQdabD7Nevnw4Aj8Dv0qWL7jffP+Jle1mc6uXv+IlmE9bWVybkIm5xdRzHyWLoODFkyBA5/vjjK+RBwwgC8+fPl1NOOUVn92FGH2bv4VGA5Snu42qk+xxZ3VCGXXbZRVq3bi333HOPrL322ppnhvGiXPEHc+oS3OJa/WSTjyvQFkwSpWsz6eQS26qjzdRmXLg6juNkMfixXXbZZTo5gMGf7VX9002vacbO3G233VQo4Rv6+uuva3r41HXq1EmFE/vSPbyrktLOS97w050yZYp0795dB1lPdW1IVz/x9Fy4Vj/ZKFxTKa8NcExVtROnGBeujuM4OQDCLG75XNU/3QMHDlShdPnll2vHL3reI1b5zI5Ixj8U4RQ/X3U9mMs6r+UP62rqp16OK0+EmHAFZjey4bDiVFW5Xbi6cHUyx31cHcdxcoDUz/U8LFclMJ4pPe+ZSnLmzJk61eSpp56qopX9iEDOxbqdx5ZVHcrC6sN6eacel7rNtpfHysZ3ag7xa59pG8gkjlOxuHB1HMepRWAhogf+u+++K8OGDVNrI9ZL21dbyVSoOI5TvbhwdRzHqUUMHjxY7rjjDtlqq630d7wjU1y81SYRV5vK6ji5jgtXx3GcWgZCDeuqdWhy4eY4Tq7gwtVxHKcWExettdlVwHGc3MCFq+M4Ti3CLKzpQmqnrPi64zhONuDC1XEcx3Ecx8kJXLg6juM4SZ9Xcxdwt4HqIXXYM6dysXb/d1iZe4W42RJyFb9DHMdxainmDhB/kMWXqdtqGtlYLptYgaUFuxbxbbkebLKF6oa8WH2vanvIVVcaroG1K2tjq1oHVYnPnOU4jlPLefzxx+Xwww/X9W7dusm3336rDzUTtpCrD+fSYOYsZmpCtDCWLVO+tmvXLrG3akmdOatBgwYa7PFsdV9THteUg4kjmHoYKF82zJxFu1++fHniV+bEr0t514j92XIdafu0Oe75xo0b67b4PZ+tuHB1HMep5cSFK1ONMuUoj4aaJpjifPjhh7LtttvqTGEtW7ZMO+VrVREXrgi6K664QvNkpLsOuXxNsPDl5+fLWWedpUIxG4Qrs8j16tVLpkyZooKOkKmAy/S6kJ6lmWnalYnlYcKECTrVc67gwtVxHKeWExeua665prz55pv6UOPhDTXxMTF+/PhkmbG4Ilwpe3UQF67UO5Y/XiBKI9evB8KVF4bWrVvL7NmztczVLVxnzJghW2yxhbZ98sXEHJkSvx5lXRsTiixtvTohr3379pXXXnvNhavjOI6TO8SFa/369aWgoECX9vCuiY8JLJtWvhYtWqirwFprraW/q5q4cOVlAeHK75pOq1atZM6cOVklXCdNmiRNmjRZZWFZ2r2SDUI1HZT5sccek+7du2dtHlNx4eo4jlPLiQvXDh06yCOPPKLi1R5kNfExgTg8++yztYxmccXHtToe3qk+rj/88IN06dJF12sqlLVNmzbq50qdZ4tw/eabb6R58+aJrRUL9xFlpexYnLE8x9tbdbQ9yjx06FDZYIMNkuevjnysDC5cHcdxajlx4br++uur/2fcx7ImMmbMGNl+++1VQFjnrNVXX71aHtq1VbjySX7evHla57VBuC5dulTeeecdef/992XDDTeUQw45pER7q46216NHD3n00UdzSrj6cFiO4zhOCZo1a6bWIQs1kdSHM+XM9ge2U71gIQVcTGw9jr14xLH7Z9GiRbL//vvLvvvuK1dffbUcddRRcv3116uYpd0RUu+1+HnSpc22adOmaZp8KTn//PNXyjcXOO/KdETLBly4Oo7jOCVI9xCtqVBOxEE6IeI4cayz4umnny677babbLPNNtK7d2/ZY4895JprrlERmYq1K0QqVuW4EB02bFgyTfj+++/ljTfekCeffFLuu+8+ufHGG+XWW29VccuXgTiMxvDEE0+o5fbll1+W3377TeNynpUhlwSr4cLVcRzHqbXUFoHuVAyzZs2Se++9V0aMGKEuNR9//LGKzcsvv1w222wz3WYgThGc9NofNGiQLFu2LPlSSJg8ebL8+uuvaiW14bgQwYcddpicdNJJcskll8jAgQPlzDPP1Pj4nRt0IiPOwoULE1tE9yN4V9bqmmu4cHUcx3GcLMPEDcHJDrgWCE/GoGW5ww476OgUto+OZgceeKCKWUC0zp8/X62xHAPxT/6ITnxqsbr+/PPPsmDBAp14Ii5uWe/Zs6eu27nwgd5ll11kyZIlut8C4C89fPhwjV9TceHqOI7jONVIXHhAfN2pWMoTdGXt57o89NBD+pkeIXrLLbfIqFGjZNNNN03EEJk+fbp+4jdwDxg3bpweg5DdcsstE3uKz/Xqq69qulhr+dRPWrgTkP5xxx2n+0888cTEEcVcddVVOv4txzNs3bHHHlsi3//73/8Sa8XnKKtMuYgLV8dxHMepJkoTFSZmXcRWLHzWf/rpp1VIYrGM+zZnIvDwK0WAcjwzTmENfe+997RXPnC9EKpYT/n8j6gkLtuxth5//PEqNg3yY5/28Z2dOHGirrdt21auvPJK2X333TVfHE88rLmMAmLWV6y55513nqaJ5ZbA+bHmxkVraWWzOJnEzRZcuDqO4zhONRIXqLZ0KgcslfTo32uvvZICFhCChNROUKngp2pi96233tJjmLCA+f4NRCsi8/XXX1f3AUSlicFTTz21hK8qn/b/+OMPFZyscyzQISvecQs4L/6upM36rrvuKqeccooOnRYXw4xggC9uJm0pVbTmAi5cHcdxHKcaSRUYNV28mkiqDrGEGGSWqIMPPlgtlUzzi8DE+opFNO6Dmg6Eqgk9hCtwvfA7BbbzmR/x+NJLL6nARGjiu2ogju038bGiki8mxTAWL16sSxPJnIP9+MQ2btxY83nddddpWohWJnMwEL1Yew2rZ1vmOj4BgeM4Ti0ndQICPoGCCaiaKKQYBH677bbTstnMWYyFWdXwCGYYJeaKt9nKfvzxR+nUqVMiRnaCoHrhhRc0/yvbPhByHHP00UdrmfnNJ+/11lsvEeOvVFQbRGwyfNQNN9yg1lN6/CMw1113XbV40tOfz/SlQY9/3AWAPDGBAn6oRx55pJYDNt98cx3qiqWN04qwZGY2Jjegzmh/JkovuOACFaGMCPDPf/5Tt3GMtQOrY/LMSAOcp1+/fnLEEUfo+dl/991360gDgLhmooNtt91Wfxvp6tAmILApXy1OurjZggtXx3GcWo4LVxeuKwviiY5ETZs2LfHpOxNMuFLnBsIRS2JpVEQbRCji+4lAxSeVuifv1Dd5atSokdxzzz3qSlAa//3vf3WqYCBPr7zyirodxKHzFPVyzjnnJD/3P/PMM3LAAQeopRRr7FprraVWVX6fdtppcscdd+hx//73vzU+aWPF7dy5s/4Gxo3FOmt1jpsD1lbEMVgdsUScM9Zs3N0gXR3SWQzhyn0P8TSyFoSr4ziOU3t57LHHMGBoCA+wKDxMNYQHvYaayJgxY7S84QEdtWrVKgriMbGnaqF+p06dGgUBkszPlClTEnuzF/IdRGAURJgu44FthCDM0gb2zZs3L2rTpk2Un5+vZR4xYkTyuMoMDz74YNStWzc9/5AhQ6LwshKtt956URCsUdu2baPZs2dHQRAmSvlXxo4dG+Xl5Wmeg9CONtlkE71uQSDqMrxwRAsWLIj69eunv4lL+kFoJu8pCC+KUb169aIGDRpE48eP123nnnuuHmPh+++/T8YnTTvH9ttvn8wD9Rc/hsD2YcOGRUGMJ+/ldPcz61tssUUUXlRL5C3bcR9Xx3Ecp1YTnoWJteoniI7EWvZDpySspKUFLJjpAvuwGgaxlPy8js9n6vGVEfA/peNSnz59JAhX9XMNLzGyzz77JDtmcQ1KaxNYKLGWApbOr776SteD6FM3ANLECsrneiBN3AtYkq5d3wceeEBHI/jll1/0cz3nI404bCNQT8yMxbFYUPfee2/5/PPPdepYhsyikxa+uoYdtzLkUrtz4eo4jlPLiT+0eEjy0OMBGX/Q1jQQCZSNsrKeKhqqinT1mwt1Hs8j6/GQKXFxZaKxsrEB/vks/8knn6hPaevWraVFixYlOlClw9rITjvtlCwrZWDJsfvvv7/07dtX1w855BCNix9tfMQB4B4jDjNltWzZMrG1bPBl5TjygD8qn/Yvuugi9W1lwoHBgwcnYpaO5dlgnfRWVuRWN+rjam885ZFpPMdxHCf7MbFARxI6egAPRMaBjD/EUx94pWEP8fKozngGVjasbogBLGVYsDp27Kj7KvphTt7ivoZxOA++jBtttFHyGYuPMR2VOC41L6xXZN5WlnTnjm8jzwS22Xoq1AX+mfgUI8iIQ6cpfDjtmNTjKqrMv//+uzRs2FCtxQa/8TPG5/nTTz9Va7Dl3+A31wKL7ZQpU6R3795quTX23HNPGTp0qLRq1UrLhmBlDFbaFVPEImStDJa2vRzym3bItLBxAYr/LEKYeIsWLZL27durlff2229PjgfLcex/8sknVYRzbqzadJxjdi1rP3Zuflv9sm3rrbfWfFvHOCuzLSsC8lmRqHDlImQCU5c5juM4NQMEGzz11FNy4YUX6vraa6+tg6LHP3eCPezKgococUoTaYY9bCsyvUzi8dAG4tI5C7HONoQKZTbhytBIFWmooS4RR+lAPDBfPdOHUg5AxCFSIFV42Lr9zgZS82LXlaWtx2EbZUUoIvC4bnQQslmjSM+ulWF1s6pYXixt2rblm+0IaKZrffbZZ9UKyr543vlN4DqSl7POOkt77rOOxRbxZx2paDsci9hklAI6gnE+S8+Wlia/SZfRDc4991zdh0B+5JFHVFDSeXDhwoXagWv06NFqLeYFk3ZFJy3Kw8umjRFLfOoT9wHS5hyGnc/W6TDGDGB0DgT2kZ7FqQg23njjxFrFoMI1Pt5XWcTfUBzHcZzchgcr0OOZhx7w8P3oo490HYssASsP4qI0Ych24tnc6eXFKy890liZeIifss5r8bBGAfHGjh0re+yxh/7mMzEW2NVXX11/IxqIXx6kmwkIGQRFOhAPWAGZ8hMRRJrkzYQExM+TKuiyEctvafVD/VNWhNXixHiliDYb5SEurljaOseVlmammCjjmlhd8puJAjg/bZ8XGa6/nc/aFfniSwQics6cOTqEFW0KEdu1a1fdD6TLMfFy2L54/uPbCLR3hrxiiC5E9BlnnKH5oD0C6RIQwdQf+ygHS34zOgJCGVEbH43AzsnS8kQgra222koFMvFte0VbSDN1h8gUFa7WcMoD8zOFchzHcXIf+9uPcD3mmGP0ocYDjIHOeSDym4diXPClg+0EE5ClPScsHukRp7T0bB9ir6z0LB55td/psHg83O3BzSdcrJyAcOU3lir28eCm3KWlFyeTOOTP6jAdiCCGv0JIcN4BAwZongw7B3knZDuW39LqhnIi0h577DFdp0xYL7fffvtEjKqHz/6bbLKJfmLn+qeWweoeyyjXk7ZEsLillTUTrA7i0A6AdNnPuYB41uYRsCzt/AQTsRyTiuXR4pIWEzHw0mBT1uYCKlzJfCZYoR3HcZzcx/72M44rA6jzG8sRPpbxB2d8WRbpHpaprEx6lQkWVoQrIsCEq43jujJ5q4hyTJ06NTluK8IIUVeToc6wXCK6rM1g6aTHPqTTJJXZXkibL89YvadPn65GOrB8sLSXHq6PvaABS4IJy1XBhCbpcN+Z+OQ37dPcGvjNsizhSjrsJx4hDvvjS+Cry88//5x0k4HU4/4u8fNVBCpcE+uO4zhOLQThir8njwM+M37xxRfJz5M1FYQrFj4e8lhaP/vssxJDCmVKRTyUsSzTOeimm26SO++8U4WLPZpZ5tpjOp1AihMvU//+/eXWW2/Va2CCMZXy0lsV4nVKugg+hpwqT4DGhStpWJ5MgK9qHi0/tEcTpqRFoD2YsCVeOuGaCRaPNOx8LNdYY40SnTGzHReujuM4tRw+2ZrFtUuXLjJ+/Hh9kMUfbpmQ6QM0Gx47H3zwgU6bCfQETxWuKysGVhXqgjQQJoztSUe5uI8h20u7Dn/33JWF5YtlujxSDsQ6wmvnnXfWYZ3AxF8q8fQqC/IUD6VBns0aSjzLU2UKV37buWxJHuKW2bJI3U8adj5Lj7RyBReujuM4tZy4cMWiRC9gs/DURCgnn+O/++47FQipFteVKfffrSPyQh4QDnGBUpugzOWVu7bVSVWSa23OhavjOE4tJy5cmV2I8R+x+tnjAUGVCaVZzFLJNL3KgnzSGQd3Aahu4Wr1bGnVVpFWlhyprXXi/BUXro7jOLWcuHClcxbTWMaFa6aiIdPHSTaIkJEjR6qrAJZOE67WOcvIpDx/tyycI7Wea6tIK6u+a2udOH+lel97HcdxnKwCayhijoA/H4FtmQSLX15Id2xVBxPm+AjGxWMcxFJ54e+SmtbKpGn5zuUQJ14XqSHdsRUVnNzChavjOI6TBJFQU4kLIcSrrTuOkzu4cHUcx3HKJC74ygqZku7YqgjZyqrmMX5croZMSXdsRQUnt3Dh6jiO4ziO4+QELlwdx3GcWodb2xwnN3Hh6jiO4ziO4+QELlwdx3Ecx3GcnMCFq+M4juP8TeKTL8Tnu/fhlhynYnHh6jiO49RKKlJUMrwW8+9/9NFHsmjRIt1m6ft4oY5TcbhwdRzHcWoliMmK6qCFxZW0mI1r9913l1GjRrlYdZxKwKd8dRzHqeXEp3xdb731klO+5gp8msfiWRbxRx3rWEa32247nSGsZcuW8vnnn8saa6yRHG0gE0GbGmfp0qWyzjrryDHHHCMvvPCCrLvuunLaaafJLrvsoufMz88vM93JkyfLL7/8kvhVNjXl0b3mmmtKt27d1FrNrGqQSd07tRcXro7jOLWcXBWuWDnLE6yl8cknn8jWW2+tYqlVq1YqXNu2bbvKognxvGzZMunRo4dMmjRJCgsLZciQITJw4EAVZsOGDZP1118/EbskHIuAPv/88+WWW25JbC2bmvLoPuqoo+T+++/X8luZXLg6ZeHC1XEcp5aTi8J1/vz5st9++62ShRKRNG/ePJkxY0Zii0inTp2kQYMGKiIzFU7Es8BxWA3JD1ZXE6NYURHY1Ofjjz8u+++/f9KyaMydO1cGDRqk7gVjx45NbK358NJBe+vTp48K/M6dO+t2F65OWbhwdRzHqeXkonAlrwhCxOGqgEjcaaeddL158+YyYcIEdRVYGeICi3wgXDfccEP59ttv5aeffpK7775b/ve//0nPnj3ljjvuUEGbjqlTp0rXrl3VSku5cF1A3MZHKqhJmJCfOXOm1hsif/To0eq64aLVKQ8Xro7jOLWcXPdxjftHlkZcBFLODz/8UHbccUf9jXDl8/7KCtdUEJ4dOnRQn1aEGBbhM844Q10FEGSItHTCzIQr5YARI0bI2muvres1EYQq7Qu3CkZg4NpQX9tvv30ihuOUjgtXx3GcWk6uC9dVYcyYMSqUEJMtWrSQL774QkXnymJCFPG1fPlyFZxYci+++GIVZpmQKly/++477dhV01lttdXU5cOFq7My+HBYjuM4Tq0FsY6v5ap+ouZ4s/8g9unk9dBDD8mmm26q25zSQbBa3dnSccrDhavjOI6TxD5p13TSCdVVFU8cZ+m1b99eGjduXCvq0HGqAxeujuM4ThJEGBZI/DXxRaypIe7ziuhMJ2Rte3nBLLYmVll3HKdycB9Xx3GcWk7cx5Ue7WeddZb6a9ZUAYbQ/PHHH7XcQJm//PJL9XGNl7mqyl9bfVzxLV6wYIG2O0Z52GGHHRJ7nKqGa5Ar97sLV8dxnFrOU089Jccdd5wsWbIk+QCrLY8G/FKZeIDxU23mLMOFa+WSTcKVySPef/99XXIdakv758vDzjvvrNfChavjOI6TEzAkEYPgM4zT999/r9tqy6PhmmuukQEDBqi1lSG1XLhWHdkkXH/++Wfp3bu3jsPL14aaPqoGUO/jx4/XoeE22GCDxNbsx4Wr4zhOLQefT/wzGXOUgfihtjwacItgvFXA+uTC9e8Tbztl1SEuGgyHRfzqHA6LeufFjeHLcBlhmK7K4uuvv9YXpNKm/61qNt98c3niiSdcuDqO4zi5gwlXlnTKMrFR0x8PlNk6VllZq0O4Yu1DuFL3UJOEK5RWj9kyjiv1bsKV8XwR1PE8kz/E7dKlS3V7w4YNVXzSdiBd20kFF4QTTzxR/apJj+l/sfRXJGYp5lzksTzIN2V+8sknpXv37omt2Y+PKuA4jlPLsd7wPIiZrz8/P18D6zU5mGtATRfoTjFc59KutYnOVPGJyOSYCy+8UDp27KiW0l69eknfvn11G1P7ckxZohUuueQSGTp0qKZHuzv//PN1e0W2PUTr4sWL5e2335brr79eJ9moibhwdRzHcfSBWlsx4WHiIxMh4uQeiEQsvFhPrRMWmNXdlvFrz7b+/fvLrbfeqp0Xp0+fru40WIjZhqXy9ttvT6ZFunGw5j7//PMalxdEAvfar7/+qtbX1HZGOojhN998Ux5++GG58cYb5aqrrpJnnnlG5s2bl4hVErPUT5s2TWdt22uvveSyyy5Tcf3ss8/qPuJUpEiuTly4Oo7j1HJ4oLlQc2o6iNC33npLe9F/9tlnyQ5YCMl4iAs8XAhefvllvT+aNGkiJ5xwgn6GRwgiUvk8P3DgQO3kB3yp4HhLg/033XSTrqfywAMP6PmA+AhP3Ae23HJL2W233eTYY49Vy+y///1v3c7IH7jzpIIF9+OPP5aePXvKuHHjNA/m2nDUUUfp0r4u1ARcuDqO49RyarNodcH+9zGxR4ivE8CW6TDhVh7xNP9OQGzSQerQQw+V/fffX4Us283PGzEbzxP+ru3atdN1rLX44TKt78knnyzNmjXTuIjCW265Rb755htNy2D9xRdfVFFJO2vevLl069YtsVd0BA9GVcD6evHFF8sWW2whzz33nMyaNUv3x9Mif1999ZXMnj07seXPupszZ46cdtppag0m/2b9BVwHGDWgJuHC1XEcx9EHa20VcVb22lwHK0tc3FFnCCsC2wmILoL9tv0Wh6UJRfOxjseprMC5V199dZk0aZL2pMeyyed1JqTAMomFlKXlHzbZZBNdx2I7ZMgQ6dKli9xxxx1y5513qnUTcciQclhe4+4GCN2TTjpJrbOEM888U8WygUDl8z/W2ttuu01+//13PQ/1QTpWL6SFOMYvG6sv+QPiwPHHH6/jENtv0rA8UL82xF1NwUcVcBzHcZxqJFdHFeDztQmkVClhIiod5m/59NNP67HA53sEZWlUlFTBfxTLZb9+/VQYYu3EIokoJF+4BSBm7XzkD/GJYIWmTZsmh/DCsrn33nvLiBEjNN7aa6+tgpi04P7779eRBICy8Rkfi+q5556rAprzM37t8OHDZfDgwSqCyRf5mTFjhu5HlBKw8mLtxafW6gxsu/nsYgUm/SuvvDIRQ9Td4Lrrrkv8+hPKkIujCrhwdRzHcZxqJFeF66BBg3SZTqTGxVU6sGzecMMN2uGJuAg86qA0KkqqIPQQilg/Oe/kyZN1HNPWrVur9fOXX36RVq1aJWIXn5cRARB+rCMuEbsM5cXxiHc6TkH79u3VDQGXAMCSSycu6NSpk45CgLDFuor1Fzj3QQcdpGIV8YhllYlAGE+W9Pv06aP55dwmdg0sr7vuuqu89957+ps4uBzgGxt3ScA39u6779a8xyF+LgpXMu44juM4TjXx008/RUGwoMw0BOGa2JMbBBEWBVFVIpSFxWnbtm2yzKNGjSpxfGrgHBURhg4dGm244YbRCy+8EAWBGAUBGl177bXRF198Ea255prRrFmzErkshmMuvfTSKIhzzWf9+vWjIFx135w5c6J27drpdvb36tVLtwdRHr3zzjt6TYP41ECcIDqT5bUQxLseAwUFBZrm5ptvrukRNt1002T5Ib7+9NNPaxp2jiZNmkQzZ86MghiPGjRooPs4ZxDXGj8V0tpss82ib775JrElN3AfV8dxHMdxVokgotQymBrKwuLgG2pWQKy28eMrK/A5/dtvv5V//etf+okd31YsoXTCCkJO8xKHY8ib7Qu6Sf1MKfcVV1yhfqlYQdlPhy3289n+7LPP1m38tpm4WCc9o1GjRloHhu0jbQMrMOlYHkgDsFgzLiwWWvaxHTcG3BywrrIdyBtW7ZqEC1fHcRzHySLivcKzHYRRXIxlgokvjkWAgW0rDc5REQHRyfBSH330kS5btGih56YTk8VJBWFoEJdOVbh3MJwVIDSZOpVP9IAYpkMUQhMxyXisuH9ce+21cuCBB2oc/GApOyKXNAmch2vPKAH2G3FrwjQOgp8REcgv+xCqiGiG+WKEA3PBYJ+5oNQU3MfVcRzHcaqRVB9Xeoh36NBB11OJP7Kz+fGdTgDGQbRtttlm2tEJ8NPcbrvtdL0y4byIPuqOPFLnCGg6QzF+Kh23zEIKxKPj1OWXX66/EZHMTIWPLNPDAse//vrr2rEKELSM9wp0ykLE0mkKJk6cKBtttJGKWmAkAgQtacDUqVPVP5V8sm3rrbfWurH4xrBhw+Swww7T/CG66cDFTFn40CJ+rW2QBlZYG4sWbEkc93F1HMdxHGelSPVxZZ0QBEbOhiDwSg1WTgJxWY4ePToKIjLpv1kZBPGXWCsJ23/77bcovCxEs2fPTmz9E/xiLZ/4uOIXGgRhMv8333xzImYxJ598cjL+WWedldhazJQpU3S7HR8EcWJPMSNHjtQ6sjo86KCDdDv1Eg/4rVoajRo1Ut9WOPHEE6NWrVpFjRs31n2WBv6zlDMeSAcf2gkTJpTYnu24xdVxHMdxqpFUiyvTfK655ppJq1kuEoRXYu2vUE7KFp8J6t1331WfU44r69jKgLyUZnEFtmENNutwEIN6DMtDDjlEp26Nw5Sr77zzjlo+X3vttaQlFpgkgNEHsIRyPH6qTClrPqmMMoAllf2c4/TTT9fpYlPbwo477qgWViA+eWCUgSA8Nb+HH354cvzWAw44QK2qWGbjkGY6i2tV1/9KEzLuOI7jOE41Ebe4YmnjN9bH0kLc8paLgTJgAWzdunXSMvnee+9Vm7WP85ZlcSWvt912m45GQF7tOu200046CsDy5csTMYs58MADk5blTp06RQsWLEjsibTsAwcOjNZZZ50oiM9o2rRpJcp91113Jc9Bm8Aim64OGRHB4plFFYJ41fyEl4Bk3QbhWqrFFetxrllcvXOW4ziO42QJ4bmsljqscemCWepyOVAGLIxBOCVKXUy2WvrI6xlnnKF+oozRypisl112mbz66qs6GkGqJZOxXYMA1PWNN95YO4QZlB2LOtPAMh0svsyUm+tOwOprExiQbmm+zkwPi68u6b3yyisyc+ZM3c6xHNe7d29p2LChbuO3WXSB81mw37mEC1fHcRzHyRIQIpAqLiDXBEZ5INQMymbiLV3IlHTHlhfsuNT6TmWdddZRgcioAcxMFRekcfg0//7772unqninKEDQEpjwgBEH7LdBhzUmOyCN8847T44++uhkvuKBiQaYpKJdu3Y6OgLLOMccc4ymtdZaa2laYMcaqeup+7MV93F1HMdxnGqEaUjxccUCiXVswoQJJWbOssd0LoiKlYGe9szxT/nw19xmm20Se/5KXNyVxaqIL+IzG1bPnj3lm2++UUGJZTgdhYWFJayXZWFiOJXStq8qqe2D33aO8s6Djyt+tbk0qoBbXB3HcRynGkGU2WdzhAZWV7aZALHtrJuFLr5eVrA0qjpQntIC4g/4rE25EIkLFy5Mm38LmcK50x1fViBPcTcGlqlxrFzknSVwnO1LxeKyn3h2fLz8rFsaqechlAdx7DhL19KzNFLX44G4lBchHt/PejajFld6oGUChSlPvdvNVR41JV5lUFPqprbFq05qSh3WlHjVSU2pw9oU748//tD56Q3mpqfnOccSzPpnosLSZFkeK5PHikoPyorHeRindNttt9UB+OGhhx6SXr166XpVQ16YwWqfffaRSy+9NDkzlpUhXi/ENd9ShCL7UuuN62UCknXSiV9DAmKRJdjxqelwHCF1e/yclkfSSk0nNU46GJ/2/vvvly5duiTPZfHt+FRse2r+SwM/34pEhSuzQJSHZay8DLK/rEoyamM8qCll8Xh/ZWXiQXlxM40H1VkWj/dXKiMe1JSyeLyS4DNJZxoTQuPGjZO1115b1y0Y8bTi20vDxEVZWDoVlR6UVWZEHx3QEEs2w9PTTz8tO+20UyLGX8kkb3+H2bNnC9O0zp07V/Oemn/Oz7ZMhGsuQd7/+9//qi+s/S4Pi1PWNY7Ttm3bxFrFoMI1k5Pn8oVxHMdxnGyF2ZIQcVjp8HFldiV+Qy4+e8vTFJQJ0cesUszFT/yRI0fq2KTVAecnT9Q/S8t/vBx2HbAQ4+KABbUmCFfKiPXXyg4VXZ6KTk9t12Q8k8CbVnnB4jqO4ziOU/yMTfe8tIAIIiBa7RN1fL89U217fFleiKdTWrB4qcemC6nHpgvlxWM/5UXQ2G8smKnxLMTTY72skCkWP56u5cmuB3myYNsaNWqkS0Dwsc4xuRisjLQ5lrY92/FRBRzHcRynGvntt9/UNWDFCvwiI5k8ebJaXHNBRJRGWdLCytWqVavkp3mGjsLntTRyuS5ygcqUghV97XxUAcdxHMdxqhyzdILb0JxMceHqOI7jOE6FgpWttAAIVRer2UO661RRoaJx4eo4juM4juPkBC5cHcdxHCcLcauk4/wVF66O4ziO4zhOTuDC1XEcx3Ecx8kJXLg6juM4jlOtpOvUEw+OY7hwdRzHcRzHcXICF66O4ziO4zhOTuDC1XEcx3Ecx8kJfMpXx3Ecx6lG/pzytXje/IkTJ+qUr6nYHPm5PkwW5WB+/NatW8uiRYt0G1O+brfddrruVC3xtpQL/sQuXB3HcRynGjHhCoWFhbLFFltIkyZNpF69eiWmRY2Lilx+dJP3Bg0ayMiRI1XAQnUJV/JCvdqyNkIb42UiXTvLRly4Oo7jOE41kipcd9hhB8nLy1MhYQFqmnB99913paCgQLdVp8WVPCxcuFD22Wcf+eOPPxJbaweI1uHDh0unTp2S7cuFq+M4juM4pRJ3FYDvvvsu6SrAI9oe0zVFuALWZFwFZs+erb+r21Vg2rRpsuWWW8r//d//SYsWLRJbcwvaBBbs/Px8Wb58uTRu3FiWLFmiL0HpIP5ee+0lw4YNk+7duye2unB1HMdxHKcMTLia8Pjxxx+lc+fOib01l2wSrlyDHj16yDfffCOrrbZaYmvNhvaGWH/iiSdkvfXWS2zNfuHqowo4juM4ThZgdiS3J2UXvExgwVy6dKksXrxY3QroVMa2bIE2g9X43nvvldtuu01+/vnn5PaahgtXx3Ecx3GcNHzxxRey7777ys477yxbb721bLLJJrL++uvLRhttJLvssovceOONKmjLE4j4LqdSkaLywgsvVCv9KaecImeffbbm9dFHH8166+mq4MLVcRzHcbIIt7hmDzfccIO8+eab8vHHH8vnn38uP/zwg/z666/qWvDRRx+pYOzbt6/89NNPiSPSw7FnnHGGHH/88fLGG2+oxbYiRCXW4EsuuUTzaSM00H7I36BBg2TevHm6rSbhwtVxHMdxHCcNWFqxlpooBOv8RGc6wpgxY9TSaSAc4y8fzz77rIrbu+66Sx566CE56KCDZMiQIYm9xfGtYx7Mnz9fLb0TJkxI+gADebC0LX3G/CVdYBvDWpkg/v7772XEiBGybNmyEunnOi5cHcdxHMep9SD4CCYKwTrJ1a9fX8455xx5+umn5aqrrpI99thDR0YwsMrSySkucBlma9asWXLBBReo5dOEJUJy8ODBMmnSpGQ8huE677zzdFgqRjXYbLPN1B2hbdu2sv3228vYsWNLnI/z4G976qmnyty5c3XbWmutJccee6yWwcZlvemmm3ToMX7XFFy4Oo7jOI6T05jYxLLIelx8loXFY2mCz6yTbMM1ABhSCsvrAQccIOeee648//zz8q9//Uv3Acdcc801JQSiid0pU6YkthT7uhKXDl4IWtYRpLgR3HrrrdqpygSqpYVFF0Eah32IaPZZvrGuHnnkkcn8Ay4OuCXE64N1CxxL/Pj+bMeFq+M4juM4WQuiCnFlwX5jdcR6Cfy2ZTxeHH4TOC5uGTUQfwQTl4g64rVp00aH7uLTO6ISEYsV84orrlALqYF19ffff9fjCPi1PvLII5oG5+3Tp4927iJtzjF69Gj1RaVzF64GDIlm5wQrB3mKuybYNoSupX3wwQerGMYKC+STtLbZZhuZOnVqibqw/JEGmFC2+rGQrbhwdRzHcRwnK0AwIcYsINgQeSak2MandQQrn98RfXwqJw7Cje2sE2fOnDl6DEIPEGtYP2fMmKHHLFiwQLfZPs7BsQzaT0AEIlA33XRT2XDDDWWNNdZIikP2M8A/+yyNjTfeWNO0obJef/113Q74xd5xxx2y2267JScEIJ6JYSYAYAzZt956S84888ykmATcFbDyUnaO4dzPPPOMfPbZZ7qffOAPyzBYCFig/JyzW7du2nHMRCp1wfHkk/rbdttt9Vz41RLYRvmIF6/3bMKFq+M4juM4WYEJJguIPEQYYgvxRWAbgmr69Ony2muvyeTJkzUuohLxhyhFrOE3SjwTpYT3339ffUmPOuooXSdtg3SJi5BD4CLgvvzyS3nnnXfUh/W5556Tl156SX755RddIvTIV5MmTXQGKn4Tn8/zCMO3335b0yU9fFbXXHNN2XzzzdWCi99q//791TWAfCNKOYZJGBo1apQU28C5jzjiCB3NgBEJsOxee+21mlfcEQ455BDp2rWr1g2dyZo2bar7ELQIaPxjwUQoZUYwU3fMFPbkk0/q+iuvvKJ1yjaG0vrwww+Tohzs+OrGhavjOI7jONUOYo2AQOITOv6bCDU+qSNE+QyPQDUBSyemDTbYQGd94jhEFlZWBBeilTjEZ7sFxClCkiWWzeuuu0578LOP85pgRvAhXOnwhMhkzFbCgQceKOuss440bNhQhSrpIEDJG7+xiLKf/ONegCW1efPm0qxZM3nwwQfVoolLwLhx47Qz1913363nQjQieBHT5L9Xr17Jc5I3QPCSHmIXsYy1l85bCHHONWrUKBXA5L9ly5ZqceVY6sFcKsBeBLD+rrvuuiq6d911V9l///0174jr3XffXS3IQJpxIV3duHB1HMdxHKfKQRAB4gphhOBCPH766acqBHv37i077rijDiWFYENIIvhswH8siqTBOmKMdBBdWB0RdYg1ps9lH4KR0L59e/3k/7///U8togg8et4fdthhyfOTF/xTOZbhprB0vvvuuzJz5kx54IEH5NVXX9VtDG2F/yhiE5FIHhGBiEisvnSWIi3yiAg/66yzVKwiUBGTiGKELlPMtmvXTicN4NM95UNMc07C+PHjtSyITfJDHpgi99tvv1ULLeLz9ttv17j4tFIm/GkRv9QR9Wj1BFh0OT/im/MignkJwC2CcjA+LXWE4OY44pp4zgbqhIJknwOD4ziO49QSsM5hhUPkEPj0jeUrm0E6kEc+Vcc/t2cCZbTP8SZaGfqJz+mIr1atWqlvJvsRcggpxjNFiPEZG5GFyMMCiThE6CHOEHtYXxGJiDAsmeSPc3EOwL+1X79+KgbZj1BDkFoZSG+LLbbQeOTj6quvlq+//lqFIuc46aSTZL/99lNxjYWSz/YG1lu2Ia7t87sJPyAP++yzj1qPEclbbrmlpo0ARgjzG3HOUFsMlcWx1A+WVOoHazIC9thjj9XP/1h7qS+OI/+kieDHCs2xiFZ8XhGyiHnKy6xfXbp00fL36NFD6wLRyzbqifJTzx06dNC64zpnk2gFF66O4ziOU43kqnA1QbMq4oZyYv1EaCHssFoiDBFOdITiEzh+pFtttZV88sknapXEusjwVOzDSohFlPn52Y6gw1eUT/Kssx+LIuLLzgdPPfWUilA+jbOPDlRso7c/FkxEJ8L4q6++0muAcEVoYkHFknrZZZeppZRP6XzSHzBggKaLjymf7BHCWHbpiPXdd9+p+wACHBG8ww47aP4ee+wxLQeCEwvq6aefrhZixOPw4cN1WC38XUmLPCCSqV/qgXI88sgjajHGZ5bjEayIWEQ0whcLNW0K4cp0tXTuuvzyy1XMc62w8ppwZTIEhCvWVfxbEa8IX9LLVtxVwHEcx3GclQIBhWCCVbHIIVbteOAzOKKKbXQu4lM9n7ERZ4hCRB3n5FxYExFhiELSQWTSYQrrI+IVSyc+ri+//LKKMSAeAWGGCL3lllvUeoqlEpeBoUOH6jpxEL700ice4o/e+x988IH+HjlypNxzzz0qcBGhjOfKdo7DMopIRXDToQpRSccuxC3HXXzxxbpOebAS05EL0c2QWlhZEalYRRGNBFwPevbsqQIcEYwVFMszVuh//OMfWkbcBtiPaKVOsMQieOPXB4FuotVeMsgvcahXzomQRfRinaV+sxkXro7jOI7jrBQmfhBCqwrCCUjHBCliC3GJ2MLyh6BlHz6XLPmEj48mn807duyox/Jpn32ITALWa6yyWE7j4hjIL0INccw4qIhQLLwIRdKyz/OIxNVXX12OPvpota4iNvlEjxCmsxhxEHrER0jiIoDIJE9Yh/ncjv8rApVjAfGIMKTTE+dCZGNZRbjyGzFMWbDYkhaiHSGKRRgQqMTDooq1lvxwHtIl/9QblmY6kAEC1sSqQb5Jg3jUDefEkkt9kRbHYOFNrbdswoWr4ziO4zgrBQKookHEIcIQYAgnrJWIKCyTWBqxrCLCEKSAsAO24btplliEIqKYwGdxhCr7iIfgw9rK5/GddtpJ0zUQf8Tl3NZxijSYaODhhx9WUYoVl3wSB/GLSDzttNP0UztDTHEORCDCl2343A4aNEi3IwoR3XQgw22AEQOIR97JB5/u8fNFtGPlxY2BPCBizUqLWMbFgmlnsd5i4UXcsw3RjihlMgPENukholmSThzyA+QRf2LyRNl5QcCSjBtGtuLC1XEcx3GclaYixSuCy4QeAg+fUyyhdMCipz4CDWGG2AO2c34C8QlYJIFP9AgzBJ2JXMQvn/8Rflhr8TGlYxQ+smynYxfijjyQjlmDGXoKkYqVlelbsZLSmYv9iFt8XhGUiG1EH9ZSyoJvKWVBqOJviisD6SCgiXv//fer3ymil85ndM5C+OLfTDnN0ozVmc/55ImykDbClvIyggBCnG3EpcwsEfQM0YUgZsQBhCjlJH3yYdZlc3GgLJSTclHP5Jlz4NubjbhwdRzHcRynykHIGYguBBSijk5SCECEIaINkcZYqvSsN0uhYWIVQYhYxApqIo8e/Fg/OZ5P/AgzOoOxROBxDOKNYNZVhBzDXdHxyjp48cn//PPP18/qCDsmOUDcMQYr58F/FWGLHyx+rgg+RDHuA4jZE088UV0cSJvxWhGyiEmEJOfGXxWRTvmIw9BcdKjiN+4MBmXHomzWU+JiLWWb/SZfQKc2Ol5hqaWeEaz4yZJ/0kG84oaAoMe6yxBdCGjKwKgMBDqxUUfZho8q4DiO4zjVCNY2/Bx5HCMUsOJhUTSrn4HYMqr70c35LQ8IJiOex9LgOI5BDNIRinUEEz6WlB9hiVuACTREFpZDLIgmLg0sqFgo45CmiblU4vVm9YtYRpwyxBaimU5aCEuDzlt77rmnlo24WGXvvPNOHcA/Hq8sOC/HY51lHYHJp3ksm2yPl4vttk7ZDY6jQ5pZkS3NOPH6SK2reB5M8CNwcYOgIxhxU9PLRly4Oo7jOE41gjUOyyKfhwHxkE6UxH9X96M7fv54vjIRPqmCCjGIOKSHPZiVz86BuEsH+62eyjtvan2l5p8e+nSMYtgqswSTT/JC/rCixl0C6GRFGYiDRRfBiFjmNwFIl3WWlk8gTY5BoALl43jEpJ3T4BwEjmdJ3uxTPwIbLF3SsTxaGiaMiWtlZp1zsZ1yYV3G4stvC9mMC1fHcRzHqUYQLXzKZv55fB9rE/iv/uc//1G3APvMDSYAEVGINYReqqCKy5fyxFZpUseO41x8RmdpQhlhmSoSWWcbLxksSbc84coxLPlNfESlxWUf5yM9ttl+lsQnEIffLE24Ik5N+FoZTLiy34Qr6+znONIAjjPhyjY6iBGP9MHSy1ZcuDqO4zhONWKiZsiQIUnhmk48mICxx3ZNeHwjXOm1nw4rq9VFujqJ718ZrO5W5diaSC7VhwtXx3Ecx6lmeBTHPxGnExBsiz+yc/nxTVkIZuVLB+UjWF2kqxOn9uHC1XEcx3GcaiMuTuPEhauLVsco/VXHcRzHcRynkilNlLpgddLhwtVxHMdxHMfJCdxVwHEcx3Ecx8kJ3OLqOI7jOI7j5AQuXB3HcRzHcZycwIWr4ziO4ziOkxOoj6vNvlAezA7hOI7jOI7jONWBCtfJkycnfqYn3n8rvu44juM4juM4pdGtW7fEWsWgwvXnn39O/EyPjaUWD47jOI7jOI5TFu3bt0+sVQw+HJbjOI7jOI6TE3jnLMdxHMdxHCcncOHqOI7jOI7j5AQuXB3HcRzHcZycwIWr4ziO4ziOkxO4cHUcx3Ecx3FyAheujuM4juM4Tk7gwtVxHMdxHMfJCVy4Oo7jOI7jODmAyP8HsRMfpin5AvwAAAAASUVORK5CYII=;" vertex="1" parent="1">
          <mxGeometry x="220" y="30" width="549.25" height="490" as="geometry" />
        </mxCell>
        <mxCell id="w8eq9V9YnCzfdB6YvHJ1-2" value="" style="rounded=0;whiteSpace=wrap;html=1;" vertex="1" parent="1">
          <mxGeometry x="850" y="110" width="60" height="30" as="geometry" />
        </mxCell>
        <mxCell id="w8eq9V9YnCzfdB6YvHJ1-10" value="inode" style="swimlane;fontStyle=0;childLayout=stackLayout;horizontal=1;startSize=30;horizontalStack=0;resizeParent=1;resizeParentMax=0;resizeLast=0;collapsible=1;marginBottom=0;whiteSpace=wrap;html=1;" vertex="1" parent="1">
          <mxGeometry x="1030" y="590" width="90" height="270" as="geometry" />
        </mxCell>
        <mxCell id="w8eq9V9YnCzfdB6YvHJ1-11" value="type" style="text;strokeColor=default;fillColor=none;align=left;verticalAlign=middle;spacingLeft=4;spacingRight=4;overflow=hidden;points=[[0,0.5],[1,0.5]];portConstraint=eastwest;rotatable=0;whiteSpace=wrap;html=1;" vertex="1" parent="w8eq9V9YnCzfdB6YvHJ1-10">
          <mxGeometry y="30" width="90" height="30" as="geometry" />
        </mxCell>
        <mxCell id="w8eq9V9YnCzfdB6YvHJ1-12" value="nlink" style="text;strokeColor=default;fillColor=none;align=left;verticalAlign=middle;spacingLeft=4;spacingRight=4;overflow=hidden;points=[[0,0.5],[1,0.5]];portConstraint=eastwest;rotatable=0;whiteSpace=wrap;html=1;" vertex="1" parent="w8eq9V9YnCzfdB6YvHJ1-10">
          <mxGeometry y="60" width="90" height="30" as="geometry" />
        </mxCell>
        <mxCell id="w8eq9V9YnCzfdB6YvHJ1-19" value="size : uint" style="text;strokeColor=default;fillColor=none;align=left;verticalAlign=middle;spacingLeft=4;spacingRight=4;overflow=hidden;points=[[0,0.5],[1,0.5]];portConstraint=eastwest;rotatable=0;whiteSpace=wrap;html=1;" vertex="1" parent="w8eq9V9YnCzfdB6YvHJ1-10">
          <mxGeometry y="90" width="90" height="30" as="geometry" />
        </mxCell>
        <mxCell id="w8eq9V9YnCzfdB6YvHJ1-20" value="direct 1" style="text;strokeColor=#6c8ebf;fillColor=#dae8fc;align=left;verticalAlign=middle;spacingLeft=4;spacingRight=4;overflow=hidden;points=[[0,0.5],[1,0.5]];portConstraint=eastwest;rotatable=0;whiteSpace=wrap;html=1;" vertex="1" parent="w8eq9V9YnCzfdB6YvHJ1-10">
          <mxGeometry y="120" width="90" height="30" as="geometry" />
        </mxCell>
        <mxCell id="w8eq9V9YnCzfdB6YvHJ1-21" value="........." style="text;strokeColor=#6c8ebf;fillColor=#dae8fc;align=left;verticalAlign=middle;spacingLeft=4;spacingRight=4;overflow=hidden;points=[[0,0.5],[1,0.5]];portConstraint=eastwest;rotatable=0;whiteSpace=wrap;html=1;" vertex="1" parent="w8eq9V9YnCzfdB6YvHJ1-10">
          <mxGeometry y="150" width="90" height="30" as="geometry" />
        </mxCell>
        <mxCell id="w8eq9V9YnCzfdB6YvHJ1-22" value="direct 11" style="text;strokeColor=#6c8ebf;fillColor=#dae8fc;align=left;verticalAlign=middle;spacingLeft=4;spacingRight=4;overflow=hidden;points=[[0,0.5],[1,0.5]];portConstraint=eastwest;rotatable=0;whiteSpace=wrap;html=1;" vertex="1" parent="w8eq9V9YnCzfdB6YvHJ1-10">
          <mxGeometry y="180" width="90" height="30" as="geometry" />
        </mxCell>
        <mxCell id="w8eq9V9YnCzfdB6YvHJ1-13" value="L1-indirect&amp;nbsp;" style="text;strokeColor=#82b366;fillColor=#d5e8d4;align=left;verticalAlign=middle;spacingLeft=4;spacingRight=4;overflow=hidden;points=[[0,0.5],[1,0.5]];portConstraint=eastwest;rotatable=0;whiteSpace=wrap;html=1;" vertex="1" parent="w8eq9V9YnCzfdB6YvHJ1-10">
          <mxGeometry y="210" width="90" height="30" as="geometry" />
        </mxCell>
        <mxCell id="w8eq9V9YnCzfdB6YvHJ1-27" value="L2-indirect&amp;nbsp;" style="text;strokeColor=#b85450;fillColor=#f8cecc;align=left;verticalAlign=middle;spacingLeft=4;spacingRight=4;overflow=hidden;points=[[0,0.5],[1,0.5]];portConstraint=eastwest;rotatable=0;whiteSpace=wrap;html=1;" vertex="1" parent="w8eq9V9YnCzfdB6YvHJ1-10">
          <mxGeometry y="240" width="90" height="30" as="geometry" />
        </mxCell>
        <mxCell id="w8eq9V9YnCzfdB6YvHJ1-28" value="direct" style="swimlane;fontStyle=0;childLayout=stackLayout;horizontal=1;startSize=30;horizontalStack=0;resizeParent=1;resizeParentMax=0;resizeLast=0;collapsible=1;marginBottom=0;whiteSpace=wrap;html=1;fillColor=#dae8fc;strokeColor=#6c8ebf;" vertex="1" parent="1">
          <mxGeometry x="1230" y="770" width="90" height="120" as="geometry" />
        </mxCell>
        <mxCell id="w8eq9V9YnCzfdB6YvHJ1-29" value="address 1" style="text;strokeColor=#6c8ebf;fillColor=#dae8fc;align=left;verticalAlign=middle;spacingLeft=4;spacingRight=4;overflow=hidden;points=[[0,0.5],[1,0.5]];portConstraint=eastwest;rotatable=0;whiteSpace=wrap;html=1;" vertex="1" parent="w8eq9V9YnCzfdB6YvHJ1-28">
          <mxGeometry y="30" width="90" height="30" as="geometry" />
        </mxCell>
        <mxCell id="w8eq9V9YnCzfdB6YvHJ1-30" value="......" style="text;strokeColor=#6c8ebf;fillColor=#dae8fc;align=left;verticalAlign=middle;spacingLeft=4;spacingRight=4;overflow=hidden;points=[[0,0.5],[1,0.5]];portConstraint=eastwest;rotatable=0;whiteSpace=wrap;html=1;" vertex="1" parent="w8eq9V9YnCzfdB6YvHJ1-28">
          <mxGeometry y="60" width="90" height="30" as="geometry" />
        </mxCell>
        <mxCell id="w8eq9V9YnCzfdB6YvHJ1-31" value="address 256" style="text;strokeColor=#6c8ebf;fillColor=#dae8fc;align=left;verticalAlign=middle;spacingLeft=4;spacingRight=4;overflow=hidden;points=[[0,0.5],[1,0.5]];portConstraint=eastwest;rotatable=0;whiteSpace=wrap;html=1;" vertex="1" parent="w8eq9V9YnCzfdB6YvHJ1-28">
          <mxGeometry y="90" width="90" height="30" as="geometry" />
        </mxCell>
        <mxCell id="w8eq9V9YnCzfdB6YvHJ1-37" style="edgeStyle=orthogonalEdgeStyle;rounded=0;orthogonalLoop=1;jettySize=auto;html=1;exitX=1;exitY=0.5;exitDx=0;exitDy=0;entryX=0;entryY=0.5;entryDx=0;entryDy=0;fontFamily=Helvetica;fontSize=12;fontColor=default;" edge="1" parent="1" source="w8eq9V9YnCzfdB6YvHJ1-13" target="w8eq9V9YnCzfdB6YvHJ1-29">
          <mxGeometry relative="1" as="geometry" />
        </mxCell>
        <mxCell id="w8eq9V9YnCzfdB6YvHJ1-38" value="L1-direct" style="swimlane;fontStyle=0;childLayout=stackLayout;horizontal=1;startSize=30;horizontalStack=0;resizeParent=1;resizeParentMax=0;resizeLast=0;collapsible=1;marginBottom=0;whiteSpace=wrap;html=1;fillColor=#d5e8d4;strokeColor=#82b366;" vertex="1" parent="1">
          <mxGeometry x="1230" y="940" width="90" height="120" as="geometry" />
        </mxCell>
        <mxCell id="w8eq9V9YnCzfdB6YvHJ1-39" value="address 1" style="text;strokeColor=#82b366;fillColor=#d5e8d4;align=left;verticalAlign=middle;spacingLeft=4;spacingRight=4;overflow=hidden;points=[[0,0.5],[1,0.5]];portConstraint=eastwest;rotatable=0;whiteSpace=wrap;html=1;" vertex="1" parent="w8eq9V9YnCzfdB6YvHJ1-38">
          <mxGeometry y="30" width="90" height="30" as="geometry" />
        </mxCell>
        <mxCell id="w8eq9V9YnCzfdB6YvHJ1-40" value="......" style="text;strokeColor=#82b366;fillColor=#d5e8d4;align=left;verticalAlign=middle;spacingLeft=4;spacingRight=4;overflow=hidden;points=[[0,0.5],[1,0.5]];portConstraint=eastwest;rotatable=0;whiteSpace=wrap;html=1;" vertex="1" parent="w8eq9V9YnCzfdB6YvHJ1-38">
          <mxGeometry y="60" width="90" height="30" as="geometry" />
        </mxCell>
        <mxCell id="w8eq9V9YnCzfdB6YvHJ1-41" value="address 256" style="text;strokeColor=#82b366;fillColor=#d5e8d4;align=left;verticalAlign=middle;spacingLeft=4;spacingRight=4;overflow=hidden;points=[[0,0.5],[1,0.5]];portConstraint=eastwest;rotatable=0;whiteSpace=wrap;html=1;" vertex="1" parent="w8eq9V9YnCzfdB6YvHJ1-38">
          <mxGeometry y="90" width="90" height="30" as="geometry" />
        </mxCell>
        <mxCell id="w8eq9V9YnCzfdB6YvHJ1-42" style="edgeStyle=orthogonalEdgeStyle;rounded=0;orthogonalLoop=1;jettySize=auto;html=1;exitX=1;exitY=0.5;exitDx=0;exitDy=0;entryX=0;entryY=0.5;entryDx=0;entryDy=0;fontFamily=Helvetica;fontSize=12;fontColor=default;" edge="1" parent="1" source="w8eq9V9YnCzfdB6YvHJ1-27" target="w8eq9V9YnCzfdB6YvHJ1-39">
          <mxGeometry relative="1" as="geometry" />
        </mxCell>
        <mxCell id="w8eq9V9YnCzfdB6YvHJ1-43" value="direct" style="swimlane;fontStyle=0;childLayout=stackLayout;horizontal=1;startSize=30;horizontalStack=0;resizeParent=1;resizeParentMax=0;resizeLast=0;collapsible=1;marginBottom=0;whiteSpace=wrap;html=1;fillColor=#dae8fc;strokeColor=#6c8ebf;" vertex="1" parent="1">
          <mxGeometry x="1400" y="940" width="90" height="120" as="geometry" />
        </mxCell>
        <mxCell id="w8eq9V9YnCzfdB6YvHJ1-44" value="address 1" style="text;strokeColor=#6c8ebf;fillColor=#dae8fc;align=left;verticalAlign=middle;spacingLeft=4;spacingRight=4;overflow=hidden;points=[[0,0.5],[1,0.5]];portConstraint=eastwest;rotatable=0;whiteSpace=wrap;html=1;" vertex="1" parent="w8eq9V9YnCzfdB6YvHJ1-43">
          <mxGeometry y="30" width="90" height="30" as="geometry" />
        </mxCell>
        <mxCell id="w8eq9V9YnCzfdB6YvHJ1-45" value="......" style="text;strokeColor=#6c8ebf;fillColor=#dae8fc;align=left;verticalAlign=middle;spacingLeft=4;spacingRight=4;overflow=hidden;points=[[0,0.5],[1,0.5]];portConstraint=eastwest;rotatable=0;whiteSpace=wrap;html=1;" vertex="1" parent="w8eq9V9YnCzfdB6YvHJ1-43">
          <mxGeometry y="60" width="90" height="30" as="geometry" />
        </mxCell>
        <mxCell id="w8eq9V9YnCzfdB6YvHJ1-46" value="address 256" style="text;strokeColor=#6c8ebf;fillColor=#dae8fc;align=left;verticalAlign=middle;spacingLeft=4;spacingRight=4;overflow=hidden;points=[[0,0.5],[1,0.5]];portConstraint=eastwest;rotatable=0;whiteSpace=wrap;html=1;" vertex="1" parent="w8eq9V9YnCzfdB6YvHJ1-43">
          <mxGeometry y="90" width="90" height="30" as="geometry" />
        </mxCell>
        <mxCell id="w8eq9V9YnCzfdB6YvHJ1-47" style="edgeStyle=orthogonalEdgeStyle;rounded=0;orthogonalLoop=1;jettySize=auto;html=1;exitX=1;exitY=0.5;exitDx=0;exitDy=0;entryX=0;entryY=0.5;entryDx=0;entryDy=0;fontFamily=Helvetica;fontSize=12;fontColor=default;" edge="1" parent="1" source="w8eq9V9YnCzfdB6YvHJ1-39" target="w8eq9V9YnCzfdB6YvHJ1-44">
          <mxGeometry relative="1" as="geometry" />
        </mxCell>
        <mxCell id="w8eq9V9YnCzfdB6YvHJ1-48" value="data" style="text;strokeColor=#9673a6;fillColor=#e1d5e7;align=left;verticalAlign=middle;spacingLeft=4;spacingRight=4;overflow=hidden;points=[[0,0.5],[1,0.5]];portConstraint=eastwest;rotatable=0;whiteSpace=wrap;html=1;" vertex="1" parent="1">
          <mxGeometry x="1380" y="780" width="90" height="30" as="geometry" />
        </mxCell>
        <mxCell id="w8eq9V9YnCzfdB6YvHJ1-49" style="edgeStyle=orthogonalEdgeStyle;rounded=0;orthogonalLoop=1;jettySize=auto;html=1;exitX=1;exitY=0.5;exitDx=0;exitDy=0;entryX=0;entryY=0.5;entryDx=0;entryDy=0;fontFamily=Helvetica;fontSize=12;fontColor=default;" edge="1" parent="1" source="w8eq9V9YnCzfdB6YvHJ1-29" target="w8eq9V9YnCzfdB6YvHJ1-48">
          <mxGeometry relative="1" as="geometry" />
        </mxCell>
        <mxCell id="w8eq9V9YnCzfdB6YvHJ1-50" value="data" style="text;strokeColor=#9673a6;fillColor=#e1d5e7;align=left;verticalAlign=middle;spacingLeft=4;spacingRight=4;overflow=hidden;points=[[0,0.5],[1,0.5]];portConstraint=eastwest;rotatable=0;whiteSpace=wrap;html=1;" vertex="1" parent="1">
          <mxGeometry x="1550" y="950" width="90" height="30" as="geometry" />
        </mxCell>
        <mxCell id="w8eq9V9YnCzfdB6YvHJ1-51" style="edgeStyle=orthogonalEdgeStyle;rounded=0;orthogonalLoop=1;jettySize=auto;html=1;exitX=1;exitY=0.5;exitDx=0;exitDy=0;entryX=0;entryY=0.5;entryDx=0;entryDy=0;fontFamily=Helvetica;fontSize=12;fontColor=default;" edge="1" parent="1" source="w8eq9V9YnCzfdB6YvHJ1-44" target="w8eq9V9YnCzfdB6YvHJ1-50">
          <mxGeometry relative="1" as="geometry" />
        </mxCell>
        <mxCell id="w8eq9V9YnCzfdB6YvHJ1-52" value="data" style="text;strokeColor=#9673a6;fillColor=#e1d5e7;align=left;verticalAlign=middle;spacingLeft=4;spacingRight=4;overflow=hidden;points=[[0,0.5],[1,0.5]];portConstraint=eastwest;rotatable=0;whiteSpace=wrap;html=1;" vertex="1" parent="1">
          <mxGeometry x="1380" y="880" width="90" height="30" as="geometry" />
        </mxCell>
        <mxCell id="w8eq9V9YnCzfdB6YvHJ1-53" style="edgeStyle=orthogonalEdgeStyle;rounded=0;orthogonalLoop=1;jettySize=auto;html=1;exitX=1;exitY=0.5;exitDx=0;exitDy=0;entryX=0;entryY=0.5;entryDx=0;entryDy=0;fontFamily=Helvetica;fontSize=12;fontColor=default;" edge="1" parent="1" source="w8eq9V9YnCzfdB6YvHJ1-31" target="w8eq9V9YnCzfdB6YvHJ1-52">
          <mxGeometry relative="1" as="geometry" />
        </mxCell>
        <mxCell id="w8eq9V9YnCzfdB6YvHJ1-54" value="data" style="text;strokeColor=#9673a6;fillColor=#e1d5e7;align=left;verticalAlign=middle;spacingLeft=4;spacingRight=4;overflow=hidden;points=[[0,0.5],[1,0.5]];portConstraint=eastwest;rotatable=0;whiteSpace=wrap;html=1;" vertex="1" parent="1">
          <mxGeometry x="1550" y="1050" width="90" height="30" as="geometry" />
        </mxCell>
        <mxCell id="w8eq9V9YnCzfdB6YvHJ1-55" style="edgeStyle=orthogonalEdgeStyle;rounded=0;orthogonalLoop=1;jettySize=auto;html=1;exitX=1;exitY=0.5;exitDx=0;exitDy=0;fontFamily=Helvetica;fontSize=12;fontColor=default;" edge="1" parent="1" source="w8eq9V9YnCzfdB6YvHJ1-46" target="w8eq9V9YnCzfdB6YvHJ1-54">
          <mxGeometry relative="1" as="geometry" />
        </mxCell>
        <mxCell id="w8eq9V9YnCzfdB6YvHJ1-56" value="direct" style="swimlane;fontStyle=0;childLayout=stackLayout;horizontal=1;startSize=30;horizontalStack=0;resizeParent=1;resizeParentMax=0;resizeLast=0;collapsible=1;marginBottom=0;whiteSpace=wrap;html=1;fillColor=#dae8fc;strokeColor=#6c8ebf;" vertex="1" parent="1">
          <mxGeometry x="1400" y="1120" width="90" height="120" as="geometry" />
        </mxCell>
        <mxCell id="w8eq9V9YnCzfdB6YvHJ1-57" value="address 1" style="text;strokeColor=#6c8ebf;fillColor=#dae8fc;align=left;verticalAlign=middle;spacingLeft=4;spacingRight=4;overflow=hidden;points=[[0,0.5],[1,0.5]];portConstraint=eastwest;rotatable=0;whiteSpace=wrap;html=1;" vertex="1" parent="w8eq9V9YnCzfdB6YvHJ1-56">
          <mxGeometry y="30" width="90" height="30" as="geometry" />
        </mxCell>
        <mxCell id="w8eq9V9YnCzfdB6YvHJ1-58" value="......" style="text;strokeColor=#6c8ebf;fillColor=#dae8fc;align=left;verticalAlign=middle;spacingLeft=4;spacingRight=4;overflow=hidden;points=[[0,0.5],[1,0.5]];portConstraint=eastwest;rotatable=0;whiteSpace=wrap;html=1;" vertex="1" parent="w8eq9V9YnCzfdB6YvHJ1-56">
          <mxGeometry y="60" width="90" height="30" as="geometry" />
        </mxCell>
        <mxCell id="w8eq9V9YnCzfdB6YvHJ1-59" value="address 256" style="text;strokeColor=#6c8ebf;fillColor=#dae8fc;align=left;verticalAlign=middle;spacingLeft=4;spacingRight=4;overflow=hidden;points=[[0,0.5],[1,0.5]];portConstraint=eastwest;rotatable=0;whiteSpace=wrap;html=1;" vertex="1" parent="w8eq9V9YnCzfdB6YvHJ1-56">
          <mxGeometry y="90" width="90" height="30" as="geometry" />
        </mxCell>
        <mxCell id="w8eq9V9YnCzfdB6YvHJ1-60" value="data" style="text;strokeColor=#9673a6;fillColor=#e1d5e7;align=left;verticalAlign=middle;spacingLeft=4;spacingRight=4;overflow=hidden;points=[[0,0.5],[1,0.5]];portConstraint=eastwest;rotatable=0;whiteSpace=wrap;html=1;" vertex="1" parent="1">
          <mxGeometry x="1550" y="1130" width="90" height="30" as="geometry" />
        </mxCell>
        <mxCell id="w8eq9V9YnCzfdB6YvHJ1-61" style="edgeStyle=orthogonalEdgeStyle;rounded=0;orthogonalLoop=1;jettySize=auto;html=1;exitX=1;exitY=0.5;exitDx=0;exitDy=0;entryX=0;entryY=0.5;entryDx=0;entryDy=0;fontFamily=Helvetica;fontSize=12;fontColor=default;" edge="1" parent="1" source="w8eq9V9YnCzfdB6YvHJ1-57" target="w8eq9V9YnCzfdB6YvHJ1-60">
          <mxGeometry relative="1" as="geometry" />
        </mxCell>
        <mxCell id="w8eq9V9YnCzfdB6YvHJ1-62" value="data" style="text;strokeColor=#9673a6;fillColor=#e1d5e7;align=left;verticalAlign=middle;spacingLeft=4;spacingRight=4;overflow=hidden;points=[[0,0.5],[1,0.5]];portConstraint=eastwest;rotatable=0;whiteSpace=wrap;html=1;" vertex="1" parent="1">
          <mxGeometry x="1550" y="1230" width="90" height="30" as="geometry" />
        </mxCell>
        <mxCell id="w8eq9V9YnCzfdB6YvHJ1-63" style="edgeStyle=orthogonalEdgeStyle;rounded=0;orthogonalLoop=1;jettySize=auto;html=1;exitX=1;exitY=0.5;exitDx=0;exitDy=0;fontFamily=Helvetica;fontSize=12;fontColor=default;" edge="1" parent="1" source="w8eq9V9YnCzfdB6YvHJ1-59" target="w8eq9V9YnCzfdB6YvHJ1-62">
          <mxGeometry relative="1" as="geometry" />
        </mxCell>
        <mxCell id="w8eq9V9YnCzfdB6YvHJ1-64" style="edgeStyle=orthogonalEdgeStyle;rounded=0;orthogonalLoop=1;jettySize=auto;html=1;exitX=1;exitY=0.5;exitDx=0;exitDy=0;entryX=0;entryY=0.5;entryDx=0;entryDy=0;fontFamily=Helvetica;fontSize=12;fontColor=default;" edge="1" parent="1" source="w8eq9V9YnCzfdB6YvHJ1-41" target="w8eq9V9YnCzfdB6YvHJ1-57">
          <mxGeometry relative="1" as="geometry" />
        </mxCell>
      </root>
    </mxGraphModel>
  </diagram>
</mxfile>
